<?xml version="1.0" encoding="utf-8"?>
<!-- Generator: Adobe Illustrator 25.1.0, SVG Export Plug-In . SVG Version: 6.00 Build 0)  -->
<svg version="1.1" id="Layer_1" xmlns="http://www.w3.org/2000/svg" xmlns:xlink="http://www.w3.org/1999/xlink" x="0px" y="0px"
	 viewBox="0 0 66.4 63.5" style="enable-background:new 0 0 66.4 63.5;" xml:space="preserve">
<style type="text/css">
	.st0{fill:#0A0E10;stroke:#040405;stroke-miterlimit:10;}
	.st1{fill:#E24B9B;stroke:#040405;stroke-miterlimit:10;}
	.st2{fill:#6653A3;}
	.st3{fill:#69B88F;}
	.st4{fill:#4D8BC9;}
	.st5{fill:#0A0B0D;}
	.st6{fill:#0A1216;}
	.st7{fill:#0B0F11;}
	.st8{fill:#E24B9B;}
	.st9{fill:#4273B9;}
</style>
<g>
	<path class="st0" d="M16.1,45.7c-3.3,0-6.5-0.3-9.6-1.5c-0.7-0.3-1.4-0.6-2-1c-3.6-2.1-4.9-5.7-3.4-9.6c1.1-2.9,3-5.2,5.2-7.4
		c1.5-1.4,3-2.7,4.7-3.9c0.4-0.2,0.4-0.5,0.4-0.9C10.8,12.1,16.5,3,26,1c6.8-1.5,12.7,0.6,17.7,5.3C44.6,7,45.4,7.9,46,8.9
		c0.2,0.3,0.5,0.4,0.9,0.4c4.1-0.3,8.2-0.2,12.2,1c1.2,0.4,2.3,0.9,3.3,1.6c3.1,2.1,4.2,5.3,3.1,8.8c-0.9,2.9-2.7,5.2-4.8,7.3
		c-3.8,3.9-8.4,6.8-13.2,9.3c-6.3,3.3-13,5.7-20,7.2C23.7,45.3,20,45.8,16.1,45.7z M20.2,42.3c2.6-0.1,4.9-0.3,7.3-0.7
		c4.1-0.8,8.1-2,11.9-3.6c5-2,9.8-4.6,13.8-8.2c1.6-1.4,3-3,3.9-5c1-2.3,0.3-4.1-1.9-5.3c-1.6-0.8-3.3-1.1-5.1-1.2
		c-3.2-0.2-6.4,0.1-9.5,0.7c-5.2,1-10.2,2.7-15,5c-4.1,1.9-7.9,4.2-11.1,7.4c-1.4,1.4-2.7,2.9-3.4,4.9c-0.6,1.8-0.1,3.1,1.5,4.2
		c0.5,0.3,1,0.6,1.5,0.8C16.2,42.1,18.3,42.3,20.2,42.3z M15.4,43.8c-1.5-0.4-2.9-0.8-4.1-1.7c-1.7-1.2-2.6-2.9-2.3-5.1
		c0.2-1.6,1-3,1.9-4.3c2-2.7,4.6-4.8,7.4-6.6c6.3-4.1,13.2-6.9,20.6-8.5c4.3-1,8.7-1.5,13.1-0.8c1.9,0.3,3.7,0.8,5.3,1.9
		c1.8,1.4,2.5,3.1,2.1,5.4c-0.3,1.5-1,2.7-1.9,3.9c0.2,0.1,0.3-0.1,0.5-0.2c1.6-1.5,3.2-3.1,4.4-5c0.7-1.1,1.3-2.3,1.5-3.6
		c0.5-2.7-0.5-4.7-2.9-6.1c-2.4-1.4-5-1.9-7.8-2.1c-4.7-0.4-9.3,0.2-13.8,1.2c-7,1.5-13.7,3.9-20,7.3c-4.4,2.3-8.6,5.1-12.2,8.7
		c-1.7,1.7-3.2,3.6-4.1,5.9c-1.3,3.4-0.3,6.1,2.9,7.8c1.1,0.6,2.2,1,3.4,1.2C11.3,43.6,13.4,43.8,15.4,43.8z M40.4,6
		c-3.8-3.1-10.3-4.8-16.1-2.6c-6.5,2.4-9.8,8.4-10.5,12.4C22,10.7,30.9,7.5,40.4,6z M13.3,20.8c9.5-5.9,19.7-9.7,30.8-11.3
		c-0.5-0.5-0.9-0.9-1.2-1.4c-0.3-0.4-0.7-0.4-1.1-0.4c-2,0.3-4,0.6-5.9,1.1c-7.4,1.7-14.3,4.5-20.8,8.5c-1.9,1.2-1.9,1.2-1.8,3.4
		C13.3,20.7,13.3,20.7,13.3,20.8z"/>
	<path class="st1" d="M54.4,57c0,0.5-0.2,0.9-0.7,1c-0.5,0.1-0.8,0-1.1-0.4c-0.5-0.8-0.9-1.6-1.4-2.5c-2.3-4.1-4.5-8.2-6.8-12.3
		c-0.1-0.1-0.1-0.2-0.2-0.4c-0.3-0.6-0.2-1.2,0.3-1.5c0.5-0.3,1.1-0.1,1.4,0.6c0.8,1.4,1.5,2.7,2.3,4.1c2,3.6,4,7.2,6,10.7
		C54.3,56.6,54.4,56.8,54.4,57z"/>
	<path class="st1" d="M37.9,62c0,0.6-0.3,0.9-0.8,1c-0.5,0.1-0.9-0.2-1.1-0.7c-0.2-1-0.4-1.9-0.7-2.9c-0.9-4.2-1.8-8.3-2.7-12.5
		c0-0.1-0.1-0.3-0.1-0.4c-0.2-0.7,0.1-1.2,0.7-1.4c0.6-0.1,1,0.2,1.2,1c1.1,5.2,2.3,10.3,3.4,15.5C37.9,61.7,37.9,61.9,37.9,62z"/>
	<path class="st1" d="M23.4,58.1c0.3-2.6,0.6-5.5,0.9-8.4c0.1-0.7,0.1-1.5,0.2-2.2c0.1-0.4,0.3-0.7,0.8-0.8c0.4-0.1,0.7,0.1,0.9,0.4
		c0.2,0.2,0.2,0.5,0.2,0.7c-0.3,2.5-0.5,5.1-0.8,7.6c-0.1,1-0.2,2-0.3,3c-0.1,0.5-0.3,1-0.9,1C23.7,59.6,23.3,59.2,23.4,58.1z"/>
	<path class="st1" d="M52.3,36.9c0.4,0,0.6,0.2,0.9,0.4c2.5,2.5,5.1,4.9,7.6,7.4c0.5,0.5,0.5,1,0.1,1.4c-0.4,0.4-1,0.4-1.5-0.1
		c-2.5-2.4-5.1-4.9-7.6-7.4c-0.3-0.3-0.5-0.7-0.3-1.1C51.6,37.2,51.9,37,52.3,36.9z"/>
	<path class="st2" d="M20.2,42.3c-2-0.1-4.1-0.2-6.1-0.9c-0.5-0.2-1.1-0.4-1.5-0.8c-1.5-1-2-2.4-1.5-4.2c0.6-2,1.9-3.5,3.4-4.9
		c3.2-3.2,7.1-5.4,11.1-7.4c4.8-2.3,9.8-4,15-5c3.1-0.6,6.3-0.9,9.5-0.7c1.8,0.1,3.5,0.4,5.1,1.2c2.3,1.1,3,2.9,1.9,5.3
		c-0.9,2-2.3,3.5-3.9,5c-4.1,3.6-8.8,6.1-13.8,8.2c-3.9,1.6-7.8,2.8-11.9,3.6C25.2,42,22.8,42.3,20.2,42.3z M27.3,40.5
		c1.6,0,3.1-0.2,4.6-0.5c4.9-1,9.5-2.9,13.6-5.9c1.5-1.1,2.9-2.4,3.7-4.3c0.8-1.9,0.2-3.6-1.6-4.6c-1-0.6-2.2-0.8-3.3-0.9
		c-1.9-0.2-3.8,0-5.7,0.4c-5,1-9.7,2.8-13.9,5.9c-1.5,1.1-2.9,2.4-3.7,4.2c-0.9,2-0.2,3.9,1.8,4.8C24.2,40.4,25.8,40.5,27.3,40.5z"
		/>
	<path class="st3" d="M15.4,43.8c-2.1,0.1-4.1-0.2-6.1-0.6c-1.2-0.3-2.3-0.7-3.4-1.2c-3.2-1.7-4.2-4.4-2.9-7.8
		c0.9-2.3,2.4-4.2,4.1-5.9c3.6-3.6,7.7-6.3,12.2-8.7c6.3-3.3,13-5.8,20-7.3c4.6-1,9.2-1.5,13.8-1.2c2.7,0.2,5.4,0.7,7.8,2.1
		c2.4,1.4,3.4,3.4,2.9,6.1c-0.2,1.3-0.8,2.5-1.5,3.6c-1.2,1.9-2.7,3.5-4.4,5c-0.1,0.1-0.2,0.3-0.5,0.2c0.9-1.2,1.6-2.5,1.9-3.9
		c0.4-2.2-0.3-4-2.1-5.4c-1.6-1.2-3.4-1.7-5.3-1.9c-4.4-0.6-8.8-0.1-13.1,0.8c-7.4,1.6-14.3,4.4-20.6,8.5C15.6,27.9,13,30,11,32.7
		C10,34,9.3,35.4,9,37c-0.3,2.2,0.5,3.8,2.3,5.1C12.5,42.9,14,43.4,15.4,43.8z M28.9,18.8c0.6-0.2,1.4-0.4,2-0.8
		c0.4-0.3,0.4-0.7,0.3-1.1c-0.2-0.4-0.5-0.7-1-0.5c-0.6,0.2-1.2,0.4-1.8,0.7c-0.4,0.2-0.5,0.6-0.4,1.1
		C28.1,18.5,28.4,18.7,28.9,18.8z M13.9,26.8c0.5,0,2-1.1,2.2-1.5c0.1-0.4,0-0.7-0.2-1c-0.3-0.3-0.7-0.4-1-0.2
		c-0.6,0.3-1.1,0.7-1.6,1.2c-0.3,0.3-0.3,0.7-0.1,1.1C13.3,26.6,13.6,26.8,13.9,26.8z M23.4,20.4c0-0.5-0.6-1-1.2-0.8
		c-0.6,0.2-1.1,0.5-1.6,0.9c-0.4,0.3-0.5,0.7-0.3,1.2c0.2,0.5,0.6,0.7,1.1,0.5c0.6-0.2,1.1-0.5,1.6-0.8
		C23.3,21.2,23.4,20.9,23.4,20.4z M46.5,12.8c-0.1,0-0.3,0-0.4,0c-0.3,0-0.6,0.1-0.8,0.1c-0.6,0.1-0.9,0.5-0.9,1
		c0,0.5,0.5,0.9,1,0.9c0.5,0,1-0.1,1.5-0.1c0.4,0,0.7-0.3,0.8-0.7c0.1-0.4,0-0.7-0.3-1C47.2,12.8,46.9,12.8,46.5,12.8z M54.1,13.1
		c-0.8,0-1.2,0.3-1.3,0.8c-0.1,0.5,0.2,0.9,0.8,1.1c0.5,0.1,1,0.3,1.6,0.3c0.5,0.1,0.9-0.2,1-0.7c0.1-0.5-0.1-1-0.6-1.1
		C55,13.3,54.5,13.2,54.1,13.1z M38.3,14c-0.5,0.1-1.2,0.2-1.7,0.4c-0.5,0.2-0.6,0.6-0.5,1.1c0.1,0.5,0.5,0.8,1,0.7
		c0.6-0.1,1.1-0.2,1.7-0.4c0.5-0.2,0.7-0.5,0.6-1.1C39.3,14.2,38.9,14,38.3,14z M9.8,30.6c0-0.5-0.2-0.8-0.6-0.9
		c-0.4-0.2-0.8-0.1-1,0.2c-0.4,0.4-0.7,0.9-1,1.3c-0.3,0.5-0.2,1,0.2,1.3c0.4,0.3,0.9,0.2,1.3-0.2c0.3-0.4,0.6-0.8,0.9-1.2
		C9.8,30.9,9.8,30.8,9.8,30.6z M6,37.3c-0.5,0-0.8,0.2-0.9,0.7c-0.2,0.5,0.1,1.5,0.5,1.8C6,40,6.4,40,6.7,39.8
		c0.6-0.5,0.4-1,0.2-1.6C6.8,37.6,6.5,37.4,6,37.3z M61,17.1c-0.4,0-0.8,0.3-0.9,0.7c-0.1,0.5,0.4,1.6,0.8,1.8
		c0.5,0.2,0.9,0.1,1.2-0.2c0.4-0.4,0.2-0.9,0-1.3C61.8,17.6,61.6,17.2,61,17.1z"/>
	<path class="st2" d="M40.4,6c-9.5,1.5-18.4,4.7-26.6,9.8c0.6-4,4-9.9,10.5-12.4C30.2,1.2,36.7,2.9,40.4,6z"/>
	<path class="st4" d="M13.3,20.8c0-0.1,0-0.1,0-0.1c-0.1-2.2-0.1-2.3,1.8-3.4c6.4-4,13.4-6.8,20.8-8.5c2-0.4,4-0.8,5.9-1.1
		c0.4-0.1,0.8,0,1.1,0.4c0.4,0.5,0.8,0.9,1.2,1.4C33,11.1,22.8,14.9,13.3,20.8z"/>
	<path class="st5" d="M27.3,40.5c-1.5,0-3-0.1-4.4-0.8c-2-1-2.7-2.8-1.8-4.8c0.8-1.8,2.2-3.1,3.7-4.2c4.1-3.1,8.8-4.9,13.9-5.9
		c1.9-0.4,3.8-0.5,5.7-0.4c1.2,0.1,2.3,0.3,3.3,0.9c1.8,1,2.4,2.7,1.6,4.6c-0.8,1.8-2.2,3.1-3.7,4.3c-4.1,3-8.7,4.9-13.6,5.9
		C30.4,40.4,28.8,40.5,27.3,40.5z M26,35.1c1.1,0,2.1-0.1,3.2-0.3c3.9-0.7,7.6-1.9,11.1-3.9c1.9-1.1,3.7-2.3,5-4
		c0.2-0.3,0.3-0.4-0.2-0.5c-1.8-0.4-3.7-0.3-5.5,0c-4.4,0.7-8.5,2.2-12.3,4.6c-1.5,0.9-2.8,2-4,3.4c-0.2,0.3-0.3,0.4,0.2,0.5
		C24.4,35,25.2,35.2,26,35.1z M47.3,27.6c-6.2,6.7-15.8,10.3-24.7,9.1c0,0.6,0.3,1,1.1,1.4c1,0.5,2.1,0.6,3.2,0.6
		c3.9,0.1,7.6-0.9,11.1-2.4c2.8-1.2,5.5-2.6,7.7-4.7c0.7-0.7,1.4-1.5,1.8-2.4C47.6,28.6,47.7,28,47.3,27.6z"/>
	<path class="st6" d="M28.9,18.8c-0.5,0-0.8-0.2-1-0.7c-0.1-0.5,0-0.9,0.4-1.1c0.6-0.3,1.2-0.5,1.8-0.7c0.4-0.1,0.8,0.1,1,0.5
		c0.2,0.4,0.1,0.9-0.3,1.1C30.3,18.4,29.5,18.5,28.9,18.8z"/>
	<path class="st6" d="M13.9,26.8c-0.3,0-0.6-0.2-0.8-0.5c-0.2-0.4-0.2-0.8,0.1-1.1c0.5-0.5,1-0.8,1.6-1.2c0.4-0.2,0.7-0.1,1,0.2
		c0.3,0.3,0.4,0.6,0.2,1C15.9,25.7,14.4,26.8,13.9,26.8z"/>
	<path class="st6" d="M23.4,20.4c0,0.4-0.1,0.7-0.4,0.9c-0.5,0.3-1.1,0.6-1.6,0.8c-0.5,0.2-0.9,0-1.1-0.5c-0.2-0.5-0.1-0.9,0.3-1.2
		c0.5-0.3,1.1-0.6,1.6-0.9C22.8,19.4,23.4,19.9,23.4,20.4z"/>
	<path class="st6" d="M46.5,12.8c0.3,0,0.7,0,1,0.2c0.3,0.3,0.4,0.6,0.3,1c-0.1,0.4-0.4,0.6-0.8,0.7c-0.5,0.1-1,0.1-1.5,0.1
		c-0.6,0-1-0.3-1-0.9c0-0.6,0.3-1,0.9-1c0.3,0,0.6-0.1,0.8-0.1C46.2,12.8,46.4,12.8,46.5,12.8z"/>
	<path class="st6" d="M54.1,13.1c0.4,0.1,0.9,0.2,1.5,0.4c0.5,0.2,0.8,0.6,0.6,1.1c-0.1,0.5-0.5,0.8-1,0.7c-0.5-0.1-1.1-0.2-1.6-0.3
		c-0.5-0.1-0.8-0.6-0.8-1.1C52.9,13.4,53.3,13.1,54.1,13.1z"/>
	<path class="st7" d="M38.3,14c0.6,0,1,0.2,1.1,0.8c0.1,0.5-0.1,0.9-0.6,1.1c-0.6,0.2-1.1,0.3-1.7,0.4c-0.5,0.1-0.9-0.2-1-0.7
		c-0.1-0.5,0.1-0.9,0.5-1.1C37.1,14.2,37.8,14.1,38.3,14z"/>
	<path class="st7" d="M9.8,30.6c0,0.1-0.1,0.3-0.2,0.5c-0.3,0.4-0.6,0.8-0.9,1.2c-0.4,0.5-0.9,0.5-1.3,0.2c-0.4-0.3-0.5-0.8-0.2-1.3
		c0.3-0.5,0.7-0.9,1-1.3c0.3-0.3,0.6-0.4,1-0.2C9.6,29.8,9.8,30.1,9.8,30.6z"/>
	<path class="st6" d="M6,37.3c0.5,0.1,0.8,0.3,0.9,0.8c0.2,0.6,0.4,1.2-0.2,1.6C6.4,40,6,40,5.6,39.8c-0.4-0.3-0.7-1.4-0.5-1.8
		C5.3,37.5,5.6,37.3,6,37.3z"/>
	<path class="st6" d="M61,17.1c0.6,0,0.8,0.4,1,0.9c0.2,0.5,0.4,0.9,0,1.3c-0.3,0.4-0.7,0.5-1.2,0.2c-0.4-0.2-0.9-1.3-0.8-1.8
		C60.1,17.4,60.6,17.1,61,17.1z"/>
	<path class="st8" d="M26,35.1c-0.8,0-1.6-0.1-2.4-0.2c-0.5-0.1-0.4-0.2-0.2-0.5c1.1-1.4,2.5-2.4,4-3.4c3.8-2.3,7.9-3.9,12.3-4.6
		c1.8-0.3,3.6-0.4,5.5,0c0.4,0.1,0.4,0.2,0.2,0.5c-1.4,1.7-3.2,2.9-5,4c-3.5,2-7.2,3.3-11.1,3.9C28.1,35,27.1,35.2,26,35.1z"/>
	<path class="st9" d="M47.3,27.6c0.4,0.5,0.3,1,0.1,1.5c-0.4,1-1,1.7-1.8,2.4c-2.3,2.1-4.9,3.6-7.7,4.7c-3.6,1.5-7.2,2.4-11.1,2.4
		c-1.1,0-2.2-0.2-3.2-0.6c-0.7-0.3-1-0.7-1.1-1.4C31.5,37.8,41.1,34.3,47.3,27.6z"/>
</g>
</svg>
