<?xml version="1.0" encoding="utf-8"?>
<!-- Generator: Adobe Illustrator 25.1.0, SVG Export Plug-In . SVG Version: 6.00 Build 0)  -->
<svg version="1.1" id="Layer_1" xmlns="http://www.w3.org/2000/svg" xmlns:xlink="http://www.w3.org/1999/xlink" x="0px" y="0px"
	 viewBox="0 0 375.8 178.9" style="enable-background:new 0 0 375.8 178.9;" xml:space="preserve">
<style type="text/css">
	.st0{opacity:0.9;}
	.st1{fill:url(#SVGID_1_);}
	.st2{fill:url(#SVGID_2_);}
	.st3{fill:url(#SVGID_3_);}
	.st4{fill:url(#SVGID_4_);}
	.st5{fill:url(#SVGID_5_);}
	.st6{fill:url(#SVGID_6_);}
	.st7{fill:url(#SVGID_7_);}
	.st8{fill:url(#SVGID_8_);}
	.st9{fill:url(#SVGID_9_);}
	.st10{fill:url(#SVGID_10_);}
	.st11{fill:#FFFFFF;}
	.st12{fill:#0A0E10;}
	.st13{fill:url(#SVGID_11_);}
	.st14{fill:url(#SVGID_12_);}
	.st15{fill:url(#SVGID_13_);}
	.st16{fill:url(#SVGID_14_);}
	.st17{fill:#3C64AF;}
	.st18{fill:#4273B9;}
	.st19{fill:#4D8BC9;}
	.st20{fill:#0A0B0D;}
	.st21{fill:#0A1216;}
	.st22{fill:#0B0F11;}
	.st23{fill:url(#SVGID_15_);}
</style>
<g>
	<g class="st0">
		<path d="M35.5,98.5c1.6,0,3.3,0,4.9,0c1.5,0,1.5,0,1.8,1.4c2.4,9.5,4.9,19.1,7.3,28.6c3.6,14.4,7.3,28.8,10.9,43.1
			c0.6,2.5,0.6,2.5-1.8,3.1c-2.4,0.6-4.7,1.2-7.1,1.8c-1.2,0.3-1.5,0.2-1.8-1.1c-0.7-2.7-1.4-5.5-2.1-8.2c-0.9-3.6-1.8-7.2-2.7-10.8
			c-0.4-1.4-0.5-1.5-1.9-1.5c-7.6,0-15.1,0.1-22.7,0.2c-1.4,0-1.4,0-1.9,1.4c-1.9,5-3.8,10-5.8,15c-0.2,0.6-0.4,1.1-0.7,1.7
			c-0.5,0.9-0.7,1-1.7,0.7c-1.3-0.4-2.6-0.9-3.8-1.4c-1.2-0.5-2.3-1-3.5-1.5c-1.6-0.7-1.7-1-1.1-2.7c1-2.7,2-5.3,3.1-8
			c7.7-19.9,15.3-39.9,23-59.8c0.1-0.2,0.2-0.4,0.2-0.7c0.2-1,0.9-1.3,1.9-1.3C31.8,98.6,33.6,98.6,35.5,98.5
			C35.5,98.6,35.5,98.5,35.5,98.5z M23.4,143.7c6.1-0.2,12,0.1,18-0.2c-0.1-0.6-0.1-1-0.2-1.4c-0.3-1.3-0.6-2.6-1-4
			c-1.8-7-3.5-14-5.3-21c-0.1-0.5-0.3-1-0.5-1.5c-0.1,0-0.2,0-0.4,0C30.6,124.9,27,134.2,23.4,143.7z"/>
	</g>
	<g>
		<linearGradient id="SVGID_1_" gradientUnits="userSpaceOnUse" x1="29.6621" y1="175.2978" x2="29.6621" y2="97.1061">
			<stop  offset="0" style="stop-color:#A6A6A6"/>
			<stop  offset="1" style="stop-color:#FFFFFF"/>
		</linearGradient>
		<path class="st1" d="M34,97.1c1.6,0,3.3,0,4.9,0c1.5,0,1.5,0,1.8,1.4c2.4,9.5,4.9,19.1,7.3,28.6c3.6,14.4,7.3,28.8,10.9,43.1
			c0.6,2.5,0.6,2.5-1.8,3.1c-2.4,0.6-4.7,1.2-7.1,1.8c-1.2,0.3-1.5,0.2-1.8-1.1c-0.7-2.7-1.4-5.5-2.1-8.2c-0.9-3.6-1.8-7.2-2.7-10.8
			c-0.4-1.4-0.5-1.5-1.9-1.5c-7.6,0-15.1,0.1-22.7,0.2c-1.4,0-1.4,0-1.9,1.4c-1.9,5-3.8,10-5.8,15c-0.2,0.6-0.4,1.1-0.7,1.7
			c-0.5,0.9-0.7,1-1.7,0.7c-1.3-0.4-2.6-0.9-3.8-1.4c-1.2-0.5-2.3-1-3.5-1.5c-1.6-0.7-1.7-1-1.1-2.7c1-2.7,2-5.3,3.1-8
			c7.7-19.9,15.3-39.9,23-59.8c0.1-0.2,0.2-0.4,0.2-0.7c0.2-1,0.9-1.3,1.9-1.3C30.4,97.2,32.2,97.2,34,97.1C34,97.1,34,97.1,34,97.1
			z M22,142.3c6.1-0.2,12,0.1,18-0.2c-0.1-0.6-0.1-1-0.2-1.4c-0.3-1.3-0.6-2.6-1-4c-1.8-7-3.5-14-5.3-21c-0.1-0.5-0.3-1-0.5-1.5
			c-0.1,0-0.2,0-0.4,0C29.2,123.5,25.6,132.7,22,142.3z"/>
	</g>
</g>
<g>
	<g class="st0">
		<path d="M201.3,163c-0.1,0.7-0.2,1.3-0.2,1.8c0,2.9,0,5.8,0,8.7c0,0.4,0,0.8,0,1.3c-0.1,1-0.2,1.1-1.2,1.2c-0.8,0-1.7,0-2.5,0
			c-1.8,0-3.7,0.1-5.5,0.1c-1.5,0-1.7-0.2-1.8-1.7c-0.1-4.5-0.1-9-0.1-13.5c-0.1-17.2-0.2-34.4-0.3-51.6c0-2.2,0-4.4,0-6.6
			c0-1.4,0.2-1.6,1.7-1.6c2.6,0,5.3,0,7.9,0c1.2,0,1.4,0.2,1.4,1.4c0,0.2,0,0.5,0,0.7c0.1,8.8,0.1,17.7,0.2,26.5c0,1.7,0,3.5,0,5.2
			c0,0.4,0.1,0.7,0.1,1.4c0.5-0.5,0.9-0.8,1.2-1.1c3-2.9,6.5-5.1,10.6-6.3c5.1-1.4,10-0.8,14.5,1.8c6.5,3.8,9.7,9.6,10.2,17
			c0.2,2.4,0.1,4.8-0.5,7.1c-1.2,4.5-3.9,7.9-7.9,10.3c-5.9,3.5-12.2,3.8-18.6,1.8c-2.6-0.8-5-2.1-7.5-3.1
			C202.5,163.5,202,163.3,201.3,163z M203.8,150.7c0.3,0.4,0.3,0.5,0.4,0.6c0.2,0.2,0.4,0.4,0.7,0.5c2.4,1.7,5.1,3,7.9,4
			c2.6,1,5.3,1.4,8,0.8c3.9-1,5.2-2.7,5.6-5.5c0.4-2.5,0.1-4.8-1-7.1c-1.7-3.6-5.7-5.5-9.5-4.4c-1.6,0.4-3,1.1-4.2,2.2
			c-1.7,1.5-3.3,3.1-4.8,4.8C205.7,147.8,204.8,149.3,203.8,150.7z"/>
	</g>
	<g>
		<linearGradient id="SVGID_2_" gradientUnits="userSpaceOnUse" x1="212.227" y1="174.6276" x2="212.227" y2="99.5912">
			<stop  offset="0" style="stop-color:#A6A6A6"/>
			<stop  offset="1" style="stop-color:#FFFFFF"/>
		</linearGradient>
		<path class="st2" d="M199.8,161.6c-0.1,0.7-0.2,1.3-0.2,1.8c0,2.9,0,5.8,0,8.7c0,0.4,0,0.8,0,1.3c-0.1,1-0.2,1.1-1.2,1.2
			c-0.8,0-1.7,0-2.5,0c-1.8,0-3.7,0.1-5.5,0.1c-1.5,0-1.7-0.2-1.8-1.7c-0.1-4.5-0.1-9-0.1-13.5c-0.1-17.2-0.2-34.4-0.3-51.6
			c0-2.2,0-4.4,0-6.6c0-1.4,0.2-1.6,1.7-1.6c2.6,0,5.3,0,7.9,0c1.2,0,1.4,0.2,1.4,1.4c0,0.2,0,0.5,0,0.7c0.1,8.8,0.1,17.7,0.2,26.5
			c0,1.7,0,3.5,0,5.2c0,0.4,0.1,0.7,0.1,1.4c0.5-0.5,0.9-0.8,1.2-1.1c3-2.9,6.5-5.1,10.6-6.3c5.1-1.4,10-0.8,14.5,1.8
			c6.5,3.8,9.7,9.6,10.2,17c0.2,2.4,0.1,4.8-0.5,7.1c-1.2,4.5-3.9,7.9-7.9,10.3c-5.9,3.5-12.2,3.8-18.6,1.8c-2.6-0.8-5-2.1-7.5-3.1
			C201,162.1,200.5,161.9,199.8,161.6z M202.3,149.3c0.3,0.4,0.3,0.5,0.4,0.6c0.2,0.2,0.4,0.4,0.7,0.5c2.4,1.7,5.1,3,7.9,4
			c2.6,1,5.3,1.4,8,0.8c3.9-1,5.2-2.7,5.6-5.5c0.4-2.5,0.1-4.8-1-7.1c-1.7-3.6-5.7-5.5-9.5-4.4c-1.6,0.4-3,1.1-4.2,2.2
			c-1.7,1.5-3.3,3.1-4.8,4.8C204.3,146.4,203.4,147.9,202.3,149.3z"/>
	</g>
</g>
<g>
	<g class="st0">
		<path d="M364.4,161.5c-0.3,0.3-0.6,0.5-0.9,0.8c-3.3,3.3-6.8,6.2-11.1,8.1c-3.6,1.7-7.4,2.6-11.5,2.5c-6.3-0.2-12.1-4.7-13.8-10.8
			c-1.4-5.4-0.8-10.6,1.8-15.4c3.5-6.5,8.6-11.1,15.8-13.2c6.1-1.8,12.1-1.3,17.8,1.4c0.5,0.2,0.9,0.4,1.4,0.6c0.1,0,0.3,0,0.6-0.1
			c0.1-0.6,0.2-1.1,0.2-1.7c0-4.8,0-9.6,0-14.4c0-4.8,0.1-9.6,0.2-14.4c0-0.2,0-0.4,0-0.6c0.1-1,0.3-1.2,1.3-1.2c1.8,0,3.6,0,5.4,0
			c0.9,0,1.9,0,2.8,0c1,0,1.1,0.2,1.2,1.2c0,0.4,0,0.8,0,1.1c0,23,0,46,0,69c0,2.4,0,2.4-2.4,2.4c-2.3,0-4.6,0-6.9,0
			c-1.3,0-1.6-0.2-1.6-1.6c0-4,0-8,0-12c0-0.5,0-1.1-0.1-1.6C364.7,161.6,364.6,161.5,364.4,161.5z M352.2,143.5
			c-4,0-6.5,0.9-9.3,3.1c-1.8,1.5-3.2,3.3-4.3,5.3c-1,1.7-1.4,3.6-1.2,5.6c0.3,3.1,2.7,4.9,5.8,4.4c3.3-0.6,6.1-2,8.7-4
			c3.5-2.8,6.4-6.1,9.1-9.6c0.8-1.1,0.8-1.3-0.4-2.1C358.1,144.5,355.2,143.2,352.2,143.5z"/>
	</g>
	<g>
		<linearGradient id="SVGID_3_" gradientUnits="userSpaceOnUse" x1="349.7265" y1="175.4406" x2="349.7265" y2="101.6889">
			<stop  offset="0" style="stop-color:#A6A6A6"/>
			<stop  offset="1" style="stop-color:#FFFFFF"/>
		</linearGradient>
		<path class="st3" d="M363,160.1c-0.3,0.3-0.6,0.5-0.9,0.8c-3.3,3.3-6.8,6.2-11.1,8.1c-3.6,1.7-7.4,2.6-11.5,2.5
			c-6.3-0.2-12.1-4.7-13.8-10.8c-1.4-5.4-0.8-10.6,1.8-15.4c3.5-6.5,8.6-11.1,15.8-13.2c6.1-1.8,12.1-1.3,17.8,1.4
			c0.5,0.2,0.9,0.4,1.4,0.6c0.1,0,0.3,0,0.6-0.1c0.1-0.6,0.2-1.1,0.2-1.7c0-4.8,0-9.6,0-14.4c0-4.8,0.1-9.6,0.2-14.4
			c0-0.2,0-0.4,0-0.6c0.1-1,0.3-1.2,1.3-1.2c1.8,0,3.6,0,5.4,0c0.9,0,1.9,0,2.8,0c1,0,1.1,0.2,1.2,1.2c0,0.4,0,0.8,0,1.1
			c0,23,0,46,0,69c0,2.4,0,2.4-2.4,2.4c-2.3,0-4.6,0-6.9,0c-1.3,0-1.6-0.2-1.6-1.6c0-4,0-8,0-12c0-0.5,0-1.1-0.1-1.6
			C363.3,160.2,363.1,160.1,363,160.1z M350.8,142.1c-4,0-6.5,0.9-9.3,3.1c-1.8,1.5-3.2,3.3-4.3,5.3c-1,1.7-1.4,3.6-1.2,5.6
			c0.3,3.1,2.7,4.9,5.8,4.4c3.3-0.6,6.1-2,8.7-4c3.5-2.8,6.4-6.1,9.1-9.6c0.8-1.1,0.8-1.3-0.4-2.1
			C356.7,143,353.8,141.8,350.8,142.1z"/>
	</g>
</g>
<g>
	<g class="st0">
		<path d="M151.7,134.1c0.6-0.7,1-1.1,1.3-1.6c1.4-1.9,3.2-3.5,5.1-4.8c4.5-3.2,10.1-3.2,14.6-0.1c2.8,1.9,4.7,4.4,6.4,7.2
			c2.6,4.5,4,9.5,5.1,14.6c1.8,8.4,2.1,16.8,2,25.4c0,0.6-0.1,1.2-0.1,1.8c0,0.7-0.4,1-1.1,1c-2.9-0.1-5.8-0.2-8.7-0.4
			c-1-0.1-1.2-0.3-1.2-1.3c0-1.4,0.1-2.8,0-4.2c-0.1-7.8-0.5-15.5-2.5-23c-0.9-3.4-2-6.8-4.1-9.7c-0.4-0.6-0.9-1.1-1.4-1.6
			c-1-0.9-1.8-1.1-2.9-0.2c-0.9,0.8-1.8,1.7-2.5,2.6c-2.9,3.7-4.7,8-6.1,12.5c-1.7,5.5-2.9,11.1-3.6,16.8c-0.3,2.1-0.1,4.3-0.1,6.5
			c0,2.5,0.2,2.5-2.4,2.5c-2.1,0-4.1,0.1-6.2,0.1c-2.3,0.1-2.3,0-2.3-2.2c0-6.1,0-12.2-0.1-18.3c-0.1-11.1-0.3-22.2-0.5-33.2
			c0-0.9,0-1.9,0-2.8c0.1-1.2,0.4-1.6,1.6-1.7c0.2,0,0.5,0,0.7,0c2.2-0.1,4.4-0.1,6.6-0.2c1.8,0,2.1,0.2,2.1,2
			c0.1,3.8,0.1,7.6,0.2,11.4C151.6,133.2,151.6,133.5,151.7,134.1z"/>
	</g>
	<g>
		<linearGradient id="SVGID_4_" gradientUnits="userSpaceOnUse" x1="161.8892" y1="176.4981" x2="161.8892" y2="118.0358">
			<stop  offset="0" style="stop-color:#A6A6A6"/>
			<stop  offset="1" style="stop-color:#FFFFFF"/>
		</linearGradient>
		<path class="st4" d="M150.3,132.7c0.6-0.7,1-1.1,1.3-1.6c1.4-1.9,3.2-3.5,5.1-4.8c4.5-3.2,10.1-3.2,14.6-0.1
			c2.8,1.9,4.7,4.4,6.4,7.2c2.6,4.5,4,9.5,5.1,14.6c1.8,8.4,2.1,16.8,2,25.4c0,0.6-0.1,1.2-0.1,1.8c0,0.7-0.4,1-1.1,1
			c-2.9-0.1-5.8-0.2-8.7-0.4c-1-0.1-1.2-0.3-1.2-1.3c0-1.4,0.1-2.8,0-4.2c-0.1-7.8-0.5-15.5-2.5-23c-0.9-3.4-2-6.8-4.1-9.7
			c-0.4-0.6-0.9-1.1-1.4-1.6c-1-0.9-1.8-1.1-2.9-0.2c-0.9,0.8-1.8,1.7-2.5,2.6c-2.9,3.7-4.7,8-6.1,12.5c-1.7,5.5-2.9,11.1-3.6,16.8
			c-0.3,2.1-0.1,4.3-0.1,6.5c0,2.5,0.2,2.5-2.4,2.5c-2.1,0-4.1,0.1-6.2,0.1c-2.3,0.1-2.3,0-2.3-2.2c0-6.1,0-12.2-0.1-18.3
			c-0.1-11.1-0.3-22.2-0.5-33.2c0-0.9,0-1.9,0-2.8c0.1-1.2,0.4-1.6,1.6-1.7c0.2,0,0.5,0,0.7,0c2.2-0.1,4.4-0.1,6.6-0.2
			c1.8,0,2.1,0.2,2.1,2c0.1,3.8,0.1,7.6,0.2,11.4C150.1,131.7,150.2,132,150.3,132.7z"/>
	</g>
</g>
<g>
	<g class="st0">
		<path d="M118,155.5c-1.9,0-3.9,0-5.8,0c-1.4,0-1.6,0.2-1.2,1.5c0.8,2.9,1.9,5.7,3.7,8.2c1,1.3,2.2,2.2,3.8,2.6
			c1.2,0.3,1.9,0,2.3-1.2c0.2-0.8,0.3-1.8,0.3-2.6c0.1-2,0-2,2-2.2c2.5-0.2,5-0.4,7.4-0.7c1.1-0.1,1.5,0.1,1.6,1.1
			c0.3,4-0.1,7.8-2.4,11.2c-3.1,4.6-7.3,6.3-12.6,5.5c-5.2-0.8-9.1-3.5-12-7.9c-3-4.6-4.8-9.6-5.7-15c-1.2-7.1-0.9-14.2,0.7-21.3
			c0.9-3.9,2.5-7.5,5-10.6c2.8-3.4,6.4-5.4,10.8-6.1c2.6-0.4,4.9,0.3,7.2,1.5c3.7,1.9,6.4,4.9,8.5,8.4c1.7,2.8,2.8,5.8,3.6,9
			c1.4,5.3,2.2,10.7,1.8,16.2c0,0.1,0,0.2,0,0.3c-0.1,1.5-0.2,1.6-1.7,1.7c-1.4,0.1-2.7,0.1-4.1,0.2
			C126.8,155.2,122.4,155.4,118,155.5C118,155.5,118,155.5,118,155.5z M125.1,144.1c0.1-0.3,0.2-0.4,0.2-0.5
			c-0.7-4.6-2.1-8.9-5.1-12.5c-0.6-0.7-1.3-1.2-2-1.7c-0.8-0.6-1.6-0.6-2.4,0c-0.8,0.6-1.8,1.3-2.4,2.2c-2.5,3.5-3,7.7-3.4,11.9
			c-0.1,0.6,0.3,1,0.9,1c0.3,0,0.7,0,1,0c3.1-0.1,6.2-0.1,9.3-0.2C122.5,144.2,123.8,144.2,125.1,144.1z"/>
	</g>
	<g>
		<linearGradient id="SVGID_5_" gradientUnits="userSpaceOnUse" x1="116.4357" y1="177.4802" x2="116.4357" y2="116.3114">
			<stop  offset="0" style="stop-color:#A6A6A6"/>
			<stop  offset="1" style="stop-color:#FFFFFF"/>
		</linearGradient>
		<path class="st5" d="M116.6,154.1c-1.9,0-3.9,0-5.8,0c-1.4,0-1.6,0.2-1.2,1.5c0.8,2.9,1.9,5.7,3.7,8.2c1,1.3,2.2,2.2,3.8,2.6
			c1.2,0.3,1.9,0,2.3-1.2c0.2-0.8,0.3-1.8,0.3-2.6c0.1-2,0-2,2-2.2c2.5-0.2,5-0.4,7.4-0.7c1.1-0.1,1.5,0.1,1.6,1.1
			c0.3,4-0.1,7.8-2.4,11.2c-3.1,4.6-7.3,6.3-12.6,5.5c-5.2-0.8-9.1-3.5-12-7.9c-3-4.6-4.8-9.6-5.7-15c-1.2-7.1-0.9-14.2,0.7-21.3
			c0.9-3.9,2.5-7.5,5-10.6c2.8-3.4,6.4-5.4,10.8-6.1c2.6-0.4,4.9,0.3,7.2,1.5c3.7,1.9,6.4,4.9,8.5,8.4c1.7,2.8,2.8,5.8,3.6,9
			c1.4,5.3,2.2,10.7,1.8,16.2c0,0.1,0,0.2,0,0.3c-0.1,1.5-0.2,1.6-1.7,1.7c-1.4,0.1-2.7,0.1-4.1,0.2
			C125.4,153.8,121,154,116.6,154.1C116.6,154.1,116.6,154.1,116.6,154.1z M123.7,142.7c0.1-0.3,0.2-0.4,0.2-0.5
			c-0.7-4.6-2.1-8.9-5.1-12.5c-0.6-0.7-1.3-1.2-2-1.7c-0.8-0.6-1.6-0.6-2.4,0c-0.8,0.6-1.8,1.3-2.4,2.2c-2.5,3.5-3,7.7-3.4,11.9
			c-0.1,0.6,0.3,1,0.9,1c0.3,0,0.7,0,1,0c3.1-0.1,6.2-0.1,9.3-0.2C121.1,142.8,122.4,142.7,123.7,142.7z"/>
	</g>
</g>
<g>
	<g class="st0">
		<path d="M276.3,164.4c-1.1,1-2,1.9-3,2.8c-3.4,3-7.3,4.7-12,4.2c-4.6-0.5-8.2-2.8-11.1-6.3c-1.9-2.2-3.3-4.7-4.3-7.4
			c-2.5-6.7-3.8-13.6-3.6-20.7c0.1-2.5,0.4-4.9,0.8-7.4c0.2-1.4,0.4-1.5,1.9-1.3c2.5,0.4,5.1,0.9,7.6,1.3c1.4,0.2,1.4,0.4,1.3,1.8
			c-0.6,4.4-0.6,8.9,0,13.3c0.6,4.4,1.8,8.7,4.2,12.4c0.5,0.8,1.2,1.5,2,2.1c1.8,1.4,3.6,1.5,5.4,0c1.3-1.1,2.4-2.4,3.3-3.8
			c2-3,3.1-6.4,4-9.9c1.3-5,1.5-10.1,1.2-15.2c-0.1-1.6,0.1-1.8,1.7-1.9c2.6-0.3,5.1-0.5,7.7-0.8c1.1-0.1,1.5,0.1,1.6,1.3
			c0.2,1.6,0.3,3.2,0.4,4.8c0.4,5.5,0.8,11,1.2,16.4c0.5,6.7,1.1,13.5,1.6,20.2c0.1,1.5,0.2,3,0.3,4.5c0.1,1.5-0.2,1.9-1.7,2
			c-2.5,0.2-5,0.3-7.4,0.5c-1.6,0.1-1.9-0.2-2-1.8c-0.2-3.2-0.4-6.4-0.6-9.6C276.5,165.5,276.4,165,276.3,164.4z"/>
	</g>
	<g>
		<linearGradient id="SVGID_6_" gradientUnits="userSpaceOnUse" x1="263.859" y1="175.9613" x2="263.859" y2="126.3282">
			<stop  offset="0" style="stop-color:#A6A6A6"/>
			<stop  offset="1" style="stop-color:#FFFFFF"/>
		</linearGradient>
		<path class="st6" d="M274.9,163c-1.1,1-2,1.9-3,2.8c-3.4,3-7.3,4.7-12,4.2c-4.6-0.5-8.2-2.8-11.1-6.3c-1.9-2.2-3.3-4.7-4.3-7.4
			c-2.5-6.7-3.8-13.6-3.6-20.7c0.1-2.5,0.4-4.9,0.8-7.4c0.2-1.4,0.4-1.5,1.9-1.3c2.5,0.4,5.1,0.9,7.6,1.3c1.4,0.2,1.4,0.4,1.3,1.8
			c-0.6,4.4-0.6,8.9,0,13.3c0.6,4.4,1.8,8.7,4.2,12.4c0.5,0.8,1.2,1.5,2,2.1c1.8,1.4,3.6,1.5,5.4,0c1.3-1.1,2.4-2.4,3.3-3.8
			c2-3,3.1-6.4,4-9.9c1.3-5,1.5-10.1,1.2-15.2c-0.1-1.6,0.1-1.8,1.7-1.9c2.6-0.3,5.1-0.5,7.7-0.8c1.1-0.1,1.5,0.1,1.6,1.3
			c0.2,1.6,0.3,3.2,0.4,4.8c0.4,5.5,0.8,11,1.2,16.4c0.5,6.7,1.1,13.5,1.6,20.2c0.1,1.5,0.2,3,0.3,4.5c0.1,1.5-0.2,1.9-1.7,2
			c-2.5,0.2-5,0.3-7.4,0.5c-1.6,0.1-1.9-0.2-2-1.8c-0.2-3.2-0.4-6.4-0.6-9.6C275.1,164.1,275,163.6,274.9,163z"/>
	</g>
</g>
<g>
	<g class="st0">
		<path d="M76.8,139.5c0.1,8.2,0.1,16.4,0.2,24.6c0,3.5,0.1,7,0.2,10.6c0,0.4,0,0.8,0,1.1c-0.1,1-0.2,1.2-1.3,1.3
			c-2.7,0.1-5.3,0.2-8,0.2c-1.6,0-1.9-0.2-1.9-1.9c-0.1-5.3-0.2-10.7-0.2-16.1c-0.1-7.3-0.1-14.6-0.1-22c-0.1-9.9-0.2-19.8-0.3-29.7
			c0-1.5-0.1-2.9-0.1-4.4c0.1-1.5,0.3-1.7,1.8-1.7c2.6,0,5.3,0,7.9,0c1.2,0,1.4,0.2,1.4,1.4c0.1,1.6,0,3.2,0.1,4.8
			C76.5,118.4,76.6,129,76.8,139.5C76.8,139.5,76.8,139.5,76.8,139.5z"/>
	</g>
	<g>
		<linearGradient id="SVGID_7_" gradientUnits="userSpaceOnUse" x1="69.7622" y1="175.9525" x2="69.7622" y2="100.2327">
			<stop  offset="0" style="stop-color:#A6A6A6"/>
			<stop  offset="1" style="stop-color:#FFFFFF"/>
		</linearGradient>
		<path class="st7" d="M75.4,138.1c0.1,8.2,0.1,16.4,0.2,24.6c0,3.5,0.1,7,0.2,10.6c0,0.4,0,0.8,0,1.1c-0.1,1-0.2,1.2-1.3,1.3
			c-2.7,0.1-5.3,0.2-8,0.2c-1.6,0-1.9-0.2-1.9-1.9c-0.1-5.3-0.2-10.7-0.2-16.1c-0.1-7.3-0.1-14.6-0.1-22c-0.1-9.9-0.2-19.8-0.3-29.7
			c0-1.5-0.1-2.9-0.1-4.4c0.1-1.5,0.3-1.7,1.8-1.7c2.6,0,5.3,0,7.9,0c1.2,0,1.4,0.2,1.4,1.4c0.1,1.6,0,3.2,0.1,4.8
			C75.1,117,75.2,127.6,75.4,138.1C75.4,138.1,75.4,138.1,75.4,138.1z"/>
	</g>
</g>
<g>
	<g class="st0">
		<path d="M321.7,139.5c0,5.1,0,10.1,0,15.2c0,6.8,0.2,13.5,0.2,20.3c0,2.1,0,2.1-2.1,2.1c-2.3,0-4.7,0.1-7,0.1
			c-1.5,0-1.7-0.2-1.7-1.7c-0.1-5.6-0.2-11.2-0.2-16.8c-0.1-7,0-14-0.1-21c-0.1-8.8-0.2-17.7-0.3-26.5c0-2.3-0.1-4.6-0.2-6.9
			c0-2.4,0.2-2.6,2.6-2.6c2.2,0,4.4,0,6.6,0.1c1.6,0,1.7,0.1,1.7,1.7c0.1,10.6,0.2,21.2,0.4,31.8c0,1.4,0,2.7,0,4.1
			C321.5,139.5,321.6,139.5,321.7,139.5z"/>
	</g>
	<g>
		<linearGradient id="SVGID_8_" gradientUnits="userSpaceOnUse" x1="314.6167" y1="175.7641" x2="314.6167" y2="100.3348">
			<stop  offset="0" style="stop-color:#A6A6A6"/>
			<stop  offset="1" style="stop-color:#FFFFFF"/>
		</linearGradient>
		<path class="st8" d="M320.2,138c0,5.1,0,10.1,0,15.2c0,6.8,0.2,13.5,0.2,20.3c0,2.1,0,2.1-2.1,2.1c-2.3,0-4.7,0.1-7,0.1
			c-1.5,0-1.7-0.2-1.7-1.7c-0.1-5.6-0.2-11.2-0.2-16.8c-0.1-7,0-14-0.1-21c-0.1-8.8-0.2-17.7-0.3-26.5c0-2.3-0.1-4.6-0.2-6.9
			c0-2.4,0.2-2.6,2.6-2.6c2.2,0,4.4,0,6.6,0.1c1.6,0,1.7,0.1,1.7,1.7c0.1,10.6,0.2,21.2,0.4,31.8c0,1.4,0,2.7,0,4.1
			C320.1,138,320.2,138,320.2,138z"/>
	</g>
</g>
<g>
	<g class="st0">
		<path d="M83.1,153.2c0-7.2,0-14.5,0-21.7c0-2.5,0.1-2.5,2.5-2.5c2.1,0,4.2,0,6.3,0c2.1,0,2.1,0,2.3,2.1c0.1,0.6,0.1,1.1,0.1,1.7
			c0,6.2,0,12.3,0,18.5c0,8-0.1,16-0.1,23.9c0,2.3-0.1,2.3-2.3,2.3c-2.2,0-4.3,0-6.5,0c-0.3,0-0.7,0-1,0c-1.2-0.1-1.4-0.3-1.4-1.5
			c0-3.3-0.1-6.7-0.1-10c0-4.2,0-8.5,0-12.7C83,153.2,83.1,153.2,83.1,153.2z"/>
	</g>
	<g>
		<linearGradient id="SVGID_9_" gradientUnits="userSpaceOnUse" x1="87.2344" y1="176.0275" x2="87.2344" y2="127.5412">
			<stop  offset="0" style="stop-color:#A6A6A6"/>
			<stop  offset="1" style="stop-color:#FFFFFF"/>
		</linearGradient>
		<path class="st9" d="M81.7,151.8c0-7.2,0-14.5,0-21.7c0-2.5,0.1-2.5,2.5-2.5c2.1,0,4.2,0,6.3,0c2.1,0,2.1,0,2.3,2.1
			c0.1,0.6,0.1,1.1,0.1,1.7c0,6.2,0,12.3,0,18.5c0,8-0.1,16-0.1,23.9c0,2.3-0.1,2.3-2.3,2.3c-2.2,0-4.3,0-6.5,0c-0.3,0-0.7,0-1,0
			c-1.2-0.1-1.4-0.3-1.4-1.5c0-3.3-0.1-6.7-0.1-10c0-4.2,0-8.5,0-12.7C81.6,151.8,81.7,151.8,81.7,151.8z"/>
	</g>
</g>
<g>
	<g class="st0">
		<path d="M293.5,153.4c0-7.1,0-14.2,0-21.3c0-0.4,0-0.8,0-1.1c0.1-1.7,0.3-1.9,2-1.9c2.4,0,4.8,0,7.2,0c1.4,0,1.6,0.2,1.7,1.6
			c0,0.7,0.1,1.5,0.1,2.3c0,14,0,28-0.1,41.9c0,2.5,0,2.5-2.5,2.5c-2.3,0-4.5,0-6.8-0.1c-1.6-0.1-1.6-0.2-1.6-1.8
			C293.5,168.1,293.5,160.7,293.5,153.4C293.5,153.4,293.5,153.4,293.5,153.4z"/>
	</g>
	<g>
		<linearGradient id="SVGID_10_" gradientUnits="userSpaceOnUse" x1="297.5628" y1="175.9573" x2="297.5628" y2="127.6253">
			<stop  offset="0" style="stop-color:#A6A6A6"/>
			<stop  offset="1" style="stop-color:#FFFFFF"/>
		</linearGradient>
		<path class="st10" d="M292.1,151.9c0-7.1,0-14.2,0-21.3c0-0.4,0-0.8,0-1.1c0.1-1.7,0.3-1.9,2-1.9c2.4,0,4.8,0,7.2,0
			c1.4,0,1.6,0.2,1.7,1.6c0,0.7,0.1,1.5,0.1,2.3c0,14,0,28-0.1,41.9c0,2.5,0,2.5-2.5,2.5c-2.3,0-4.5,0-6.8-0.1
			c-1.6-0.1-1.6-0.2-1.6-1.8C292.1,166.7,292.1,159.3,292.1,151.9C292.1,151.9,292.1,151.9,292.1,151.9z"/>
	</g>
</g>
<path class="st11" d="M86.8,112.4c1.4,0,2.7,0,4.1,0c1.1,0,1.2,0.1,1.3,1.2c0.1,2.5,0.1,5.1,0.1,7.6c0,1.2-0.2,1.4-1.4,1.5
	c-2.8,0-5.5,0.1-8.3,0.1c-1.1,0-1.3-0.2-1.4-1.3c0-2.5,0-5.1,0-7.6c0-1.1,0.2-1.2,1.2-1.2c1.5,0,2.9,0,4.4,0
	C86.8,112.5,86.8,112.4,86.8,112.4z"/>
<path class="st11" d="M297.1,112.6c1.4,0,2.7,0,4.1,0c1,0,1.2,0.1,1.2,1.2c0.1,2.4,0.1,4.9,0.1,7.3c0,1.2-0.2,1.4-1.4,1.4
	c-2.3,0.1-4.6,0.1-6.9,0.2c-0.4,0-0.8,0-1.3,0c-1.1-0.1-1.3-0.3-1.4-1.4c0-1.6,0-3.3,0-4.9c0-0.7,0-1.5,0-2.2c0-1.3,0.1-1.5,1.4-1.5
	C294.3,112.6,295.7,112.6,297.1,112.6C297.1,112.6,297.1,112.6,297.1,112.6z"/>
<g>
	<g class="st0">
		<path d="M151,99.1c-7.1,0.1-14-0.6-20.7-3.2c-1.5-0.6-2.9-1.2-4.3-2.1c-7.8-4.6-10.5-12.2-7.4-20.7c2.3-6.3,6.5-11.3,11.2-15.9
			c3.1-3.1,6.6-5.9,10.2-8.4c0.8-0.5,1-1.1,0.9-2c-1.4-20.2,10.9-39.8,31.5-44.3c14.7-3.2,27.4,1.2,38.3,11.4
			c1.8,1.7,3.5,3.6,4.9,5.7c0.5,0.8,1,0.9,1.9,0.8c8.9-0.7,17.7-0.5,26.3,2.2c2.5,0.8,4.9,1.9,7.1,3.4c6.7,4.5,9.1,11.4,6.6,19.1
			c-2,6.2-5.9,11.3-10.5,15.8c-8.3,8.4-18,14.7-28.4,20.1c-13.7,7.1-28,12.2-43.1,15.4C167.4,98,159.3,99.1,151,99.1z M159.8,91.7
			c5.5-0.1,10.6-0.6,15.7-1.6c8.9-1.7,17.4-4.3,25.8-7.7c10.8-4.4,21.1-9.8,29.9-17.6c3.4-3.1,6.5-6.4,8.4-10.7
			c2.2-5.1,0.7-8.9-4.2-11.3c-3.5-1.7-7.2-2.3-11-2.5c-6.9-0.4-13.8,0.2-20.6,1.6c-11.3,2.2-22.1,5.9-32.4,10.8
			c-8.8,4.2-17,9.1-24,15.9c-3.1,3-5.9,6.3-7.3,10.5c-1.2,3.8-0.1,6.8,3.2,9c1,0.7,2.2,1.2,3.3,1.7C151,91.3,155.6,91.5,159.8,91.7z
			 M149.5,94.8c-3.1-0.8-6.2-1.8-8.9-3.7c-3.8-2.7-5.5-6.3-4.9-11c0.5-3.5,2.1-6.4,4.2-9.2c4.3-5.9,9.9-10.4,15.9-14.3
			c13.7-8.9,28.6-14.8,44.5-18.3c9.3-2.1,18.7-3.2,28.3-1.8c4.1,0.6,8,1.6,11.4,4.2c3.9,2.9,5.4,6.8,4.5,11.6
			c-0.6,3.2-2.2,5.9-4.1,8.5c0.5,0.2,0.7-0.1,1-0.4c3.5-3.3,6.8-6.7,9.4-10.8c1.5-2.4,2.8-4.9,3.2-7.7c1-5.8-1.1-10-6.3-13.1
			c-5.2-3-10.9-4-16.7-4.5c-10.1-0.8-20,0.4-29.8,2.5c-15.1,3.2-29.6,8.4-43.2,15.7c-9.6,5.1-18.6,11-26.2,18.7
			c-3.7,3.7-7,7.8-8.9,12.7c-2.9,7.3-0.7,13.2,6.2,16.8c2.3,1.2,4.8,2.1,7.4,2.7C140.6,94.4,145,94.9,149.5,94.8z M203.4,13.3
			c-8.2-6.8-22.1-10.3-34.8-5.6c-13.9,5.2-21.2,18-22.6,26.7C163.7,23.5,182.9,16.5,203.4,13.3z M144.9,45.2
			c20.5-12.8,42.6-20.9,66.6-24.4c-1-1.1-1.8-2-2.6-3c-0.7-0.8-1.4-0.9-2.4-0.8c-4.3,0.6-8.6,1.3-12.8,2.3
			c-15.9,3.6-30.9,9.6-44.8,18.2c-4.1,2.5-4.1,2.6-3.9,7.4C144.8,45,144.9,45.1,144.9,45.2z"/>
		<path d="M233.6,123.4c0,1.2-0.5,1.9-1.5,2.2c-1,0.3-1.8-0.1-2.3-1c-1-1.7-2-3.5-3-5.3c-4.9-8.9-9.8-17.7-14.7-26.6
			c-0.1-0.3-0.3-0.5-0.4-0.8c-0.7-1.4-0.5-2.6,0.6-3.2c1.1-0.6,2.3-0.2,3.1,1.2c1.6,2.9,3.3,5.9,4.9,8.8c4.3,7.7,8.6,15.5,12.9,23.2
			C233.3,122.5,233.6,122.9,233.6,123.4z"/>
		<path d="M198.1,134.1c0,1.2-0.6,1.9-1.7,2.1c-1,0.2-2-0.4-2.3-1.6c-0.5-2.1-1-4.2-1.4-6.3c-2-9-3.9-17.9-5.9-26.9
			c-0.1-0.3-0.1-0.6-0.2-0.9c-0.3-1.6,0.2-2.6,1.5-2.9c1.2-0.3,2.2,0.5,2.6,2.1c2.5,11.2,4.9,22.3,7.4,33.5
			C198,133.5,198,133.8,198.1,134.1z"/>
		<path d="M166.6,125.7c0.6-5.7,1.3-11.9,1.9-18.1c0.2-1.6,0.3-3.2,0.5-4.8c0.1-1,0.7-1.6,1.7-1.8c0.8-0.2,1.5,0.2,2,0.9
			c0.4,0.5,0.4,1,0.3,1.6c-0.6,5.5-1.2,11-1.7,16.5c-0.2,2.2-0.5,4.4-0.7,6.6c-0.1,1.2-0.6,2.1-1.9,2.2
			C167.3,129,166.5,128,166.6,125.7z"/>
		<path d="M228.9,80c0.9,0,1.4,0.4,1.9,0.8c5.4,5.3,10.9,10.6,16.3,15.9c1,1,1.1,2.2,0.3,3.1c-0.9,0.9-2.1,0.9-3.2-0.2
			c-5.5-5.3-10.9-10.6-16.4-15.9c-0.7-0.7-1-1.5-0.7-2.4C227.5,80.5,228.2,80.1,228.9,80z"/>
		<path d="M159.8,91.7c-4.2-0.1-8.8-0.4-13.2-2c-1.2-0.4-2.3-1-3.3-1.7c-3.3-2.2-4.4-5.2-3.2-9c1.3-4.2,4.2-7.5,7.3-10.5
			c7-6.8,15.3-11.7,24-15.9c10.4-5,21.2-8.6,32.4-10.8c6.8-1.3,13.7-2,20.6-1.6c3.8,0.2,7.5,0.8,11,2.5c4.9,2.4,6.4,6.3,4.2,11.3
			c-1.9,4.3-5,7.6-8.4,10.7c-8.8,7.8-19.1,13.2-29.9,17.6c-8.3,3.4-16.9,6-25.8,7.7C170.5,91,165.4,91.5,159.8,91.7z M175,87.8
			c3.4,0,6.7-0.4,9.9-1c10.7-2.2,20.6-6.2,29.4-12.7c3.3-2.5,6.3-5.3,8-9.2c1.7-4,0.3-7.8-3.5-9.9c-2.2-1.2-4.7-1.7-7.2-1.9
			c-4.1-0.3-8.2,0-12.2,0.8c-10.9,2.1-21,6.1-29.9,12.7c-3.3,2.4-6.2,5.2-8,9c-2,4.4-0.5,8.3,3.9,10.4
			C168.5,87.5,171.8,87.8,175,87.8z"/>
		<path d="M149.5,94.8c-4.5,0.1-8.8-0.3-13.2-1.3c-2.6-0.6-5.1-1.4-7.4-2.7c-6.9-3.7-9.1-9.5-6.2-16.8c2-4.9,5.2-9,8.9-12.7
			c7.7-7.7,16.7-13.7,26.2-18.7c13.7-7.2,28.1-12.5,43.2-15.7c9.8-2.1,19.8-3.3,29.8-2.5c5.8,0.5,11.6,1.5,16.7,4.5
			c5.3,3.1,7.3,7.3,6.3,13.1c-0.5,2.8-1.7,5.3-3.2,7.7c-2.6,4.1-5.9,7.6-9.4,10.8c-0.3,0.3-0.5,0.6-1,0.4c1.9-2.6,3.5-5.3,4.1-8.5
			c1-4.8-0.6-8.7-4.5-11.6c-3.4-2.5-7.3-3.6-11.4-4.2c-9.5-1.3-19-0.2-28.3,1.8c-15.9,3.5-30.8,9.4-44.5,18.3
			c-6,3.9-11.6,8.4-15.9,14.3c-2,2.8-3.7,5.7-4.2,9.2c-0.7,4.7,1.1,8.3,4.9,11C143.2,93,146.3,94,149.5,94.8z M178.5,40.8
			c1.4-0.4,2.9-0.8,4.3-1.7c0.9-0.6,1-1.5,0.6-2.4c-0.4-0.9-1.2-1.4-2.1-1.2c-1.4,0.4-2.7,0.9-4,1.5c-0.9,0.4-1.1,1.4-0.9,2.3
			C176.7,40.3,177.5,40.7,178.5,40.8z M146.1,58.1c1.1,0,4.4-2.4,4.7-3.3c0.3-0.8,0.1-1.5-0.5-2.1c-0.6-0.6-1.4-0.8-2.2-0.4
			c-1.2,0.7-2.4,1.5-3.4,2.5c-0.6,0.6-0.7,1.5-0.3,2.3C144.8,57.7,145.4,58.1,146.1,58.1z M166.7,44.4c0-1.1-1.4-2.2-2.7-1.6
			c-1.2,0.5-2.4,1.1-3.5,1.9c-0.9,0.6-1.2,1.5-0.6,2.5c0.5,1,1.4,1.5,2.5,1c1.2-0.5,2.4-1.2,3.5-1.8C166.5,46,166.7,45.4,166.7,44.4
			z M216.6,27.9c-0.3,0-0.6,0-0.9,0c-0.6,0.1-1.2,0.1-1.8,0.2c-1.3,0.2-2,1-1.9,2.3c0.1,1.1,1,1.9,2.2,1.9c1.1-0.1,2.2-0.1,3.3-0.3
			c0.9-0.1,1.5-0.6,1.8-1.5c0.2-0.8,0-1.5-0.6-2.1C218,27.9,217.3,27.9,216.6,27.9z M232.9,28.7c-1.7-0.1-2.6,0.6-2.8,1.7
			c-0.1,1.1,0.5,2,1.6,2.3c1.1,0.3,2.3,0.5,3.4,0.7c1.1,0.2,1.9-0.4,2.2-1.5c0.3-1.1-0.2-2.1-1.3-2.4
			C234.9,29.1,233.7,28.9,232.9,28.7z M198.8,30.5c-1.1,0.3-2.5,0.5-3.8,1c-1,0.4-1.4,1.3-1.1,2.3c0.3,1.1,1.1,1.7,2.2,1.5
			c1.2-0.2,2.4-0.5,3.6-0.9c1.1-0.3,1.6-1.2,1.4-2.3C200.9,31,200.1,30.5,198.8,30.5z M137.3,66.4c0-1.1-0.5-1.7-1.3-2
			c-0.8-0.4-1.6-0.2-2.2,0.5c-0.8,0.9-1.5,1.9-2.2,2.9c-0.7,1-0.5,2.2,0.5,2.8c0.9,0.7,2,0.5,2.8-0.5c0.7-0.9,1.4-1.8,2-2.7
			C137.2,67.1,137.4,66.7,137.3,66.4z M129.2,80.8c-1,0.1-1.6,0.5-2,1.4c-0.4,1,0.3,3.3,1.2,3.9c0.8,0.6,1.6,0.6,2.4,0
			c1.4-1,0.8-2.2,0.4-3.5C130.9,81.6,130.3,81,129.2,80.8z M247.8,37.3c-0.9,0-1.8,0.6-2,1.5c-0.3,1,0.8,3.4,1.7,3.9
			c1,0.5,1.9,0.3,2.6-0.5c0.8-0.9,0.4-1.9,0-2.9C249.5,38.2,249,37.4,247.8,37.3z"/>
		<path d="M203.4,13.3c-20.6,3.1-39.7,10.2-57.4,21.1c1.4-8.6,8.7-21.5,22.6-26.7C181.3,3,195.3,6.6,203.4,13.3z"/>
		<path d="M144.9,45.2c0-0.2,0-0.2,0-0.2c-0.2-4.8-0.2-4.9,3.9-7.4c13.9-8.6,28.9-14.6,44.8-18.2c4.2-1,8.5-1.6,12.8-2.3
			c1-0.1,1.7,0,2.4,0.8c0.8,1,1.6,1.9,2.6,3C187.5,24.3,165.4,32.4,144.9,45.2z"/>
		<path d="M175,87.8c-3.2-0.1-6.5-0.3-9.6-1.8c-4.4-2.1-5.9-6-3.9-10.4c1.7-3.8,4.7-6.6,8-9c8.9-6.6,19-10.6,29.9-12.7
			c4-0.8,8.1-1.1,12.2-0.8c2.5,0.2,4.9,0.7,7.2,1.9c3.8,2.1,5.2,5.9,3.5,9.9c-1.7,3.9-4.7,6.7-8,9.2c-8.8,6.5-18.7,10.5-29.4,12.7
			C181.7,87.5,178.4,87.8,175,87.8z M172.3,76.2c2.3,0.1,4.6-0.2,6.8-0.6c8.5-1.4,16.5-4.2,24-8.5c4-2.3,7.9-4.9,10.9-8.6
			c0.5-0.6,0.6-0.8-0.4-1c-4-0.8-7.9-0.6-11.8,0.1c-9.4,1.6-18.3,4.8-26.4,9.9c-3.2,2-6.1,4.3-8.5,7.3c-0.4,0.5-0.7,0.9,0.3,1
			C168.9,75.9,170.6,76.2,172.3,76.2z M218.2,59.8c-13.3,14.5-34.1,22.1-53.3,19.6c0.1,1.4,0.7,2.2,2.3,2.9c2.2,1,4.5,1.3,6.8,1.3
			c8.4,0.1,16.3-2,24-5.1c6.1-2.5,11.8-5.6,16.7-10.2c1.6-1.5,3.1-3.1,3.9-5.3C218.9,62,219.1,60.9,218.2,59.8z"/>
		<path d="M178.5,40.8c-1.1-0.1-1.8-0.5-2.1-1.5c-0.3-1-0.1-1.9,0.9-2.3c1.3-0.6,2.6-1.1,4-1.5c0.9-0.2,1.7,0.3,2.1,1.2
			c0.4,0.9,0.3,1.9-0.6,2.4C181.5,40,179.9,40.4,178.5,40.8z"/>
		<path d="M146.1,58.1c-0.7,0-1.3-0.3-1.7-1.1c-0.4-0.8-0.4-1.7,0.3-2.3c1-1,2.2-1.8,3.4-2.5c0.8-0.4,1.6-0.2,2.2,0.4
			c0.6,0.6,0.8,1.3,0.5,2.1C150.5,55.7,147.3,58.1,146.1,58.1z"/>
		<path d="M166.7,44.4c0,1-0.2,1.6-0.8,1.9c-1.2,0.6-2.3,1.3-3.5,1.8c-1.1,0.5-1.9-0.1-2.5-1c-0.5-1-0.2-1.9,0.6-2.5
			c1.1-0.7,2.3-1.4,3.5-1.9C165.3,42.3,166.7,43.3,166.7,44.4z"/>
		<path d="M216.6,27.9c0.7,0,1.5-0.1,2.1,0.5c0.6,0.6,0.8,1.3,0.6,2.1c-0.2,0.9-0.9,1.4-1.8,1.5c-1.1,0.1-2.2,0.2-3.3,0.3
			c-1.2,0.1-2.1-0.7-2.2-1.9c-0.1-1.2,0.6-2.1,1.9-2.3c0.6-0.1,1.2-0.1,1.8-0.2C216,27.9,216.3,27.9,216.6,27.9z"/>
		<path d="M232.9,28.7c0.8,0.2,2,0.4,3.2,0.8c1.1,0.4,1.6,1.3,1.3,2.4c-0.3,1.1-1.1,1.6-2.2,1.5c-1.1-0.2-2.3-0.4-3.4-0.7
			c-1.2-0.3-1.8-1.2-1.6-2.3C230.3,29.3,231.2,28.6,232.9,28.7z"/>
		<path d="M198.8,30.5c1.4,0,2.2,0.5,2.3,1.7c0.2,1.1-0.3,2-1.4,2.3c-1.2,0.3-2.4,0.7-3.6,0.9c-1.1,0.2-1.9-0.4-2.2-1.5
			c-0.3-1,0.1-2,1.1-2.3C196.3,31,197.7,30.7,198.8,30.5z"/>
		<path d="M137.3,66.4c0,0.3-0.1,0.7-0.4,1.1c-0.7,0.9-1.3,1.8-2,2.7c-0.8,1-1.9,1.1-2.8,0.5c-0.9-0.7-1.2-1.8-0.5-2.8
			c0.7-1,1.4-1.9,2.2-2.9c0.6-0.7,1.4-0.9,2.2-0.5C136.9,64.7,137.3,65.4,137.3,66.4z"/>
		<path d="M129.2,80.8c1.1,0.1,1.7,0.7,2,1.8c0.3,1.3,0.9,2.5-0.4,3.5c-0.8,0.6-1.6,0.5-2.4,0c-0.8-0.6-1.5-2.9-1.2-3.9
			C127.5,81.3,128.2,80.9,129.2,80.8z"/>
		<path d="M247.8,37.3c1.2,0.1,1.7,0.9,2.2,1.9c0.5,1,0.8,2,0,2.9c-0.7,0.8-1.6,1-2.6,0.5c-0.9-0.5-1.9-2.8-1.7-3.9
			C246,37.9,246.9,37.3,247.8,37.3z"/>
		<path d="M172.3,76.2c-1.7,0.1-3.4-0.2-5.1-0.5c-1-0.1-0.8-0.5-0.3-1c2.4-3,5.3-5.3,8.5-7.3c8.1-5.1,17-8.3,26.4-9.9
			c3.9-0.6,7.9-0.9,11.8-0.1c1,0.2,0.8,0.5,0.4,1c-3,3.7-6.8,6.3-10.9,8.6c-7.5,4.3-15.5,7-24,8.5C176.9,75.9,174.6,76.2,172.3,76.2
			z"/>
		<path d="M218.2,59.8c0.9,1,0.7,2.2,0.3,3.3c-0.8,2.1-2.3,3.8-3.9,5.3c-4.9,4.5-10.6,7.7-16.7,10.2c-7.7,3.1-15.6,5.3-24,5.1
			c-2.3,0-4.6-0.3-6.8-1.3c-1.5-0.7-2.2-1.6-2.3-2.9C184.1,82,204.9,74.3,218.2,59.8z"/>
	</g>
	<g>
		<g>
			<path class="st12" d="M149.6,97.6c-7.1,0.1-14-0.6-20.7-3.2c-1.5-0.6-2.9-1.2-4.3-2.1c-7.8-4.6-10.5-12.2-7.4-20.7
				c2.3-6.3,6.5-11.3,11.2-15.9c3.1-3.1,6.6-5.9,10.2-8.4c0.8-0.5,1-1.1,0.9-2C138,25.1,150.3,5.5,170.9,1
				c14.7-3.2,27.4,1.2,38.3,11.4c1.8,1.7,3.5,3.6,4.9,5.7c0.5,0.8,1,0.9,1.9,0.8c8.9-0.7,17.7-0.5,26.3,2.2c2.5,0.8,4.9,1.9,7.1,3.4
				c6.7,4.5,9.1,11.4,6.6,19.1c-2,6.2-5.9,11.3-10.5,15.8c-8.3,8.4-18,14.7-28.4,20.1c-13.7,7.1-28,12.2-43.1,15.4
				C166,96.6,157.8,97.7,149.6,97.6z M158.4,90.2c5.5-0.1,10.6-0.6,15.7-1.6c8.9-1.7,17.4-4.3,25.8-7.7c10.8-4.4,21.1-9.8,29.9-17.6
				c3.4-3.1,6.5-6.4,8.4-10.7c2.2-5.1,0.7-8.9-4.2-11.3c-3.5-1.7-7.2-2.3-11-2.5c-6.9-0.4-13.8,0.2-20.6,1.6
				c-11.3,2.2-22.1,5.9-32.4,10.8c-8.8,4.2-17,9.1-24,15.9c-3.1,3-5.9,6.3-7.3,10.5c-1.2,3.8-0.1,6.8,3.2,9c1,0.7,2.2,1.2,3.3,1.7
				C149.6,89.9,154.2,90.1,158.4,90.2z M148,93.3c-3.1-0.8-6.2-1.8-8.9-3.7c-3.8-2.7-5.5-6.3-4.9-11c0.5-3.5,2.1-6.4,4.2-9.2
				c4.3-5.9,9.9-10.4,15.9-14.3c13.7-8.9,28.6-14.8,44.5-18.3c9.3-2.1,18.7-3.2,28.3-1.8c4.1,0.6,8,1.6,11.4,4.2
				c3.9,2.9,5.4,6.8,4.5,11.6c-0.6,3.2-2.2,5.9-4.1,8.5c0.5,0.2,0.7-0.1,1-0.4c3.5-3.3,6.8-6.7,9.4-10.8c1.5-2.4,2.8-4.9,3.2-7.7
				c1-5.8-1.1-10-6.3-13.1c-5.2-3-10.9-4-16.7-4.5c-10.1-0.8-20,0.4-29.8,2.5c-15.1,3.2-29.6,8.4-43.2,15.7
				c-9.6,5.1-18.6,11-26.2,18.7c-3.7,3.7-7,7.8-8.9,12.7c-2.9,7.3-0.7,13.2,6.2,16.8c2.3,1.2,4.8,2.1,7.4,2.7
				C139.2,93,143.6,93.5,148,93.3z M202,11.9c-8.2-6.8-22.1-10.3-34.8-5.6c-13.9,5.2-21.2,18-22.6,26.7
				C162.3,22.1,181.4,15.1,202,11.9z M143.5,43.8C163.9,31,186,22.9,210,19.4c-1-1.1-1.8-2-2.6-3c-0.7-0.8-1.4-0.9-2.4-0.8
				c-4.3,0.6-8.6,1.3-12.8,2.3c-15.9,3.6-30.9,9.6-44.8,18.2c-4.1,2.5-4.1,2.6-3.9,7.4C143.4,43.6,143.4,43.7,143.5,43.8z"/>
			<linearGradient id="SVGID_11_" gradientUnits="userSpaceOnUse" x1="209.7666" y1="105.637" x2="232.1369" y2="105.637">
				<stop  offset="0.2318" style="stop-color:#E24C9B"/>
				<stop  offset="0.3116" style="stop-color:#E25394"/>
				<stop  offset="0.4724" style="stop-color:#E26185"/>
				<stop  offset="0.6999" style="stop-color:#E17467"/>
				<stop  offset="0.9829" style="stop-color:#E1892A"/>
				<stop  offset="1" style="stop-color:#E18A26"/>
			</linearGradient>
			<path class="st13" d="M232.1,122c0,1.2-0.5,1.9-1.5,2.2c-1,0.3-1.8-0.1-2.3-1c-1-1.7-2-3.5-3-5.3c-4.9-8.9-9.8-17.7-14.7-26.6
				c-0.1-0.3-0.3-0.5-0.4-0.8c-0.7-1.4-0.5-2.6,0.6-3.2c1.1-0.6,2.3-0.2,3.1,1.2c1.6,2.9,3.3,5.9,4.9,8.8
				c4.3,7.7,8.6,15.5,12.9,23.2C231.8,121,232.2,121.5,232.1,122z"/>
			<linearGradient id="SVGID_12_" gradientUnits="userSpaceOnUse" x1="184.975" y1="115.5013" x2="196.6419" y2="115.5013">
				<stop  offset="0.2318" style="stop-color:#E24C9B"/>
				<stop  offset="0.3116" style="stop-color:#E25394"/>
				<stop  offset="0.4724" style="stop-color:#E26185"/>
				<stop  offset="0.6999" style="stop-color:#E17467"/>
				<stop  offset="0.9829" style="stop-color:#E1892A"/>
				<stop  offset="1" style="stop-color:#E18A26"/>
			</linearGradient>
			<path class="st14" d="M196.6,132.7c0,1.2-0.6,1.9-1.7,2.1c-1,0.2-2-0.4-2.3-1.6c-0.5-2.1-1-4.2-1.4-6.3c-2-9-3.9-17.9-5.9-26.9
				c-0.1-0.3-0.1-0.6-0.2-0.9c-0.3-1.6,0.2-2.6,1.5-2.9c1.2-0.3,2.2,0.5,2.6,2.1c2.5,11.2,4.9,22.3,7.4,33.5
				C196.6,132.1,196.6,132.4,196.6,132.7z"/>
			<linearGradient id="SVGID_13_" gradientUnits="userSpaceOnUse" x1="165.2007" y1="113.5491" x2="171.7573" y2="113.5491">
				<stop  offset="0.2318" style="stop-color:#E24C9B"/>
				<stop  offset="0.3116" style="stop-color:#E25394"/>
				<stop  offset="0.4724" style="stop-color:#E26185"/>
				<stop  offset="0.6999" style="stop-color:#E17467"/>
				<stop  offset="0.9829" style="stop-color:#E1892A"/>
				<stop  offset="1" style="stop-color:#E18A26"/>
			</linearGradient>
			<path class="st15" d="M165.2,124.3c0.6-5.7,1.3-11.9,1.9-18.1c0.2-1.6,0.3-3.2,0.5-4.8c0.1-1,0.7-1.6,1.7-1.8
				c0.8-0.2,1.5,0.2,2,0.9c0.4,0.5,0.4,1,0.3,1.6c-0.6,5.5-1.2,11-1.7,16.5c-0.2,2.2-0.5,4.4-0.7,6.6c-0.1,1.2-0.6,2.1-1.9,2.2
				C165.9,127.6,165.1,126.6,165.2,124.3z"/>
			<linearGradient id="SVGID_14_" gradientUnits="userSpaceOnUse" x1="225.6349" y1="88.8601" x2="246.5843" y2="88.8601">
				<stop  offset="0.2318" style="stop-color:#E24C9B"/>
				<stop  offset="0.3116" style="stop-color:#E25394"/>
				<stop  offset="0.4724" style="stop-color:#E26185"/>
				<stop  offset="0.6999" style="stop-color:#E17467"/>
				<stop  offset="0.9829" style="stop-color:#E1892A"/>
				<stop  offset="1" style="stop-color:#E18A26"/>
			</linearGradient>
			<path class="st16" d="M227.5,78.6c0.9,0,1.4,0.4,1.9,0.8c5.4,5.3,10.9,10.6,16.3,15.9c1,1,1.1,2.2,0.3,3.1
				c-0.9,0.9-2.1,0.9-3.2-0.2c-5.5-5.3-10.9-10.6-16.4-15.9c-0.7-0.7-1-1.5-0.7-2.4C226.1,79.1,226.8,78.7,227.5,78.6z"/>
			<path class="st17" d="M158.4,90.2c-4.2-0.1-8.8-0.4-13.2-2c-1.2-0.4-2.3-1-3.3-1.7c-3.3-2.2-4.4-5.2-3.2-9
				c1.3-4.2,4.2-7.5,7.3-10.5c7-6.8,15.3-11.7,24-15.9c10.4-5,21.2-8.6,32.4-10.8c6.8-1.3,13.7-2,20.6-1.6c3.8,0.2,7.5,0.8,11,2.5
				c4.9,2.4,6.4,6.3,4.2,11.3c-1.9,4.3-5,7.6-8.4,10.7c-8.8,7.8-19.1,13.2-29.9,17.6c-8.3,3.4-16.9,6-25.8,7.7
				C169.1,89.6,164,90.1,158.4,90.2z M173.6,86.4c3.4,0,6.7-0.4,9.9-1c10.7-2.2,20.6-6.2,29.4-12.7c3.3-2.5,6.3-5.3,8-9.2
				c1.7-4,0.3-7.8-3.5-9.9c-2.2-1.2-4.7-1.7-7.2-1.9c-4.1-0.3-8.2,0-12.2,0.8c-10.9,2.1-21,6.1-29.9,12.7c-3.3,2.4-6.2,5.2-8,9
				c-2,4.4-0.5,8.3,3.9,10.4C167.1,86.1,170.4,86.4,173.6,86.4z"/>
			<path class="st18" d="M148,93.3c-4.5,0.1-8.8-0.3-13.2-1.3c-2.6-0.6-5.1-1.4-7.4-2.7c-6.9-3.7-9.1-9.5-6.2-16.8
				c2-4.9,5.2-9,8.9-12.7c7.7-7.7,16.7-13.7,26.2-18.7c13.7-7.2,28.1-12.5,43.2-15.7c9.8-2.1,19.8-3.3,29.8-2.5
				c5.8,0.5,11.6,1.5,16.7,4.5c5.3,3.1,7.3,7.3,6.3,13.1c-0.5,2.8-1.7,5.3-3.2,7.7c-2.6,4.1-5.9,7.6-9.4,10.8
				c-0.3,0.3-0.5,0.6-1,0.4c1.9-2.6,3.5-5.3,4.1-8.5c1-4.8-0.6-8.7-4.5-11.6c-3.4-2.5-7.3-3.6-11.4-4.2c-9.5-1.3-19-0.2-28.3,1.8
				c-15.9,3.5-30.8,9.4-44.5,18.3c-6,3.9-11.6,8.4-15.9,14.3c-2,2.8-3.7,5.7-4.2,9.2c-0.7,4.7,1.1,8.3,4.9,11
				C141.8,91.6,144.9,92.5,148,93.3z M177.1,39.4c1.4-0.4,2.9-0.8,4.3-1.7c0.9-0.6,1-1.5,0.6-2.4c-0.4-0.9-1.2-1.4-2.1-1.2
				c-1.4,0.4-2.7,0.9-4,1.5c-0.9,0.4-1.1,1.4-0.9,2.3C175.3,38.9,176,39.3,177.1,39.4z M144.7,56.7c1.1,0,4.4-2.4,4.7-3.3
				c0.3-0.8,0.1-1.5-0.5-2.1c-0.6-0.6-1.4-0.8-2.2-0.4c-1.2,0.7-2.4,1.5-3.4,2.5c-0.6,0.6-0.7,1.5-0.3,2.3
				C143.4,56.3,144,56.7,144.7,56.7z M165.3,43c0-1.1-1.4-2.2-2.7-1.6c-1.2,0.5-2.4,1.1-3.5,1.9c-0.9,0.6-1.2,1.5-0.6,2.5
				c0.5,1,1.4,1.5,2.5,1c1.2-0.5,2.4-1.2,3.5-1.8C165.1,44.6,165.3,44,165.3,43z M215.1,26.5c-0.3,0-0.6,0-0.9,0
				c-0.6,0.1-1.2,0.1-1.8,0.2c-1.3,0.2-2,1-1.9,2.3c0.1,1.1,1,1.9,2.2,1.9c1.1-0.1,2.2-0.1,3.3-0.3c0.9-0.1,1.5-0.6,1.8-1.5
				c0.2-0.8,0-1.5-0.6-2.1C216.6,26.4,215.9,26.5,215.1,26.5z M231.5,27.3c-1.7-0.1-2.6,0.6-2.8,1.7c-0.1,1.1,0.5,2,1.6,2.3
				c1.1,0.3,2.3,0.5,3.4,0.7c1.1,0.2,1.9-0.4,2.2-1.5c0.3-1.1-0.2-2.1-1.3-2.4C233.5,27.7,232.3,27.4,231.5,27.3z M197.4,29
				c-1.1,0.3-2.5,0.5-3.8,1c-1,0.4-1.4,1.3-1.1,2.3c0.3,1.1,1.1,1.7,2.2,1.5c1.2-0.2,2.4-0.5,3.6-0.9c1.1-0.3,1.6-1.2,1.4-2.3
				C199.5,29.6,198.7,29.1,197.4,29z M135.9,65c0-1.1-0.5-1.7-1.3-2c-0.8-0.4-1.6-0.2-2.2,0.5c-0.8,0.9-1.5,1.9-2.2,2.9
				c-0.7,1-0.5,2.2,0.5,2.8c0.9,0.7,2,0.5,2.8-0.5c0.7-0.9,1.4-1.8,2-2.7C135.8,65.7,136,65.3,135.9,65z M127.8,79.4
				c-1,0.1-1.6,0.5-2,1.4c-0.4,1,0.3,3.3,1.2,3.9c0.8,0.6,1.6,0.6,2.4,0c1.4-1,0.8-2.2,0.4-3.5C129.5,80.2,128.8,79.6,127.8,79.4z
				 M246.4,35.9c-0.9,0-1.8,0.6-2,1.5c-0.3,1,0.8,3.4,1.7,3.9c1,0.5,1.9,0.3,2.6-0.5c0.8-0.9,0.4-1.9,0-2.9
				C248.1,36.8,247.6,36,246.4,35.9z"/>
			<path class="st19" d="M202,11.9c-20.6,3.1-39.7,10.2-57.4,21.1c1.4-8.6,8.7-21.5,22.6-26.7C179.9,1.6,193.9,5.1,202,11.9z"/>
			<path class="st19" d="M143.5,43.8c0-0.2,0-0.2,0-0.2c-0.2-4.8-0.2-4.9,3.9-7.4c13.9-8.6,28.9-14.6,44.8-18.2
				c4.2-1,8.5-1.6,12.8-2.3c1-0.1,1.7,0,2.4,0.8c0.8,1,1.6,1.9,2.6,3C186,22.9,163.9,31,143.5,43.8z"/>
			<path class="st20" d="M173.6,86.4c-3.2-0.1-6.5-0.3-9.6-1.8c-4.4-2.1-5.9-6-3.9-10.4c1.7-3.8,4.7-6.6,8-9
				c8.9-6.6,19-10.6,29.9-12.7c4-0.8,8.1-1.1,12.2-0.8c2.5,0.2,4.9,0.7,7.2,1.9c3.8,2.1,5.2,5.9,3.5,9.9c-1.7,3.9-4.7,6.7-8,9.2
				c-8.8,6.5-18.7,10.5-29.4,12.7C180.3,86,177,86.4,173.6,86.4z M170.9,74.7c2.3,0.1,4.6-0.2,6.8-0.6c8.5-1.4,16.5-4.2,24-8.5
				c4-2.3,7.9-4.9,10.9-8.6c0.5-0.6,0.6-0.8-0.4-1c-4-0.8-7.9-0.6-11.8,0.1c-9.4,1.6-18.3,4.8-26.4,9.9c-3.2,2-6.1,4.3-8.5,7.3
				c-0.4,0.5-0.7,0.9,0.3,1C167.5,74.5,169.2,74.8,170.9,74.7z M216.8,58.4c-13.3,14.5-34.1,22.1-53.3,19.6c0.1,1.4,0.7,2.2,2.3,2.9
				c2.2,1,4.5,1.3,6.8,1.3c8.4,0.1,16.3-2,24-5.1c6.1-2.5,11.8-5.6,16.7-10.2c1.6-1.5,3.1-3.1,3.9-5.3
				C217.5,60.6,217.7,59.4,216.8,58.4z"/>
			<path class="st21" d="M177.1,39.4c-1.1-0.1-1.8-0.5-2.1-1.5c-0.3-1-0.1-1.9,0.9-2.3c1.3-0.6,2.6-1.1,4-1.5
				c0.9-0.2,1.7,0.3,2.1,1.2c0.4,0.9,0.3,1.9-0.6,2.4C180.1,38.6,178.5,38.9,177.1,39.4z"/>
			<path class="st21" d="M144.7,56.7c-0.7,0-1.3-0.3-1.7-1.1c-0.4-0.8-0.4-1.7,0.3-2.3c1-1,2.2-1.8,3.4-2.5c0.8-0.4,1.6-0.2,2.2,0.4
				c0.6,0.6,0.8,1.3,0.5,2.1C149.1,54.3,145.9,56.6,144.7,56.7z"/>
			<path class="st21" d="M165.3,43c0,1-0.2,1.6-0.8,1.9c-1.2,0.6-2.3,1.3-3.5,1.8c-1.1,0.5-1.9-0.1-2.5-1c-0.5-1-0.2-1.9,0.6-2.5
				c1.1-0.7,2.3-1.4,3.5-1.9C163.9,40.9,165.3,41.9,165.3,43z"/>
			<path class="st21" d="M215.1,26.5c0.7,0,1.5-0.1,2.1,0.5c0.6,0.6,0.8,1.3,0.6,2.1c-0.2,0.9-0.9,1.4-1.8,1.5
				c-1.1,0.1-2.2,0.2-3.3,0.3c-1.2,0.1-2.1-0.7-2.2-1.9c-0.1-1.2,0.6-2.1,1.9-2.3c0.6-0.1,1.2-0.1,1.8-0.2
				C214.5,26.5,214.8,26.5,215.1,26.5z"/>
			<path class="st21" d="M231.5,27.3c0.8,0.2,2,0.4,3.2,0.8c1.1,0.4,1.6,1.3,1.3,2.4c-0.3,1.1-1.1,1.6-2.2,1.5
				c-1.1-0.2-2.3-0.4-3.4-0.7c-1.2-0.3-1.8-1.2-1.6-2.3C228.9,27.9,229.8,27.2,231.5,27.3z"/>
			<path class="st22" d="M197.4,29c1.4,0,2.2,0.5,2.3,1.7c0.2,1.1-0.3,2-1.4,2.3c-1.2,0.3-2.4,0.7-3.6,0.9c-1.1,0.2-1.9-0.4-2.2-1.5
				c-0.3-1,0.1-2,1.1-2.3C194.9,29.5,196.3,29.3,197.4,29z"/>
			<path class="st22" d="M135.9,65c0,0.3-0.1,0.7-0.4,1.1c-0.7,0.9-1.3,1.8-2,2.7c-0.8,1-1.9,1.1-2.8,0.5c-0.9-0.7-1.2-1.8-0.5-2.8
				c0.7-1,1.4-1.9,2.2-2.9c0.6-0.7,1.4-0.9,2.2-0.5C135.4,63.3,135.9,63.9,135.9,65z"/>
			<path class="st21" d="M127.8,79.4c1.1,0.1,1.7,0.7,2,1.8c0.3,1.3,0.9,2.5-0.4,3.5c-0.8,0.6-1.6,0.5-2.4,0
				c-0.8-0.6-1.5-2.9-1.2-3.9C126.1,79.9,126.8,79.5,127.8,79.4z"/>
			<path class="st21" d="M246.4,35.9c1.2,0.1,1.7,0.9,2.2,1.9c0.5,1,0.8,2,0,2.9c-0.7,0.8-1.6,1-2.6,0.5c-0.9-0.5-1.9-2.8-1.7-3.9
				C244.6,36.5,245.4,35.9,246.4,35.9z"/>
			<linearGradient id="SVGID_15_" gradientUnits="userSpaceOnUse" x1="165.0598" y1="65.13" x2="212.9261" y2="65.13">
				<stop  offset="0.2318" style="stop-color:#E24C9B"/>
				<stop  offset="0.3116" style="stop-color:#E25394"/>
				<stop  offset="0.4724" style="stop-color:#E26185"/>
				<stop  offset="0.6999" style="stop-color:#E17467"/>
				<stop  offset="0.9829" style="stop-color:#E1892A"/>
				<stop  offset="1" style="stop-color:#E18A26"/>
			</linearGradient>
			<path class="st23" d="M170.9,74.7c-1.7,0.1-3.4-0.2-5.1-0.5c-1-0.1-0.8-0.5-0.3-1c2.4-3,5.3-5.3,8.5-7.3c8.1-5.1,17-8.3,26.4-9.9
				c3.9-0.6,7.9-0.9,11.8-0.1c1,0.2,0.8,0.5,0.4,1c-3,3.7-6.8,6.3-10.9,8.6c-7.5,4.3-15.5,7-24,8.5
				C175.5,74.5,173.2,74.8,170.9,74.7z"/>
			<path class="st18" d="M216.8,58.4c0.9,1,0.7,2.2,0.3,3.3c-0.8,2.1-2.3,3.8-3.9,5.3c-4.9,4.5-10.6,7.7-16.7,10.2
				c-7.7,3.1-15.6,5.3-24,5.1c-2.3,0-4.6-0.3-6.8-1.3c-1.5-0.7-2.2-1.6-2.3-2.9C182.7,80.5,203.4,72.9,216.8,58.4z"/>
		</g>
	</g>
</g>
</svg>
