<?xml version="1.0" encoding="utf-8"?>
<!-- Generator: Adobe Illustrator 23.1.0, SVG Export Plug-In . SVG Version: 6.00 Build 0)  -->
<svg version="1.1" id="Layer_1" xmlns="http://www.w3.org/2000/svg" xmlns:xlink="http://www.w3.org/1999/xlink" x="0px" y="0px"
	 viewBox="0 0 280.3 267.88" style="enable-background:new 0 0 280.3 267.88;" xml:space="preserve">
<style type="text/css">
	.st0{fill:#03090C;}
	.st1{fill:#C4579C;}
	.st2{fill:#1B253F;}
	.st3{fill:#5675B9;}
	.st4{fill:#79A2D6;}
	.st5{fill:#06070A;}
	.st6{fill:#000C12;}
	.st7{fill:#040A0D;}
</style>
<path class="st0" d="M66.96,193.91c-14.06,0.1-27.9-1.25-41.18-6.27c-2.97-1.12-5.81-2.48-8.55-4.1
	c-15.57-9.18-20.94-24.22-14.67-41.2c4.63-12.53,12.97-22.46,22.33-31.65C31.13,104.55,37.9,99,45.05,93.94
	c1.52-1.07,1.9-2.13,1.76-4.01c-2.87-40.11,21.61-79.01,62.55-87.9c29.21-6.34,54.43,2.41,76.01,22.56
	c3.64,3.4,6.93,7.15,9.75,11.26c1.03,1.49,2.07,1.78,3.81,1.64c17.63-1.39,35.13-0.95,52.19,4.39c5,1.56,9.73,3.74,14.11,6.66
	c13.32,8.9,18.09,22.64,13.15,37.91c-4.01,12.4-11.78,22.35-20.76,31.45c-16.43,16.65-35.81,29.17-56.46,39.84
	c-27.13,14.02-55.66,24.23-85.51,30.65C99.64,191.83,83.42,194.03,66.96,193.91z M84.58,179.23c11.01-0.23,21.15-1.27,31.19-3.16
	c17.58-3.33,34.63-8.52,51.19-15.28c21.49-8.78,41.85-19.51,59.35-35.04c6.83-6.06,13-12.73,16.72-21.23
	c4.38-10.03,1.48-17.7-8.32-22.51c-6.89-3.38-14.32-4.6-21.85-5.06c-13.76-0.84-27.41,0.46-40.9,3.13
	c-22.38,4.43-43.85,11.66-64.43,21.5c-17.38,8.3-33.81,18.08-47.71,31.62c-6.17,6.01-11.74,12.52-14.41,20.95
	c-2.38,7.5-0.24,13.47,6.29,17.82c2.07,1.38,4.3,2.43,6.63,3.29C67.07,178.48,76.21,178.97,84.58,179.23z M63.96,185.37
	c-6.24-1.6-12.35-3.49-17.64-7.29c-7.45-5.35-10.99-12.47-9.67-21.75c0.98-6.91,4.22-12.8,8.27-18.29
	c8.58-11.63,19.64-20.56,31.62-28.37c27.12-17.69,56.77-29.38,88.29-36.38c18.51-4.11,37.21-6.29,56.18-3.62
	c8.12,1.14,15.97,3.27,22.68,8.3c7.73,5.79,10.8,13.47,8.9,23.03c-1.26,6.33-4.4,11.75-8.14,16.91c0.98,0.45,1.47-0.26,2.02-0.77
	c7.03-6.47,13.56-13.37,18.66-21.51c2.97-4.74,5.48-9.73,6.43-15.29c1.95-11.5-2.16-19.94-12.61-26
	c-10.26-5.95-21.62-7.94-33.22-8.85c-20.02-1.57-39.74,0.81-59.27,4.95c-30.07,6.36-58.7,16.78-85.88,31.12
	c-19.03,10.05-36.88,21.82-52.11,37.2c-7.34,7.41-13.83,15.48-17.73,25.3c-5.77,14.5-1.42,26.12,12.38,33.43
	c4.65,2.46,9.58,4.13,14.68,5.29C46.39,184.71,55.1,185.66,63.96,185.37z M171.18,23.65c-16.2-13.45-43.95-20.49-69.14-11.08
	C74.37,22.9,59.9,48.39,57.17,65.51C92.31,43.83,130.28,29.89,171.18,23.65z M54.87,87.02c40.66-25.49,84.54-41.55,132.19-48.5
	c-1.93-2.17-3.66-3.93-5.18-5.86c-1.3-1.65-2.86-1.86-4.76-1.58c-8.54,1.28-17.06,2.6-25.49,4.52
	c-31.67,7.2-61.41,19.11-89.03,36.23c-8.16,5.05-8.13,5.09-7.82,14.72C54.78,86.63,54.81,86.72,54.87,87.02z"/>
<path class="st1" d="M230.97,242.26c-0.03,2.31-1.05,3.68-2.98,4.27c-2,0.62-3.61-0.21-4.61-1.9c-2.05-3.46-3.96-7.01-5.91-10.53
	c-9.75-17.61-19.49-35.22-29.23-52.83c-0.29-0.52-0.58-1.05-0.86-1.58c-1.43-2.7-1-5.08,1.13-6.29c2.2-1.24,4.59-0.34,6.12,2.41
	c3.25,5.83,6.47,11.69,9.7,17.54c8.51,15.36,17.02,30.72,25.53,46.07C230.4,240.39,231.03,241.33,230.97,242.26z"/>
<path class="st1" d="M160.48,263.54c-0.08,2.39-1.25,3.81-3.46,4.25c-2.06,0.42-4.02-0.88-4.59-3.18c-1.03-4.16-1.9-8.35-2.82-12.53
	c-3.91-17.81-7.82-35.62-11.73-53.44c-0.13-0.59-0.26-1.17-0.38-1.76c-0.66-3.12,0.41-5.23,2.96-5.85c2.46-0.6,4.38,0.93,5.08,4.11
	c4.88,22.15,9.75,44.3,14.61,66.45C160.31,262.28,160.39,262.96,160.48,263.54z"/>
<path class="st1" d="M98.07,246.79c1.22-11.34,2.54-23.6,3.86-35.87c0.34-3.15,0.64-6.31,1.05-9.45c0.25-1.9,1.45-3.1,3.31-3.48
	c1.67-0.34,3.03,0.36,4.04,1.69c0.71,0.94,0.81,2.03,0.68,3.18c-1.16,10.91-2.3,21.81-3.45,32.72c-0.46,4.35-0.91,8.69-1.38,13.04
	c-0.25,2.33-1.1,4.18-3.76,4.46C99.42,253.39,97.78,251.38,98.07,246.79z"/>
<path class="st1" d="M221.81,156.16c1.73,0.01,2.78,0.7,3.73,1.62c10.82,10.52,21.65,21.02,32.45,31.55
	c2.07,2.02,2.2,4.37,0.52,6.14c-1.74,1.84-4.15,1.78-6.33-0.33c-10.84-10.49-21.65-21.02-32.48-31.52
	c-1.42-1.38-2.08-2.93-1.32-4.86C219.04,157.08,220.4,156.31,221.81,156.16z"/>
<path class="st2" d="M84.58,179.23c-8.38-0.26-17.52-0.74-26.26-3.97c-2.33-0.86-4.56-1.91-6.63-3.29
	c-6.53-4.35-8.67-10.33-6.29-17.82c2.68-8.43,8.25-14.94,14.41-20.95c13.9-13.54,30.33-23.32,47.71-31.62
	c20.58-9.84,42.05-17.07,64.43-21.5c13.49-2.67,27.14-3.97,40.9-3.13c7.53,0.46,14.96,1.68,21.85,5.06
	c9.8,4.81,12.7,12.49,8.32,22.51c-3.72,8.5-9.88,15.17-16.72,21.23c-17.5,15.52-37.86,26.26-59.35,35.04
	c-16.56,6.76-33.61,11.96-51.19,15.28C105.74,177.96,95.6,179,84.58,179.23z M114.66,171.63c6.83-0.07,13.3-0.76,19.7-2.07
	c21.2-4.34,40.9-12.22,58.34-25.22c6.57-4.9,12.55-10.45,15.83-18.22c3.37-7.97,0.69-15.5-6.89-19.68
	c-4.43-2.44-9.27-3.42-14.25-3.84c-8.17-0.67-16.26-0.01-24.29,1.55c-21.59,4.19-41.64,12.09-59.4,25.24
	c-6.52,4.83-12.41,10.36-15.79,17.96c-3.88,8.76-0.9,16.54,7.76,20.7C101.78,170.99,108.33,171.52,114.66,171.63z"/>
<path class="st3" d="M63.96,185.37c-8.86,0.29-17.57-0.67-26.17-2.62c-5.1-1.16-10.03-2.82-14.68-5.29
	c-13.8-7.31-18.15-18.93-12.38-33.43c3.91-9.82,10.39-17.89,17.73-25.3c15.24-15.38,33.08-27.15,52.11-37.2
	c27.17-14.35,55.81-24.76,85.88-31.12c19.53-4.13,39.26-6.52,59.27-4.95c11.6,0.91,22.96,2.91,33.22,8.85
	c10.45,6.06,14.56,14.5,12.61,26c-0.94,5.56-3.45,10.55-6.43,15.29c-5.1,8.14-11.63,15.04-18.66,21.51
	c-0.55,0.5-1.04,1.22-2.02,0.77c3.73-5.16,6.88-10.58,8.14-16.91c1.9-9.55-1.17-17.23-8.9-23.03c-6.71-5.02-14.55-7.16-22.68-8.3
	c-18.96-2.66-37.66-0.49-56.18,3.62c-31.52,7-61.16,18.69-88.29,36.38c-11.98,7.82-23.04,16.74-31.62,28.37
	c-4.05,5.49-7.29,11.38-8.27,18.29c-1.32,9.28,2.22,16.41,9.67,21.75C51.61,181.88,57.71,183.78,63.96,185.37z M121.72,78.22
	c2.72-0.87,5.83-1.59,8.49-3.31c1.73-1.12,1.91-3.03,1.12-4.82c-0.76-1.71-2.35-2.8-4.14-2.33c-2.7,0.71-5.35,1.74-7.88,2.95
	c-1.84,0.88-2.26,2.7-1.72,4.63C118.13,77.24,119.56,78.03,121.72,78.22z M57.38,112.56c2.25-0.05,8.67-4.77,9.34-6.62
	c0.59-1.63,0.19-3.07-0.98-4.23c-1.26-1.25-2.86-1.68-4.46-0.81c-2.48,1.35-4.77,3.02-6.8,4.97c-1.27,1.22-1.39,2.91-0.55,4.52
	C54.7,111.87,55.98,112.62,57.38,112.56z M98.22,85.44c0-2.19-2.74-4.31-5.33-3.27c-2.44,0.98-4.81,2.24-7.01,3.68
	c-1.74,1.13-2.29,2.99-1.25,4.96c1.04,1.96,2.74,2.97,4.89,2.07c2.43-1.02,4.75-2.3,7.05-3.59C97.77,88.62,98.2,87.37,98.22,85.44z
	 M197.22,52.65c-0.6,0.03-1.2,0.04-1.79,0.09c-1.19,0.11-2.38,0.23-3.57,0.36c-2.59,0.3-4.05,2.01-3.83,4.47
	c0.19,2.24,2,3.81,4.4,3.7c2.22-0.1,4.43-0.28,6.63-0.53c1.77-0.2,3.04-1.21,3.48-2.95c0.4-1.57,0.07-3.03-1.22-4.19
	C200.11,52.51,198.68,52.57,197.22,52.65z M229.73,54.14c-3.35-0.15-5.17,1.22-5.48,3.42c-0.29,2.09,0.95,3.93,3.26,4.52
	c2.23,0.57,4.48,1.08,6.75,1.4c2.24,0.32,3.81-0.74,4.43-2.94c0.61-2.18-0.38-4.16-2.61-4.86
	C233.73,54.94,231.29,54.51,229.73,54.14z M161.93,57.68c-2.21,0.55-4.93,0.99-7.47,1.92c-1.95,0.72-2.78,2.58-2.23,4.64
	c0.57,2.15,2.18,3.36,4.41,3.04c2.44-0.36,4.84-1,7.21-1.69c2.22-0.65,3.1-2.35,2.73-4.56C166.19,58.76,164.63,57.76,161.93,57.68z
	 M39.9,129.06c-0.02-2.09-0.96-3.34-2.58-4.02c-1.67-0.7-3.26-0.34-4.42,1.02c-1.55,1.81-3.03,3.7-4.37,5.67
	c-1.39,2.04-0.94,4.28,0.92,5.66c1.82,1.34,4.07,1.03,5.65-0.91c1.41-1.71,2.71-3.51,4.05-5.28
	C39.68,130.49,39.97,129.7,39.9,129.06z M23.67,157.73c-1.93,0.12-3.27,1.01-3.94,2.79c-0.73,1.93,0.64,6.49,2.29,7.72
	c1.55,1.15,3.21,1.17,4.74,0.07c2.73-1.96,1.54-4.44,0.89-6.93C27.08,159.18,25.82,158.02,23.67,157.73z M259.22,71.26
	c-1.84-0.05-3.59,1.24-4.04,2.98c-0.52,1.99,1.51,6.74,3.34,7.65c1.94,0.96,3.75,0.61,5.1-1.02c1.53-1.86,0.85-3.82-0.05-5.78
	C262.66,73.12,261.67,71.4,259.22,71.26z"/>
<path class="st4" d="M171.18,23.65c-40.9,6.24-78.87,20.19-114.01,41.86c2.74-17.12,17.2-42.61,44.87-52.95
	C127.22,3.16,154.98,10.2,171.18,23.65z"/>
<path class="st4" d="M54.87,87.02c-0.06-0.3-0.09-0.39-0.09-0.47c-0.31-9.63-0.33-9.67,7.82-14.72
	c27.62-17.12,57.36-29.02,89.03-36.23c8.43-1.92,16.95-3.24,25.49-4.52c1.9-0.28,3.46-0.07,4.76,1.58c1.52,1.93,3.25,3.7,5.18,5.86
	C139.41,45.47,95.53,61.53,54.87,87.02z"/>
<path class="st5" d="M114.66,171.63c-6.33-0.11-12.88-0.64-18.98-3.57c-8.66-4.16-11.65-11.94-7.76-20.7
	c3.37-7.61,9.27-13.14,15.79-17.96c17.76-13.16,37.81-21.05,59.4-25.24c8.03-1.56,16.12-2.22,24.29-1.55
	c4.98,0.41,9.82,1.4,14.25,3.84c7.58,4.18,10.26,11.72,6.89,19.68c-3.29,7.77-9.26,13.32-15.83,18.22
	c-17.44,13-37.14,20.88-58.34,25.22C127.96,170.87,121.49,171.56,114.66,171.63z M109.36,148.42c4.55,0.11,9.08-0.41,13.53-1.16
	c16.83-2.83,32.77-8.32,47.61-16.82c8.04-4.61,15.69-9.75,21.6-17.07c0.93-1.16,1.21-1.66-0.7-2.06
	c-7.85-1.67-15.71-1.12-23.47,0.16c-18.75,3.09-36.33,9.54-52.5,19.59c-6.34,3.94-12.21,8.51-16.93,14.4
	c-0.86,1.08-1.33,1.73,0.67,2.02C102.56,147.97,105.92,148.52,109.36,148.42z M200.5,115.99c-26.51,28.83-67.77,43.97-105.86,38.91
	c0.2,2.73,1.46,4.43,4.52,5.84c4.28,1.98,8.86,2.57,13.51,2.65c16.66,0.28,32.36-3.97,47.61-10.2c12.12-4.95,23.49-11.19,33.14-20.2
	c3.2-2.99,6.15-6.24,7.67-10.47C201.89,120.3,202.22,118.06,200.5,115.99z"/>
<path class="st6" d="M121.72,78.22c-2.16-0.19-3.59-0.98-4.13-2.88c-0.54-1.93-0.12-3.76,1.72-4.63c2.53-1.2,5.18-2.24,7.88-2.95
	c1.8-0.47,3.39,0.62,4.14,2.33c0.79,1.79,0.61,3.7-1.12,4.82C127.56,76.63,124.45,77.35,121.72,78.22z"/>
<path class="st6" d="M57.38,112.56c-1.4,0.07-2.68-0.68-3.45-2.18c-0.83-1.6-0.71-3.29,0.55-4.52c2.03-1.95,4.32-3.62,6.8-4.97
	c1.6-0.87,3.21-0.44,4.46,0.81c1.17,1.16,1.56,2.6,0.98,4.23C66.05,107.79,59.63,112.5,57.38,112.56z"/>
<path class="st6" d="M98.22,85.44c-0.03,1.92-0.45,3.18-1.66,3.85c-2.3,1.29-4.62,2.57-7.05,3.59c-2.15,0.9-3.85-0.11-4.89-2.07
	c-1.04-1.97-0.49-3.82,1.25-4.96c2.21-1.44,4.57-2.7,7.01-3.68C95.49,81.14,98.23,83.25,98.22,85.44z"/>
<path class="st6" d="M197.22,52.65c1.46-0.08,2.89-0.14,4.1,0.95c1.29,1.17,1.62,2.63,1.22,4.19c-0.44,1.73-1.72,2.74-3.48,2.95
	c-2.2,0.25-4.42,0.43-6.63,0.53c-2.4,0.11-4.2-1.47-4.4-3.7c-0.21-2.46,1.24-4.16,3.83-4.47c1.19-0.14,2.38-0.26,3.57-0.36
	C196.03,52.69,196.63,52.68,197.22,52.65z"/>
<path class="st6" d="M229.73,54.14c1.56,0.37,4,0.8,6.35,1.54c2.23,0.7,3.22,2.67,2.61,4.86c-0.62,2.21-2.19,3.26-4.43,2.94
	c-2.27-0.32-4.52-0.83-6.75-1.4c-2.31-0.59-3.56-2.43-3.26-4.52C224.56,55.36,226.38,53.99,229.73,54.14z"/>
<path class="st7" d="M161.93,57.68c2.7,0.08,4.27,1.07,4.65,3.35c0.37,2.21-0.51,3.91-2.73,4.56c-2.37,0.69-4.78,1.34-7.21,1.69
	c-2.22,0.33-3.83-0.89-4.41-3.04c-0.55-2.06,0.28-3.92,2.23-4.64C157,58.67,159.72,58.23,161.93,57.68z"/>
<path class="st7" d="M39.9,129.06c0.06,0.64-0.22,1.43-0.75,2.13c-1.34,1.77-2.65,3.56-4.05,5.28c-1.59,1.94-3.83,2.26-5.65,0.91
	c-1.86-1.37-2.31-3.61-0.92-5.66c1.34-1.97,2.82-3.86,4.37-5.67c1.16-1.36,2.75-1.72,4.42-1.02
	C38.95,125.72,39.88,126.97,39.9,129.06z"/>
<path class="st6" d="M23.67,157.73c2.15,0.29,3.41,1.45,3.99,3.64c0.65,2.49,1.84,4.97-0.89,6.93c-1.53,1.1-3.19,1.08-4.74-0.07
	c-1.65-1.23-3.02-5.79-2.29-7.72C20.4,158.74,21.74,157.85,23.67,157.73z"/>
<path class="st6" d="M259.22,71.26c2.45,0.14,3.44,1.87,4.34,3.82c0.9,1.96,1.58,3.93,0.05,5.78c-1.34,1.63-3.16,1.99-5.1,1.02
	c-1.83-0.91-3.86-5.65-3.34-7.65C255.63,72.5,257.38,71.21,259.22,71.26z"/>
<path class="st1" d="M109.36,148.42c-3.44,0.1-6.8-0.45-10.19-0.95c-2-0.29-1.54-0.94-0.67-2.02c4.72-5.89,10.59-10.46,16.93-14.4
	c16.18-10.04,33.75-16.5,52.5-19.59c7.76-1.28,15.62-1.83,23.47-0.16c1.91,0.4,1.63,0.91,0.7,2.06
	c-5.91,7.33-13.55,12.46-21.6,17.07c-14.84,8.5-30.78,13.99-47.61,16.82C118.45,148.01,113.91,148.53,109.36,148.42z"/>
<path class="st3" d="M200.5,115.99c1.72,2.07,1.4,4.31,0.6,6.53c-1.53,4.23-4.47,7.48-7.67,10.47c-9.65,9.01-21.02,15.25-33.14,20.2
	c-15.25,6.23-30.95,10.49-47.61,10.2c-4.66-0.08-9.23-0.67-13.51-2.65c-3.05-1.41-4.32-3.12-4.52-5.84
	C132.73,159.96,173.98,144.82,200.5,115.99z"/>
</svg>
