<?xml version="1.0" standalone="no"?>
<!DOCTYPE svg PUBLIC "-//W3C//DTD SVG 20010904//EN"
 "http://www.w3.org/TR/2001/REC-SVG-20010904/DTD/svg10.dtd">
<svg version="1.0" xmlns="http://www.w3.org/2000/svg"
 width="1000.000000pt" height="1000.000000pt" viewBox="0 0 1000.000000 1000.000000"
 preserveAspectRatio="xMidYMid meet">
<metadata>
Created by potrace 1.11, written by Peter Selinger 2001-2013
</metadata>
<g transform="translate(0.000000,1000.000000) scale(0.100000,-0.100000)"
fill="#000000" stroke="none">
<path d="M4389 9696 c-2 -2 -44 -6 -94 -10 -112 -8 -266 -32 -370 -56 -27 -6
-57 -13 -65 -15 -92 -21 -133 -32 -245 -70 -696 -234 -1255 -718 -1604 -1386
-93 -178 -212 -479 -235 -591 -3 -12 -14 -57 -25 -98 -11 -41 -22 -88 -25
-105 -2 -16 -7 -40 -10 -52 -2 -11 -8 -43 -12 -70 -5 -26 -9 -50 -9 -53 -1 -3
-5 -36 -9 -75 -4 -38 -10 -81 -13 -95 -3 -14 -6 -145 -7 -292 l-2 -268 -99
-72 c-55 -40 -102 -75 -105 -78 -3 -3 -36 -30 -75 -59 -277 -214 -615 -542
-816 -792 -276 -344 -453 -703 -505 -1025 -10 -66 -13 -318 -4 -360 5 -21 11
-55 14 -74 9 -59 45 -160 91 -256 165 -342 511 -599 1015 -756 83 -25 224 -62
285 -74 11 -2 31 -6 45 -9 14 -3 50 -9 80 -15 30 -6 65 -12 76 -14 21 -4 162
-21 254 -31 119 -12 329 -19 570 -19 342 1 526 12 855 49 56 7 254 34 290 40
17 3 55 10 85 15 30 5 69 12 85 15 17 3 45 8 64 10 18 2 66 11 105 20 39 8 82
17 96 19 119 20 626 143 870 212 233 66 666 205 835 269 33 13 98 37 145 55
96 36 369 145 415 165 17 8 109 48 205 90 180 79 661 314 830 405 209 114 697
405 720 430 3 3 55 38 115 79 157 106 484 355 556 423 8 7 32 28 54 47 206
175 475 449 629 641 233 291 410 639 476 936 28 125 35 343 15 459 -59 347
-268 635 -610 845 -57 35 -213 113 -305 153 -40 17 -213 73 -250 81 -14 3 -68
17 -120 30 -52 14 -113 28 -135 31 -22 4 -56 10 -75 15 -19 5 -57 11 -85 15
-27 3 -57 8 -65 10 -8 2 -42 7 -75 11 -33 3 -71 8 -85 10 -14 2 -59 6 -100 9
-41 3 -104 8 -140 11 -78 7 -524 6 -630 0 -41 -3 -118 -8 -170 -11 l-95 -6
-75 102 c-120 164 -350 388 -580 565 -67 51 -306 214 -315 214 -3 0 -24 12
-47 26 -135 85 -519 250 -648 279 -8 2 -60 15 -115 28 -188 48 -362 69 -601
73 -121 2 -223 2 -225 0z"/>
<path d="M7770 4321 c-133 -42 -207 -183 -164 -313 18 -57 67 -109 446 -473
85 -82 254 -245 374 -362 388 -375 408 -393 460 -419 201 -100 416 104 329
312 -16 38 -111 136 -466 479 -86 83 -260 251 -388 375 -341 330 -368 355
-418 380 -48 24 -132 34 -173 21z"/>
<path d="M6687 3745 c-66 -17 -122 -57 -154 -112 -24 -41 -28 -59 -28 -118 1
-81 12 -107 179 -405 54 -96 110 -195 123 -220 14 -25 92 -164 173 -310 81
-146 160 -287 175 -315 53 -96 79 -142 195 -350 64 -115 132 -237 150 -270 18
-33 53 -95 77 -138 43 -76 67 -119 119 -214 129 -236 179 -283 302 -283 158 0
256 120 243 295 0 12 -62 131 -137 265 -75 135 -148 268 -163 295 -15 28 -83
149 -151 270 -67 121 -135 243 -150 270 -15 28 -69 124 -120 215 -51 91 -105
188 -120 215 -15 28 -60 109 -100 180 -40 72 -83 148 -95 170 -254 461 -270
486 -340 533 -44 29 -122 41 -178 27z"/>
<path d="M4950 3114 c-61 -26 -102 -65 -127 -121 -22 -48 -25 -64 -20 -131 3
-43 8 -86 11 -97 10 -37 35 -148 102 -450 83 -377 86 -389 124 -565 17 -80 33
-152 35 -160 2 -8 13 -55 23 -105 19 -88 56 -255 72 -325 25 -112 72 -329 76
-350 21 -107 86 -366 99 -393 20 -42 69 -93 108 -114 16 -8 53 -17 82 -20 148
-15 277 105 269 252 -2 39 -67 348 -159 755 -2 8 -22 101 -45 205 -50 227 -45
205 -64 285 -8 36 -17 76 -20 90 -5 28 -33 154 -41 185 -7 31 -76 347 -81 375
-3 14 -9 41 -14 60 -5 19 -11 46 -14 60 -3 14 -8 36 -11 50 -3 14 -12 54 -19
90 -33 156 -58 257 -76 297 -22 50 -80 108 -127 128 -45 19 -138 19 -183 -1z"/>
<path d="M3751 2868 c-89 -43 -132 -114 -146 -238 -3 -30 -7 -68 -9 -85 -2
-16 -7 -64 -11 -105 -3 -41 -8 -82 -10 -90 -2 -8 -7 -49 -10 -90 -4 -41 -9
-86 -10 -100 -2 -14 -6 -54 -10 -90 -3 -36 -8 -76 -10 -90 -2 -14 -7 -58 -10
-98 -4 -41 -8 -81 -10 -91 -2 -10 -6 -51 -10 -92 -3 -41 -8 -81 -10 -89 -2 -8
-7 -51 -11 -95 -4 -44 -8 -87 -9 -95 -1 -8 -5 -51 -10 -95 -4 -44 -9 -89 -11
-100 -2 -11 -7 -56 -10 -100 -16 -204 73 -334 227 -335 144 0 238 85 255 231
3 30 7 65 9 79 7 60 18 158 30 280 3 30 10 91 15 135 5 44 12 109 15 145 3 36
7 81 10 100 2 19 7 64 11 100 3 36 8 72 9 80 1 8 6 51 10 94 4 43 8 86 10 95
2 14 13 111 20 191 5 54 16 147 21 180 2 19 6 72 8 118 4 72 1 88 -21 132 -61
122 -204 175 -322 118z"/>
</g>
</svg>
