<?xml version="1.0" encoding="utf-8"?>
<!-- Generator: Adobe Illustrator 23.1.0, SVG Export Plug-In . SVG Version: 6.00 Build 0)  -->
<svg version="1.1" id="Layer_1" xmlns="http://www.w3.org/2000/svg" xmlns:xlink="http://www.w3.org/1999/xlink" x="0px" y="0px"
	 viewBox="0 0 586.01 500.97" style="enable-background:new 0 0 586.01 500.97;" xml:space="preserve">
<style type="text/css">
	.st0{fill:#555555;}
	.st1{fill:#FCFCFC;}
</style>
<g>
	<path class="st0" d="M293.1,0.11c95.96,0.01,191.93,0.03,287.89-0.08c3.8,0,5,0.71,5,4.83c-0.12,163.75-0.11,327.5,0.01,491.25
		c0,4.05-1.19,4.83-4.98,4.83c-191.93-0.09-383.86-0.09-575.78,0.01c-4.01,0-5.23-0.81-5.23-5.08C0.13,332.46,0.14,169.05,0,5.63
		C0,0.99,1.21-0.01,5.71,0C101.5,0.14,197.3,0.1,293.1,0.11z M286.3,375.68c4.36-0.63,8.78-0.92,13.24-1.06
		c26.92-0.85,53.63-3.52,79.98-9.4c17.25-3.85,34.26-8.45,50.94-14.23c32.07-11.13,62.41-25.82,90.93-44.24
		c2.39-1.55,5.41-3.29,3.79-6.61c-1.78-3.65-5.06-2.04-7.89-1c-0.47,0.17-0.92,0.39-1.38,0.58c-17.56,7.19-35.29,13.95-53.2,20.23
		c-42.29,14.84-85.68,24.87-130.4,27.89c-31.89,2.15-63.88,2.17-95.79-0.84c-19.06-1.8-37.96-4.56-56.69-8.61
		c-40.19-8.69-78.65-22.63-116.65-38.01c-2.15-0.87-4.34-1.7-6.58-2.28c-1.73-0.45-3.39,0.16-4.28,1.82
		c-0.9,1.68-0.42,3.41,0.95,4.54c2.04,1.69,4.25,3.19,6.5,4.6c55.75,34.84,116.28,55.88,181.65,63.2
		C256.35,373.91,271.3,374.81,286.3,375.68z M172.22,200.84c-1.02-17.68-2.14-37.29-3.31-56.88c-0.38-6.41-2.54-8.58-8.96-8.66
		c-5.49-0.07-10.98,0.32-16.47,0.43c-6.99,0.14-12.29,3.13-16.51,8.73c-27.68,36.75-51.15,76.18-73.94,116.04
		c-2.52,4.4-0.91,7.05,4.18,7.17c5.99,0.14,11.99-0.1,17.98,0.08c4.34,0.13,7.24-1.66,9.31-5.39c3.22-5.82,6.45-11.65,10.03-17.25
		c1.39-2.18,2.23-5.18,6.11-5.12c13.65,0.21,27.3,0.15,40.95,0.03c2.65-0.02,3.43,0.76,3.43,3.37c-0.01,5.65,0.27,11.31,0.5,16.96
		c0.23,5.69,1.84,7.25,7.67,7.35c4.66,0.08,9.32,0.04,13.98,0c7.19-0.06,8.11-0.94,7.79-8.1
		C174.12,240.65,173.19,221.71,172.22,200.84z M303.56,259.26c-2.7,9.32-6.22,16.46-12.67,21.87c-8.36,7.01-19.55,8.57-28.84,2.95
		c-5.64-3.41-10.52-2.91-15.99-0.6c-11.49,4.86-12.27,10.13-2.57,18.15c13.57,11.23,38.91,13.33,55.36,4.53
		c14.36-7.68,22.37-20.5,27.99-35.11c4.79-12.46,7.33-25.56,10.57-38.46c4.09-16.29,7.97-32.64,11.99-48.95
		c0.97-3.94,0.98-7.93-3.72-8.78c-4.51-0.81-9.28-0.2-13.93-0.22c-6.1-0.02-7.49,4.79-9.03,9.47c-8.22-8.88-16.53-12.19-27.42-10.97
		c-7.28,0.82-13.97,3.47-19.59,8.11c-18.3,15.1-27.66,34.85-27.88,58.37c-0.18,19,11.59,29.65,30.66,29.59
		C287.59,269.18,295.92,267.02,303.56,259.26z M384.72,269.24c34.75-0.11,60.11-25.38,61.46-58.62
		c0.93-23.07-11.62-37.39-35.79-38.53c-33.15-1.56-59.47,21.78-62.51,54.98c-1,10.9-0.05,21.35,7.49,30.09
		C363.69,266.8,374.88,269.15,384.72,269.24z M484.8,269.19c9.88-0.19,22.53-3.04,32.8-12.51c17.69-16.31,13.63-37.54-8.7-45.8
		c-2.5-0.92-5.07-1.64-7.59-2.5c-2.99-1.02-6.02-1.96-8.94-3.15c-3.75-1.54-7.07-3.88-6.12-8.49c0.92-4.47,4.88-5.58,8.85-5.92
		c6.43-0.55,11.87,1.87,16.01,6.62c3.57,4.09,7.36,4.67,11.98,2.32c2.08-1.06,4.26-1.9,6.32-2.98c5.47-2.87,6.07-5.61,2.45-10.77
		c-3.66-5.23-8.68-8.74-14.59-10.86c-15.6-5.57-30.87-3.99-45.54,3.12c-7.04,3.41-12.43,8.88-15.65,16.21
		c-5.51,12.54-1.83,22.63,10.46,28.62c4.52,2.2,9.33,3.52,14.17,4.77c3.86,0.99,7.79,1.83,11.33,3.78c2.87,1.58,5.45,3.4,5.34,7.16
		c-0.12,3.8-2.48,5.99-5.64,7.56c-8.66,4.33-19.16,2.14-26.11-5.99c-3.13-3.66-6.34-4.27-10.57-2.65
		c-14.08,5.4-15.31,12.43-3.76,22.31c1.75,1.5,3.75,2.77,5.78,3.89C464.56,268.05,472.74,269.26,484.8,269.19z M222.15,184.63
		c1.81-9.77,1.45-10.18-7.79-10.11c-3,0.02-6,0.18-8.99,0.06c-4.39-0.18-6.7,1.7-7.58,6.09c-5.43,27.09-10.99,54.15-16.53,81.22
		c-0.85,4.16,0.85,5.92,5,5.84c5-0.09,10-0.15,14.99,0.04c4.68,0.18,6.85-1.87,7.71-6.48c2.44-13.09,5.11-26.14,7.93-39.15
		c3.62-16.67,9.73-21.85,26.56-23.08c0.33-0.02,0.67-0.06,1-0.06c3.66,0.04,6.33-1.65,8.33-4.63c3.54-5.26,7.51-10.18,11.97-14.69
		c0.92-0.93,2.17-1.82,1.65-3.34c-0.59-1.73-2.17-1.84-3.72-1.83C248.66,174.6,234.54,174.26,222.15,184.63z"/>
	<path class="st1" d="M286.3,375.68c-14.99-0.87-29.94-1.77-44.86-3.44c-65.37-7.32-125.9-28.35-181.65-63.2
		c-2.25-1.41-4.46-2.91-6.5-4.6c-1.37-1.13-1.85-2.86-0.95-4.54c0.89-1.66,2.54-2.27,4.28-1.82c2.24,0.58,4.43,1.41,6.58,2.28
		c38,15.38,76.46,29.32,116.65,38.01c18.72,4.05,37.62,6.8,56.69,8.61c31.91,3.01,63.9,3,95.79,0.84
		c44.72-3.02,88.11-13.05,130.4-27.89c17.91-6.28,35.64-13.04,53.2-20.23c0.46-0.19,0.92-0.4,1.38-0.58c2.83-1.04,6.11-2.65,7.89,1
		c1.62,3.32-1.4,5.06-3.79,6.61c-28.52,18.42-58.87,33.12-90.93,44.24c-16.68,5.79-33.7,10.39-50.94,14.23
		c-26.36,5.88-53.06,8.55-79.98,9.4C295.07,374.76,290.65,375.05,286.3,375.68z"/>
	<path class="st1" d="M172.22,200.84c0.98,20.87,1.9,39.81,2.74,58.76c0.32,7.15-0.6,8.04-7.79,8.1c-4.66,0.04-9.32,0.08-13.98,0
		c-5.83-0.1-7.44-1.66-7.67-7.35c-0.23-5.65-0.51-11.31-0.5-16.96c0.01-2.61-0.78-3.4-3.43-3.37c-13.65,0.13-27.3,0.18-40.95-0.03
		c-3.88-0.06-4.72,2.94-6.11,5.12c-3.58,5.6-6.81,11.43-10.03,17.25c-2.07,3.73-4.97,5.52-9.31,5.39
		c-5.99-0.18-11.99,0.06-17.98-0.08c-5.09-0.12-6.7-2.77-4.18-7.17c22.79-39.86,46.26-79.29,73.94-116.04
		c4.22-5.6,9.52-8.59,16.51-8.73c5.49-0.11,10.98-0.49,16.47-0.43c6.42,0.08,8.57,2.25,8.96,8.66
		C170.08,163.56,171.19,183.16,172.22,200.84z M142.91,165.42c-13.12,16.09-24.31,33.17-34.47,51.72c11.67,0,22.46-0.1,33.26,0.06
		c2.86,0.04,3.31-1.13,3.21-3.56C144.19,197.57,143.56,181.49,142.91,165.42z"/>
	<path class="st1" d="M303.56,259.26c-7.64,7.76-15.97,9.93-25.08,9.96c-19.07,0.07-30.83-10.59-30.66-29.59
		c0.22-23.51,9.58-43.26,27.88-58.37c5.62-4.64,12.3-7.29,19.59-8.11c10.89-1.22,19.19,2.1,27.42,10.97
		c1.54-4.68,2.93-9.49,9.03-9.47c4.65,0.01,9.42-0.59,13.93,0.22c4.7,0.84,4.69,4.84,3.72,8.78c-4.01,16.31-7.9,32.66-11.99,48.95
		c-3.24,12.9-5.78,26-10.57,38.46c-5.61,14.61-13.63,27.43-27.99,35.11c-16.45,8.8-41.78,6.7-55.36-4.53
		c-9.7-8.02-8.92-13.3,2.57-18.15c5.47-2.31,10.35-2.81,15.99,0.6c9.29,5.62,20.48,4.05,28.84-2.95
		C297.34,275.72,300.86,268.57,303.56,259.26z M273.25,231.24c-0.14,13.84,8.37,19.73,19.97,15.26c2.51-0.97,4.9-2.26,6.65-4.29
		c9.55-11.08,13.63-24.25,13.62-38.6c0-6.34-3.8-9.53-10.21-10.17c-7.55-0.76-13.75,2.04-18.44,7.9
		C277.54,210.47,274.31,221.19,273.25,231.24z"/>
	<path class="st1" d="M384.72,269.24c-9.84-0.09-21.03-2.44-29.35-12.08c-7.54-8.74-8.49-19.18-7.49-30.09
		c3.04-33.21,29.36-56.54,62.51-54.98c24.17,1.14,36.72,15.46,35.79,38.53C444.84,243.86,419.47,269.13,384.72,269.24z
		 M374.71,233.29c-0.12,11.26,3.99,15.49,13.22,15.61c7.2,0.09,13.62-2.14,18.21-7.73c9.01-10.96,12.76-23.95,12.86-37.93
		c0.04-6.01-3.61-10.1-9.38-10.41c-8.78-0.48-17.29,0.45-23.2,8.54C379,211.51,376.15,223.15,374.71,233.29z"/>
	<path class="st1" d="M484.8,269.19c-12.06,0.07-20.23-1.14-27.73-5.27c-2.03-1.12-4.02-2.39-5.78-3.89
		c-11.55-9.89-10.32-16.91,3.76-22.31c4.23-1.62,7.44-1.01,10.57,2.65c6.95,8.12,17.45,10.31,26.11,5.99
		c3.16-1.58,5.53-3.77,5.64-7.56c0.11-3.75-2.47-5.58-5.34-7.16c-3.55-1.95-7.47-2.79-11.33-3.78c-4.84-1.25-9.66-2.56-14.17-4.77
		c-12.29-5.99-15.97-16.07-10.46-28.62c3.22-7.33,8.61-12.8,15.65-16.21c14.67-7.11,29.94-8.69,45.54-3.12
		c5.92,2.11,10.93,5.63,14.59,10.86c3.62,5.16,3.02,7.9-2.45,10.77c-2.06,1.08-4.25,1.93-6.32,2.98c-4.62,2.35-8.42,1.77-11.98-2.32
		c-4.14-4.75-9.58-7.17-16.01-6.62c-3.97,0.34-7.93,1.45-8.85,5.92c-0.95,4.62,2.37,6.95,6.12,8.49c2.92,1.2,5.94,2.14,8.94,3.15
		c2.52,0.86,5.09,1.57,7.59,2.5c22.33,8.26,26.4,29.49,8.7,45.8C507.32,266.15,494.68,269,484.8,269.19z"/>
	<path class="st1" d="M222.15,184.63c12.39-10.37,26.51-10.03,40.53-10.1c1.56-0.01,3.13,0.1,3.72,1.83
		c0.52,1.53-0.73,2.41-1.65,3.34c-4.47,4.51-8.43,9.43-11.97,14.69c-2,2.98-4.67,4.67-8.33,4.63c-0.33,0-0.67,0.03-1,0.06
		c-16.84,1.22-22.95,6.41-26.56,23.08c-2.82,13.01-5.49,26.06-7.93,39.15c-0.86,4.61-3.03,6.66-7.71,6.48
		c-4.99-0.19-9.99-0.14-14.99-0.04c-4.15,0.08-5.85-1.68-5-5.84c5.54-27.07,11.1-54.13,16.53-81.22c0.88-4.39,3.19-6.28,7.58-6.09
		c2.99,0.13,5.99-0.03,8.99-0.06C223.6,174.45,223.96,174.86,222.15,184.63z"/>
	<path class="st0" d="M142.91,165.42c0.65,16.08,1.28,32.15,1.99,48.23c0.11,2.42-0.35,3.6-3.21,3.56
		c-10.79-0.16-21.59-0.06-33.26-0.06C118.59,198.59,129.79,181.51,142.91,165.42z"/>
	<path class="st0" d="M273.25,231.24c1.05-10.05,4.28-20.77,11.59-29.9c4.69-5.86,10.89-8.66,18.44-7.9
		c6.41,0.64,10.2,3.83,10.21,10.17c0.01,14.35-4.07,27.52-13.62,38.6c-1.75,2.03-4.14,3.32-6.65,4.29
		C281.62,250.97,273.11,245.08,273.25,231.24z"/>
	<path class="st0" d="M374.71,233.29c1.44-10.15,4.29-21.78,11.72-31.93c5.92-8.09,14.42-9.02,23.2-8.54
		c5.77,0.32,9.42,4.4,9.38,10.41c-0.1,13.98-3.86,26.97-12.86,37.93c-4.59,5.59-11.01,7.82-18.21,7.73
		C378.71,248.78,374.59,244.55,374.71,233.29z"/>
</g>
</svg>
