<?xml version="1.0" encoding="utf-8"?>
<!-- Generator: Adobe Illustrator 23.1.0, SVG Export Plug-In . SVG Version: 6.00 Build 0)  -->
<svg version="1.1" id="Layer_1" xmlns="http://www.w3.org/2000/svg" xmlns:xlink="http://www.w3.org/1999/xlink" x="0px" y="0px"
	 viewBox="0 0 992.12 323.88" style="enable-background:new 0 0 992.12 323.88;" xml:space="preserve">
<style type="text/css">
	.st0{fill:none;stroke:#000000;stroke-miterlimit:10;}
	.st1{fill:#6C6C6C;}
</style>
<path class="st0" d="M441.36-116.86c0,0.35,0,0.7,0,1.05"/>
<g>
	<path class="st1" d="M572.17,53.03c-10.34,19.33-15.58,40.1-17.2,61.5c-0.89,11.74-5.29,21.37-10.39,31.49
		c-22.88,45.35-0.83,102.86,45.65,119.73c24.16,8.77,46.93,5.22,68.83-8.81c-6.3-3.44-12.27-6.29-17.82-9.8
		c-38.35-24.29-60.83-59.03-65.87-104.1c-3.77-33.68,4.18-65.02,23.29-93.32c1.83-2.72,3.85-4.02,7.24-4.19
		c40.59-2.09,76.14,10.06,105.82,37.95c24,22.55,38.35,50.38,42.35,83.15c5.31,43.54-7.05,81.66-37.01,113.65
		c-22.23,23.73-49.75,38.1-82.12,42.27c-42.69,5.51-80.32-6.15-112.49-34.78c-3.31-2.94-4.3-0.9-6.08,1.02
		c-32.6,35.24-86.76,43.72-127.83,26.14c-26.99-11.56-41.08-33.11-45.49-61.6c-1.15-7.44-1.26-14.92-1.26-22.4
		c-0.02-40.31-0.08-80.63,0.09-120.94c0.02-4.36-1.01-5.64-5.48-5.52c-12.65,0.33-25.32,0-37.98,0.19c-3.36,0.05-4.2-1.04-4.17-4.25
		c0.15-13.66,0.16-27.32-0.01-40.98c-0.04-3.35,1.08-4.26,4.3-4.23c12.83,0.15,25.66-0.07,38.48,0.14c3.72,0.06,4.88-1.03,4.83-4.79
		c-0.2-14.66,0.03-29.32-0.15-43.98c-0.04-3.63,0.84-4.9,4.7-4.85c18.49,0.2,36.99,0.19,55.48,0.01c3.64-0.03,4.4,1.25,4.36,4.59
		c-0.16,14.66,0.07,29.32-0.16,43.98c-0.06,3.94,1.04,5.09,5.01,5.05c20.32-0.19,40.65,0.13,60.97-0.23
		c5.27-0.09,6.26,1.54,6.13,6.39c-0.34,12.98-0.22,25.99-0.04,38.98c0.04,3.26-0.86,4.19-4.15,4.17
		c-20.99-0.14-41.99,0.03-62.98-0.17c-3.96-0.04-4.96,1.06-4.94,4.97c0.15,39.48-0.02,78.96,0.15,118.44
		c0.06,14.3,3.85,27.39,15.39,36.96c11.9,9.87,25.58,10.2,39.67,6.4c11.27-3.04,21.06-8.89,29.65-16.83
		c2.29-2.11,2.26-3.73,0.93-6.39c-27.67-55.28-17.03-119.95,26.85-163.12c13.94-13.71,30.12-24.01,48.51-30.76
		C568.73,53.6,570.18,52.72,572.17,53.03z M696.29,186.79c-0.1-7.28-0.24-12.42-1.26-17.5c-6.22-31.26-23.28-53.69-53.25-65.77
		c-3.74-1.51-4.87-0.41-5.66,3.09c-3.54,15.68-3.63,31.32,1.04,46.73c8.09,26.72,24.82,45.7,51.02,56.11
		c3.67,1.46,4.97,0.46,5.65-3.04C695.22,199.21,696.53,192.03,696.29,186.79z"/>
	<path class="st1" d="M86.38,278.53c7.79,0,14.92,0.15,22.03-0.07c3.32-0.1,4.69,0.64,4.6,4.32c-0.24,10.32-0.2,20.66-0.02,30.98
		c0.06,3.35-0.76,4.64-4.4,4.62c-34.82-0.13-69.64-0.1-104.46-0.03c-2.85,0.01-4.19-0.5-4.13-3.79c0.19-10.82,0.16-21.66,0.01-32.48
		c-0.04-2.89,0.9-3.7,3.7-3.62c6.33,0.18,12.67-0.12,18.99,0.13c3.18,0.12,4.52-0.92,5.59-3.97
		c14.84-42.27,29.84-84.49,44.81-126.71c11.97-33.78,23.87-67.58,35.99-101.3c1.58-4.41,0.65-5.27-3.77-5.1
		c-8.15,0.32-16.33-0.01-24.49,0.15c-2.71,0.05-3.79-0.57-3.75-3.55c0.17-10.83,0.13-21.66,0.02-32.48
		c-0.03-2.61,0.44-3.87,3.51-3.86c42.48,0.09,84.97,0.11,127.45-0.03c3.82-0.01,4.21,2.35,5.08,4.81
		c15.6,43.95,31.21,87.89,46.8,131.84c16.09,45.36,32.2,90.71,48.14,136.12c1.17,3.34,2.73,4.27,6.05,4.11
		c5.65-0.27,11.33,0.03,16.99-0.12c2.67-0.07,3.88,0.53,3.83,3.54c-0.16,10.83-0.17,21.66,0,32.48c0.05,3.23-1.27,3.85-4.14,3.85
		c-37.65-0.07-75.31-0.08-112.96,0.02c-3.26,0.01-3.82-1.24-3.79-4.1c0.13-10.66,0.18-21.32-0.03-31.98
		c-0.06-3.21,1.02-3.94,3.99-3.83c5.66,0.21,11.33-0.06,16.99,0.11c3.22,0.1,3.57-0.86,2.51-3.75c-4.39-12-8.58-24.08-12.75-36.16
		c-0.74-2.14-1.67-3.18-4.17-3.18c-38.65,0.08-77.31,0.05-115.96,0.07c-1.4,0-2.93-0.42-3.65,1.64
		C96.26,250.8,91.41,264.37,86.38,278.53z M162.65,63.82c-0.91,2.24-1.38,3.29-1.76,4.36c-12.49,35.17-24.99,70.34-37.45,105.52
		c-1.43,4.04-2.66,8.15-3.98,12.23c4.34,1.36,8.8,0.56,13.19,0.57c24.31,0.1,48.62,0.05,73.53,0.05
		C191.69,145.69,177.35,105.24,162.65,63.82z"/>
	<path class="st1" d="M744.97,294.98c9.86-15.01,19.11-30.19,27.03-46.13c1.3-2.62,2.74-1.59,4.33-0.95
		c19.8,7.9,40.18,13.82,61.25,17.13c21.39,3.36,42.7,4.47,63.49-3.5c4.85-1.86,9.34-4.34,13.46-7.49
		c12.7-9.71,14.1-26.92,3.05-38.54c-6.68-7.03-15.24-11.14-23.96-14.93c-16.78-7.3-34.6-11.63-51.71-17.97
		c-18.28-6.78-36.2-14.26-51.61-26.6c-18.13-14.51-26.92-33.62-28.31-56.58c-2.75-45.61,24.18-75.55,63.91-89.75
		c23.02-8.23,46.88-10.59,71.2-9.35c25.15,1.28,49.85,5.44,74.37,11.03c2.8,0.64,3.84,1.42,3.71,4.48
		c-1.15,26.59-2.16,53.19-3.09,79.79c-0.09,2.66-1.04,3.38-3.54,3.33c-14.32-0.26-28.64-0.47-42.96-0.51
		c-3.18-0.01-3.45-1.59-3.4-4.06c0.21-11.48,0.22-22.96,0.56-34.44c0.1-3.6-0.76-5.31-4.69-5.83c-21.95-2.91-43.77-3.55-65.1,3.63
		c-7.96,2.68-15.26,6.68-20.52,13.55c-7.66,10.01-7.22,22.08,1.13,31.49c7.24,8.15,16.64,13.15,26.28,17.73
		c18.51,8.8,38.39,13.87,57.49,21.05c12.6,4.74,24.9,10.1,36.57,16.93c26.28,15.37,38.72,38.22,38.2,68.56
		c-0.68,39.6-22.97,70.08-62.77,85.48c-28.1,10.87-57.26,12.55-86.89,10.44c-28.59-2.03-56.11-8.42-82.29-20.23
		C755.02,300.43,749.84,298.21,744.97,294.98z"/>
</g>
</svg>
