<?xml version="1.0" encoding="utf-8"?>
<!-- Generator: Adobe Illustrator 23.1.0, SVG Export Plug-In . SVG Version: 6.00 Build 0)  -->
<svg version="1.1" id="Layer_1" xmlns="http://www.w3.org/2000/svg" xmlns:xlink="http://www.w3.org/1999/xlink" x="0px" y="0px"
	 viewBox="0 0 288.7 288.7" style="enable-background:new 0 0 288.7 288.7;" xml:space="preserve">
<style type="text/css">
	.st0{fill:#535353;}
	.st1{fill:#FFFFFF;}
</style>
<path class="st0" d="M288.7,144.4c0,79.7-64.6,144.4-144.4,144.4C64.6,288.7,0,224.1,0,144.4C0,64.6,64.6,0,144.4,0
	C224.1,0,288.7,64.6,288.7,144.4"/>
<path class="st1" d="M183.9,211c-0.8,0.8-1.3,1.8-1.3,3c0,0.8,0.3,1.6,0.8,2.3c0.4,0.6,1,1,1.7,1.3c-1.2,0.4-1.8,1-1.8,1.8
	c0,0.7,0.4,1.2,1.2,1.5c-1.7,0.4-2.6,1.4-2.6,2.7c0,1,0.5,1.7,1.4,2.3s2.1,0.8,3.7,0.8s2.8-0.3,3.7-0.9c0.9-0.6,1.4-1.5,1.4-2.5
	c0-0.9-0.3-1.6-0.9-2.2c-0.6-0.5-1.6-0.9-3.3-0.9c-2-0.1-2.5-0.3-2.6-0.4c-0.2-0.1-0.3-0.3-0.3-0.6c0-0.2,0.1-0.4,0.3-0.5
	c0.1-0.1,0.5-0.3,1.6-0.6c0.9-0.2,1.7-0.5,2.2-0.7c0.6-0.3,1.1-0.7,1.5-1.2c0.4-0.6,0.6-1.3,0.6-2.3c0-0.9-0.4-1.8-1.2-2.7h2.1v-1.4
	h-4.6C186,209.9,184.7,210.3,183.9,211 M189.6,224.8c-0.6,0.4-1.5,0.6-2.6,0.6c-2.4,0-3.5-0.6-3.5-1.8s1.3-1.8,3.7-1.8
	c3.2,0,3.2,1.3,3.2,1.7C190.5,224.1,190.2,224.5,189.6,224.8 M186.8,211.3c0.8,0,1.4,0.3,1.9,0.8s0.8,1.1,0.8,1.9
	c0,0.7-0.3,1.4-0.8,1.9s-1.1,0.8-1.9,0.8c-0.7,0-1.4-0.3-1.9-0.8s-0.8-1.2-0.8-1.9s0.2-1.3,0.8-1.9
	C185.5,211.6,186.1,211.3,186.8,211.3 M201.3,211c-1-0.9-1.9-1.3-2.6-1.3c-1.2,0-2.4,0.9-3.6,2.6v-2.4h-1.6v11.4h1.6v-7
	c1.2-2,2.3-3,3.3-3c0.5,0,1.2,0.4,2,1.2l0.2,0.2l0.9-1.5L201.3,211L201.3,211z M206.7,209.7c-1.6,0-3,0.6-4.1,1.7
	c-1.1,1.1-1.7,2.5-1.7,4.2s0.6,3.1,1.7,4.2s2.5,1.7,4.1,1.7s3-0.6,4.1-1.7c1.1-1.1,1.6-2.5,1.6-4.2s-0.5-3.1-1.6-4.2
	S208.4,209.7,206.7,209.7 M206.7,219.9c-1.2,0-2.1-0.4-2.9-1.2c-0.8-0.8-1.2-1.8-1.2-3.1c0-1.2,0.4-2.3,1.2-3.1s1.8-1.2,2.9-1.2
	c1.1,0,2.1,0.4,2.9,1.2c0.8,0.8,1.2,1.9,1.2,3.1c0,1.2-0.4,2.3-1.2,3.1C208.9,219.5,207.9,219.9,206.7,219.9 M222.2,217.7
	c-0.5,0.8-1,1.4-1.5,1.7s-1.1,0.5-1.8,0.5c-0.8,0-1.5-0.3-2-0.8s-0.8-1.3-0.8-2.2V210h-1.6v7c0,1.4,0.4,2.6,1.2,3.4
	c0.8,0.8,1.8,1.2,3.1,1.2c0.9,0,1.6-0.2,2.1-0.5c0.4-0.2,0.9-0.6,1.3-1.1v1.4h1.6v-11.3h-1.6V217.7L222.2,217.7z M235.2,211.4
	c-1.1-1.1-2.4-1.7-4-1.7c-1,0-2,0.2-3,0.7v-0.5h-1.6v16.9h1.6v-6c1,0.5,2,0.7,3,0.7c1.6,0,2.9-0.6,4-1.7s1.6-2.6,1.6-4.2
	C236.7,213.9,236.2,212.5,235.2,211.4 M228.1,212c0.9-0.5,1.8-0.7,2.6-0.7c1.2,0,2.3,0.4,3.1,1.2s1.2,1.9,1.2,3.1
	c0,1.3-0.4,2.3-1.1,3.1c-0.8,0.8-1.8,1.2-3,1.2c-0.9,0-1.9-0.3-2.8-0.7V212z M80.5,148.5c-2.2,0-4,0.8-5.4,2.3s-2.1,3.5-2.1,5.9
	c0,2.5,0.7,4.5,2,6c1.4,1.5,3.1,2.3,5.3,2.3c2.1,0,3.8-0.8,5.2-2.3c1.4-1.6,2.1-3.5,2.1-5.8c0-2.5-0.7-4.5-2-6.1
	C84.3,149.3,82.6,148.5,80.5,148.5"/>
<path class="st1" d="M52,199.8h54V87.5H52V199.8z M90.3,166.6c-2.3,2.6-5.3,3.9-8.8,3.9c-3,0-5.7-1.1-8-3.4v2.7h-6v-44.9h6v22
	c2.4-2.5,5.1-3.7,8.1-3.7c3.5,0,6.4,1.3,8.7,3.9c2.3,2.6,3.5,5.8,3.5,9.7S92.6,164,90.3,166.6 M182.3,199.8h54V87.5h-54V199.8z
	 M212.5,169.7h-6v-44.9h6V169.7z M143.9,148.5c-2.3,0-4.1,0.8-5.4,2.5c-1.2,1.5-1.8,3.4-1.8,5.8c0,2.3,0.6,4.3,1.8,5.8
	c1.3,1.7,3.1,2.5,5.4,2.5c2.3,0,4.1-0.8,5.4-2.5c1.2-1.5,1.8-3.4,1.8-5.8c0-2.5-0.7-4.5-2-6S146,148.5,143.9,148.5"/>
<path class="st1" d="M117.2,199.8h54V87.4h-54V199.8z M156.9,169.1c0,1.2,0,12.3-0.1,13.2s-0.2,1.8-0.3,2.5c-0.4,1.9-1.3,3.6-2.5,5
	c-2.4,2.7-5.6,4-9.7,4c-3.4,0-6.3-0.9-8.5-2.8c-2.3-1.9-3.6-4.6-4-8h6c0.2,1.3,0.6,2.3,1.1,2.9c1.2,1.6,3.1,2.4,5.4,2.4
	c4.4,0,6.6-2.7,6.6-8v-13.6c-2.4,2.4-5.1,3.6-8.2,3.6c-3.5,0-6.4-1.3-8.7-3.8c-2.3-2.6-3.4-5.8-3.4-9.7c0-3.8,1.1-7,3.2-9.6
	c2.3-2.8,5.3-4.2,9-4.2c3.3,0,6,1.2,8.1,3.7v-2.9h6L156.9,169.1L156.9,169.1z"/>
</svg>
