<?xml version="1.0" encoding="utf-8"?>
<!-- Generator: Adobe Illustrator 23.1.0, SVG Export Plug-In . SVG Version: 6.00 Build 0)  -->
<svg version="1.1" id="Layer_1" xmlns="http://www.w3.org/2000/svg" xmlns:xlink="http://www.w3.org/1999/xlink" x="0px" y="0px"
	 viewBox="0 0 2499.15 441.9" style="enable-background:new 0 0 2499.15 441.9;" xml:space="preserve">
<style type="text/css">
	.st0{fill:#3B3B3B;}
	.st1{fill:url(#SVGID_1_);}
	.st2{fill:url(#SVGID_2_);}
	.st3{opacity:0.55;fill:url(#SVGID_3_);enable-background:new    ;}
	.st4{fill:url(#SVGID_4_);}
	.st5{fill:url(#SVGID_5_);}
	.st6{fill:url(#SVGID_6_);}
	.st7{fill:url(#SVGID_7_);}
	.st8{fill:url(#SVGID_8_);}
	.st9{fill:url(#SVGID_9_);}
	.st10{opacity:0.71;fill:url(#SVGID_10_);enable-background:new    ;}
	.st11{opacity:0.83;fill:url(#SVGID_11_);enable-background:new    ;}
	.st12{fill:url(#SVGID_12_);}
	.st13{fill:url(#SVGID_13_);}
	.st14{opacity:0.8;fill:url(#SVGID_14_);enable-background:new    ;}
	.st15{fill:url(#SVGID_15_);}
</style>
<g>
	<path class="st0" d="M977.51,287.85c-4.46-0.02-8.92-0.28-13.36-0.78v22.97h-32.5V158.76h26.5l2.53,12.86
		c10.34-9.35,22.44-15.63,35.08-15.63c30.26,0,44.9,27.23,44.9,60.76c0,49.89-26.74,71.1-63.04,71.1 M986.69,180.95
		c-6.05,0-14.37,3.54-22.44,10.59v70.61c4.29,1.76,9.58,2.52,15.13,2.52c16.37,0,27.98-13.37,27.98-43.37
		C1007.37,195.32,999.57,180.95,986.69,180.95 M550.03,291c-34.06,0-51.35-21.68-51.35-65.56c0-41.05,21.41-69.11,55.23-69.11
		c15.49,0,27.87,5.67,37.17,16.25l-11.62,17.04c-5.78-5.48-13.45-8.53-21.41-8.53c-15.23,0-25.03,13.94-25.03,41.03
		c0,31.48,8.51,43.88,23.48,43.88c10.32,0,18.84-3.37,27.35-10.84l10.08,17.02c-10.08,10.33-24.27,18.85-43.88,18.85 M654.55,291.25
		c-35.61,0-57.03-17.29-57.03-64.78c0-47.73,24-70.15,62.46-70.15c35.61,0,57.03,17.29,57.03,64.52c0,48-24,70.44-62.45,70.44
		 M656.89,180.82c-15.25,0-25.33,10.59-25.33,39.99c0,36.39,9.04,45.93,26.08,45.93c15.22,0,25.29-10.58,25.29-40
		c0-36.39-9.29-45.94-26.07-45.94 M911.33,288.41h-33.29c0-26.07,0.78-52.65,0.78-67.62c0-30.97-5.68-37.94-16.77-37.94
		c-6.71,0-15.99,4.9-24.52,11.61c0.78,4.13,1.29,10.06,1.29,19.35v74.59h-33.04v-67.6c0-30.45-5.67-37.94-16.51-37.94
		c-6.19,0-14.72,4.13-23.22,10.59v94.96h-33.33V159.13h27.36l2.34,13.67c10.32-9.55,23.49-16.51,38.19-16.51
		c15.99,0,26.57,7.99,31.48,18.57c12.39-11.09,25.8-18.57,41.31-18.57c25.29,0,38.71,16.51,38.71,58.32
		c0,15.99-0.78,45.42-0.78,73.81 M1134.03,288.41l-2.34-13.16c-11.09,9.55-22.96,15.99-39.47,15.99c-26.07,0-40-12.9-40-36.89
		c0-26.85,21.41-44.65,66.58-44.65h8v-9.8c0-13.17-7.48-19.62-24-19.62c-13.42,0-27.61,3.62-39.23,7.75l-4.39-20.13
		c15.23-6.71,32.78-11.61,52.13-11.61c33.03,0,48.26,15.74,48.26,40.25v91.87H1134.03z M1126.81,229.83h-9.81
		c-25.29,0-32.26,8.52-32.26,20.39c0,10.83,5.93,17.55,17.29,17.55c8.01,0,16.78-4.39,24.78-11.36L1126.81,229.83z M1252.48,188.54
		c-3.68-1.15-7.51-1.76-11.37-1.81c-7.23,0-13.41,4.9-25.03,19.61v82.06h-33.28V159.13h27.36l2.58,20.13
		c13.16-17.29,21.93-22.71,31.23-22.71c4.37,0,8.68,0.97,12.64,2.84L1252.48,188.54z M1289.66,230.38v1.8
		c0,23.75,10.58,33.82,28.9,33.82c11.61,0,26.84-2.34,42.09-7.48l4.68,19.08c-15.73,8.26-34.3,13.68-53.16,13.68
		c-34.08,0-56.26-16.77-56.26-64c0-46.19,22.18-70.93,58.58-70.93c33.03,0,54.98,18.57,51.62,74.05L1289.66,230.38z M1334.04,209.23
		c0-20.66-7.22-30.71-21.16-30.71c-14.19,0-21.93,13.16-22.96,31.23h44.13V209.23z M1886.52,288.41h-33.28
		c0-26.07,0.78-52.65,0.78-67.62c0-30.97-5.69-37.94-16.77-37.94c-6.73,0-16,4.9-24.53,11.61c0.78,4.13,1.29,10.06,1.29,19.35v74.59
		h-33.03v-67.6c0-30.45-5.69-37.94-16.52-37.94c-6.24,0-14.7,4.13-23.22,10.59v94.96h-33.29V159.13h27.35l2.34,13.67
		c10.33-9.55,23.49-16.51,38.19-16.51c15.99,0,26.56,7.99,31.48,18.57c12.38-11.09,25.8-18.57,41.31-18.57
		c25.28,0,38.7,16.51,38.7,58.32c0,15.99-0.78,45.42-0.78,73.81 M1984.34,288.41l-2.34-13.16c-11.11,9.55-22.97,15.99-39.49,15.99
		c-26.07,0-40.01-12.9-40.01-36.89c0-26.85,21.42-44.65,66.59-44.65h7.99v-9.8c0-13.17-7.49-19.62-23.99-19.62
		c-13.42,0-27.62,3.62-39.23,7.75l-4.39-20.13c15.23-6.71,32.78-11.61,52.13-11.61c33.03,0,48.26,15.74,48.26,40.25v91.87H1984.34z
		 M1977.11,229.83h-9.8c-25.29,0-32.26,8.52-32.26,20.39c0,10.83,5.93,17.55,17.29,17.55c8.01,0,16.78-4.39,24.77-11.36V229.83z
		 M2105.37,188.54c-3.68-1.15-7.51-1.75-11.37-1.8c-7.22,0-13.41,4.9-25.02,19.61v82.06h-33.29V159.13h27.35l2.58,20.15
		c13.17-17.29,21.93-22.71,31.23-22.71c4.37,0,8.68,0.97,12.64,2.84L2105.37,188.54z M2190.02,288.42l-34.58-64v64h-33.31V137.62
		h33.31v71.31l29.66-49.8h38.72l-38.46,53.94l43.62,75.35H2190.02z M2262.55,230.38v1.8c0,23.75,10.59,33.82,28.91,33.82
		c11.61,0,26.83-2.34,42.09-7.48l4.68,19.09c-15.75,8.25-34.3,13.67-53.17,13.67c-34.07,0-56.25-16.77-56.25-64
		c0-46.19,22.18-70.93,58.58-70.93c33.03,0,54.97,18.57,51.62,74.05L2262.55,230.38z M2306.94,209.23
		c0-20.66-7.22-30.71-21.16-30.71c-14.19,0-21.93,13.16-22.96,31.23h44.13L2306.94,209.23z M2394.94,291
		c-23.99,0-32.78-9.03-32.78-33.81v-74.8h-16.52v-23.27h17.56c3.08-7.01,5.74-14.19,7.98-21.51h24v21.51h28.65v23.26h-28.65v66.58
		c0,13.17,3.12,17.29,11.87,17.29c3.9,0,9.3-0.51,17.55-2.84l2.58,19.1c-12.13,6.24-22.45,8.52-32.26,8.52 M1426.06,290.22
		c-21.49,0-29.17-9.21-29.17-34.02v-80.04h-20.46v-14.81h20.72c2.05-11.26,3.84-10.28,5.38-23.58h14.56v23.58h34.02v14.81h-34.02
		v74.95c0,17.4,2.81,23.53,15.08,23.53c4.35,0,10.23-0.78,19.7-4.09l2.56,12.28c-10.23,4.86-19.95,7.42-28.4,7.42 M1568.54,288.17
		h-19.95c0-24.05,0.51-51.92,0.51-67.53c0-33.52-8.69-45.02-24.3-45.02c-8.44,0-19.95,5.37-31.18,15.09v97.43h-20.27V137.71h20.2
		v37.41c10.49-8.69,23.03-15.86,38.12-15.86c23.03,0,37.6,14.58,37.6,56.28c0,15.35-0.78,46.3-0.78,72.65 M1607.94,227.26v2.56
		c0,31.72,12.28,44.51,35.04,44.51c12.75-0.1,25.35-2.7,37.1-7.67l3.84,12.02c-14.13,7.43-29.84,11.38-45.8,11.51
		c-30.69,0-51.16-16.63-51.16-61.64c0-44.27,19.19-69.33,51.93-69.33c29.94,0,48.09,19.19,45.28,68.05L1607.94,227.26z
		 M1664.47,212.68c0-24.3-8.69-38.88-26.86-38.88c-18.71,0-28.39,18.16-29.67,39.91h56.53V212.68z M2450.17,162.68v31.42h-4.28
		v-31.42h-9.03v-3.41h22.39v3.41H2450.17z M2494.65,194.09c-0.21-10.78-1.03-22.34-1.96-29.41h-0.05l-9.82,29.41h-3.25l-9.91-29.41
		h-0.09c-0.66,7.74-1.18,18.63-1.33,29.41h-4.19c0.28-11.64,1.14-23.27,2.58-34.83h5.52l9.46,27.6l9.45-27.6h5.36
		c1.4,11.19,2.43,23.68,2.74,34.83H2494.65z"/>
</g>
<linearGradient id="SVGID_1_" gradientUnits="userSpaceOnUse" x1="-140.6966" y1="373.8496" x2="168.1045" y2="-101.6666" gradientTransform="matrix(0.7795 0 0 -0.7795 210.269 327.0313)">
	<stop  offset="0" style="stop-color:#D6D6D6"/>
	<stop  offset="0.03" style="stop-color:#E0E0E0"/>
	<stop  offset="0.09" style="stop-color:#EBEBEB"/>
	<stop  offset="0.15" style="stop-color:#EFEFEF"/>
	<stop  offset="0.64" style="stop-color:#EFEFEF"/>
	<stop  offset="0.73" style="stop-color:#EFEFEF"/>
	<stop  offset="0.8" style="stop-color:#EAEAEA"/>
	<stop  offset="0.88" style="stop-color:#DADADA"/>
	<stop  offset="0.98" style="stop-color:#C0C0C0"/>
	<stop  offset="1" style="stop-color:#BABABA"/>
</linearGradient>
<circle class="st1" cx="220.95" cy="220.95" r="220.95"/>
<linearGradient id="SVGID_2_" gradientUnits="userSpaceOnUse" x1="-134.8286" y1="-65.4681" x2="266.3114" y2="-124.708" gradientTransform="matrix(0.7795 0 0 -0.7795 210.269 327.0313)">
	<stop  offset="0.1" style="stop-color:#303030"/>
	<stop  offset="0.21" style="stop-color:#343434"/>
	<stop  offset="0.42" style="stop-color:#414141"/>
	<stop  offset="0.58" style="stop-color:#4C4C4C"/>
	<stop  offset="1" style="stop-color:#575757"/>
</linearGradient>
<path class="st2" d="M125.54,332.06c-0.78,26.62-6.47,52.83-16.53,79.37c60.68,35.61,134.68,40.24,199.33,12.47
	C264.86,378.2,200.86,341.35,125.54,332.06z"/>
<linearGradient id="SVGID_3_" gradientUnits="userSpaceOnUse" x1="-31.3838" y1="-348.799" x2="321.7863" y2="-348.799" gradientTransform="matrix(0.7711 0.1141 0.1141 -0.7711 183.5559 107.2045)">
	<stop  offset="0.08" style="stop-color:#212121"/>
	<stop  offset="0.32" style="stop-color:#282828;stop-opacity:0.87"/>
	<stop  offset="0.66" style="stop-color:#3B3B3B;stop-opacity:0.51"/>
	<stop  offset="1" style="stop-color:#575757;stop-opacity:0"/>
</linearGradient>
<path class="st3" d="M125.54,332.06c-0.41,13.85-2.11,27.63-5.08,41.16c55.52,3.85,108.19,26.06,149.7,63.14
	c13.07-2.98,25.84-7.16,38.16-12.47C264.87,378.22,200.86,341.35,125.54,332.06z"/>
<linearGradient id="SVGID_4_" gradientUnits="userSpaceOnUse" x1="45.1646" y1="-584.5476" x2="45.1646" y2="-375.6476" gradientTransform="matrix(0.7711 0.1141 0.1141 -0.7711 183.5559 107.2045)">
	<stop  offset="0" style="stop-color:#3F3F3F;stop-opacity:0"/>
	<stop  offset="1" style="stop-color:#282828"/>
</linearGradient>
<path class="st4" d="M124.98,420c28.87,13.93,60.44,21.38,92.49,21.83C196.92,402.99,160.67,386.47,124.98,420z"/>
<linearGradient id="SVGID_5_" gradientUnits="userSpaceOnUse" x1="5.044" y1="-50.449" x2="195.944" y2="-50.449" gradientTransform="matrix(0.7795 0 0 -0.7795 210.269 327.0313)">
	<stop  offset="0" style="stop-color:#999999"/>
	<stop  offset="0.87" style="stop-color:#EAEAEA"/>
</linearGradient>
<path class="st5" d="M270.42,310.27c-21.11-3.99-41.73,0.53-56.22,8.29l0.15,0.06c29.54,13.31,20.27,28.06,29.89,54.28
	c23.58,14.02,45.15,31.18,64.1,51.02c13.01-5.6,25.44-12.45,37.13-20.45c0-0.05,0-0.12-0.06-0.17
	C324.66,338.88,297.14,315.33,270.42,310.27L270.42,310.27z"/>
<linearGradient id="SVGID_6_" gradientUnits="userSpaceOnUse" x1="-88.1751" y1="-37.2906" x2="36.4149" y2="20.7194" gradientTransform="matrix(0.7795 0 0 -0.7795 210.269 327.0313)">
	<stop  offset="0" style="stop-color:#999999"/>
	<stop  offset="0.87" style="stop-color:#EAEAEA"/>
</linearGradient>
<path class="st6" d="M214.36,318.62l-0.15-0.06c-40.74-17.42-90.82-19.17-90.75-18.65c1.74,12.18,2.42,20.27,2.09,32.18
	c37.8,4.7,74.39,16.46,107.85,34.66c3.67,1.99,7.28,4.04,10.83,6.16C234.62,346.71,243.89,331.93,214.36,318.62z"/>
<linearGradient id="SVGID_7_" gradientUnits="userSpaceOnUse" x1="-136.9199" y1="63.0599" x2="183.5501" y2="304.5499" gradientTransform="matrix(0.7795 0 0 -0.7795 210.269 327.0313)">
	<stop  offset="0" style="stop-color:#181818"/>
	<stop  offset="0.02" style="stop-color:#1C1C1C"/>
	<stop  offset="0.46" style="stop-color:#8F8F8F"/>
	<stop  offset="0.66" style="stop-color:#BDBDBD"/>
	<stop  offset="0.8" style="stop-color:#C7C7C7"/>
	<stop  offset="1" style="stop-color:#DCDCDC"/>
</linearGradient>
<path class="st7" d="M330.68,101.39c0,0-17.83,1.93-26,2.21c-13.66,0.48-25.3,1.17-28.44,0.3c-19.79-3.45-36.64-23.57-41.58-33.56
	c0-0.08-0.08-0.14-0.12-0.21c-0.49-1.23-1.88-1.83-3.11-1.35c0,0-0.01,0-0.01,0.01c-1.94,0.56-4.99,2.39-10.4,4.68l-0.44,0.18h-0.05
	c-4.29,1.76-8.69,3.24-13.17,4.45c-20.81,5.71-42.09,6.57-71.18,21.16c-28.69,14.36-50.44,35.73-60.43,61.09
	c-19.38,49.11,2.83,84.57,29.17,107.57c9.5,8.34,16.01,19.57,18.53,31.96c-0.07-0.51,50,1.23,90.75,18.65
	c14.27-7.64,34.51-12.14,55.3-8.45c-10.91-21.15-1.15-35.08,2-40.34c3.77-6.32,5.07-7.7,10.23-12.96c-1.44-0.49-4.09-0.68-4.78-2.73
	c0,0,12.95-11.54,20.87-24.62c0.09-0.14,0.17-0.3,0.24-0.45c7.41-15.73,12.99-28.52,12.99-28.52c20.56-19.13,33.74-34.3,38.32-47.87
	C370.67,146.67,374.67,95.21,330.68,101.39L330.68,101.39z"/>
<linearGradient id="SVGID_8_" gradientUnits="userSpaceOnUse" x1="76.055" y1="177.2667" x2="-207.9851" y2="36.4067" gradientTransform="matrix(0.7795 0 0 -0.7795 210.269 327.0313)">
	<stop  offset="0" style="stop-color:#BDBDBD;stop-opacity:0"/>
	<stop  offset="0.03" style="stop-color:#B1B1B1;stop-opacity:0.07"/>
	<stop  offset="0.29" style="stop-color:#5D5D5D;stop-opacity:0.58"/>
	<stop  offset="0.55" style="stop-color:#2A2A2A;stop-opacity:0.89"/>
	<stop  offset="0.81" style="stop-color:#191919"/>
	<stop  offset="1" style="stop-color:#181818"/>
</linearGradient>
<path class="st8" d="M298.42,228.34v0.14c-7.52,12.91-20.31,24.56-21.38,25.53l-0.06,0.05c0.69,2.05,3.34,2.24,4.78,2.73
	c-5.16,5.26-6.46,6.64-10.23,12.96c-3.16,5.28-12.96,19.11-2.05,40.26l0.05,0.08h-0.05l-0.5-0.09l-0.59-0.1
	c-0.21,0-0.41-0.05-0.62-0.09l-1.31-0.19l-0.94-0.14l-1.63-0.19h-0.27l-1.18-0.14c-0.91-0.09-1.82-0.15-2.72-0.21
	c-6.66-0.42-13.35-0.09-19.94,1.01h-0.09c-1.16,0.19-2.34,0.41-3.45,0.65c-3.4,0.71-6.76,1.64-10.06,2.76
	c-1.65,0.57-3.24,1.19-4.79,1.84c-0.84,0.34-1.67,0.7-2.48,1.07c-0.78,0.35-1.56,0.72-2.34,1.09l-0.17,0.09
	c-0.75,0.36-1.48,0.74-2.2,1.12c-1-0.43-2-0.84-3-1.25l-0.51-0.2c-0.94-0.37-1.87-0.74-2.81-1.1l-0.72-0.28
	c-0.78-0.34-1.56-0.63-2.39-0.9c-0.37-0.12-0.72-0.24-1.08-0.37l-2.78-0.97c-1.11-0.37-2.21-0.73-3.32-1.09l-0.66-0.21
	c-2.17-0.69-4.33-1.34-6.49-1.95l-0.65-0.18c-0.97-0.27-1.95-0.55-2.92-0.78l-0.34-0.09c-0.95-0.26-1.91-0.5-2.85-0.74h-0.09
	c-1.13-0.29-2.25-0.56-3.38-0.83l-0.59-0.14l-2.93-0.68l-0.25-0.05c-1.11-0.25-2.21-0.49-3.31-0.72l-0.2-0.05
	c-3.21-0.68-6.35-1.29-9.4-1.82l-0.45-0.08c-0.95-0.17-1.89-0.34-2.82-0.48h-0.19l-2.59-0.42h-0.3l-2.03-0.31h-0.11l-1.84-0.27
	l-0.52-0.07l-1.44-0.2l-0.52-0.07L148.9,302h-0.06l-1.8-0.23h-0.19l-1.56-0.19l-0.27-0.04c-1.25-0.14-2.46-0.28-3.61-0.4h-0.14
	l-2.19-0.22h-0.16l-0.82-0.08l-0.42-0.05l-1.12-0.09h-0.09l-0.82-0.06h-0.32c-0.69-0.06-1.35-0.11-1.98-0.16h-0.11l-2.02-0.14
	l-0.86-0.05h-0.11l-0.72-0.05l-0.78-0.04h-5.22c-0.13-0.57-0.29-1.14-0.44-1.7c-0.22-0.82-0.45-1.62-0.7-2.42
	c-0.48-1.56-1.01-3.05-1.56-4.54c0-0.07-0.05-0.14-0.08-0.21c-0.83-2.28-1.86-4.48-3.06-6.59l-0.44-0.78l-0.41-0.72
	c-0.37-0.68-0.48-0.87-0.9-1.5c-0.67-1.09-1.36-2.16-2.08-3.2c-0.42-0.6-0.85-1.2-1.29-1.79l-0.16-0.22c-1.12-1.53-2.33-3-3.62-4.39
	c-0.68-0.78-1.37-1.48-2.09-2.2c-0.9-0.92-1.84-1.81-2.8-2.67c-1.01-0.9-2.02-1.83-3.02-2.77l-0.19-0.17
	c-0.98-0.94-1.96-1.89-2.93-2.86l-0.05-0.05v-0.05c-0.98-0.99-1.95-2-2.91-3.03v-0.04c-0.97-1.04-1.93-2.1-2.87-3.19v-0.04
	c-0.71-0.82-1.41-1.64-2.1-2.49c-10.57-12.93-18.64-28.54-20.61-46.92c-1.25-11.77,0-24.68,4.68-38.76v-0.04
	c0.3-0.87,0.58-1.73,0.9-2.6v-0.08c-7.58,72.33,38.35,85.42,84.98,80.81c-3.02,2.9-6.24,5.6-9.62,8.07
	c-0.31,0.23-0.36,0.85,0.12,0.94c12.98,2.23,25.15-3.38,36.8-8.44c-2.41,3.32-5.12,6.42-8.1,9.24c-0.2,0.2-0.2,0.52,0,0.72
	c0.1,0.1,0.22,0.15,0.36,0.15c16.9-0.19,31.44-10.86,44.43-20.62c-0.67,1.98-1.32,3.95-1.97,5.92c-0.09,0.26,0.04,0.54,0.3,0.63
	c0.1,0.04,0.21,0.04,0.32,0c11.93-3.9,21.83-11.69,29.55-21.34c6.91-9.92,20.56-12.36,30.48-5.45c0.6,0.42,1.18,0.87,1.73,1.34
	L298.42,228.34z"/>
<linearGradient id="SVGID_9_" gradientUnits="userSpaceOnUse" x1="-148.5653" y1="207.9966" x2="-55.0953" y2="193.4666" gradientTransform="matrix(0.7795 0 0 -0.7795 210.269 327.0313)">
	<stop  offset="0.07" style="stop-color:#181818"/>
	<stop  offset="0.79" style="stop-color:#3C3C3C;stop-opacity:0.4"/>
</linearGradient>
<path class="st9" d="M131.27,185.57c-3.98-5.28-6.77-12.42-5.86-19.11c-2.19,1.18-4.31,2.49-6.52,3.63
	c-0.24,0.15-0.56,0.07-0.71-0.18c-0.05-0.08-0.07-0.17-0.07-0.27c0.48-6.54,3.85-11.92,5.96-17.93c-2.91,0.47-5.78,1.11-8.61,1.93
	c-0.27,0.08-0.56-0.07-0.64-0.34c-0.05-0.15-0.02-0.31,0.07-0.44c6.87-10.48,18.62-17.36,30.34-21.4l0.28-0.63
	c0.67-1.18,0.94-2.55,0.78-3.9v-0.15c-3.3-12.93-30.29-1.95-42.96,13.1c-11.99,14.23-15.11,33.16-11.5,49.04
	c3.74,16.43,14.69,29.62,30.46,30.95c3.5,0.31,7.02,0.09,10.45-0.65l0.37-0.09c2.53-0.59,4.97-1.5,7.27-2.7
	c7.07-3.69,11.83-12.57,9.12-21.48C142.85,192.53,135.93,191.75,131.27,185.57L131.27,185.57z"/>
<linearGradient id="SVGID_10_" gradientUnits="userSpaceOnUse" x1="93.4114" y1="223.8601" x2="196.0614" y2="267.0501" gradientTransform="matrix(0.7795 0 0 -0.7795 210.269 327.0313)">
	<stop  offset="0.21" style="stop-color:#BDBDBD;stop-opacity:0.2"/>
	<stop  offset="0.49" style="stop-color:#888888;stop-opacity:0.56"/>
	<stop  offset="0.77" style="stop-color:#5E5E5E;stop-opacity:0.85"/>
	<stop  offset="0.96" style="stop-color:#4F4F4F;stop-opacity:0.96"/>
</linearGradient>
<path class="st10" d="M364.8,126.1c0-0.78-0.08-1.62-0.16-2.43c-0.08-0.81-0.19-1.5-0.32-2.24c-0.09-0.45-0.17-0.9-0.27-1.36
	c-0.44-1.96-1.11-3.87-1.98-5.68c-0.53-1.08-1.13-2.12-1.81-3.12c-0.7-1-1.47-1.95-2.31-2.84c-0.87-0.9-1.81-1.73-2.82-2.48
	c-0.7-0.51-1.42-0.99-2.17-1.42c-5.36-3.12-12.68-4.49-22.3-3.12c0,0-17.79,1.93-25.97,2.21c-11.07,0.39-20.67,0.91-25.72,0.65
	c-0.91-0.03-1.82-0.14-2.71-0.34c26.1,8.25-16.45,74.39,49.76,82.02c8.29-8.61,14.64-16.37,18.89-23.64l0.07-0.11
	c0.37-0.65,0.74-1.29,1.08-1.92v-0.04c0.31-0.58,0.61-1.15,0.9-1.73l0.16-0.32c0.29-0.59,0.57-1.18,0.83-1.76c0,0,0-0.07,0.04-0.1
	c0.23-0.53,0.46-1.06,0.66-1.56c0.06-0.14,0.12-0.28,0.17-0.42c0.21-0.56,0.42-1.12,0.61-1.68c0.23-0.06,0.45-0.14,0.67-0.22
	s0.46-0.16,0.69-0.24c0.66-0.25,1.3-0.55,1.92-0.89c0.36-0.19,0.71-0.41,1.05-0.62l0.56-0.37c0.75-0.53,1.47-1.11,2.14-1.75
	l0.08-0.07c3.22-3.23,5.57-7.22,6.83-11.6C364.41,133.41,364.9,129.76,364.8,126.1L364.8,126.1z"/>
<linearGradient id="SVGID_11_" gradientUnits="userSpaceOnUse" x1="-41.3261" y1="278.6377" x2="89.784" y2="278.6377" gradientTransform="matrix(0.7795 0 0 -0.7795 210.269 327.0313)">
	<stop  offset="0" style="stop-color:#3C3C3C;stop-opacity:0.1"/>
	<stop  offset="0.14" style="stop-color:#353535;stop-opacity:0.39"/>
	<stop  offset="0.35" style="stop-color:#2E2E2E;stop-opacity:0.73"/>
	<stop  offset="0.56" style="stop-color:#292929;stop-opacity:0.93"/>
	<stop  offset="0.78" style="stop-color:#282828"/>
</linearGradient>
<path class="st11" d="M185.6,107.15c1.74,0.01,3.48-0.11,5.21-0.38c0.27-0.08,0.56,0.07,0.64,0.34c0.05,0.15,0.02,0.31-0.07,0.44
	c-4.6,9.56-8.61,18.71-6.88,29.57c0.68,4.4,2.13,8.65,4.27,12.55c0.36,0.64,0.94,1.14,1.63,1.4c8.22-35.19,73.62-13.56,85.8-47.14
	c-19.79-3.45-36.64-23.57-41.58-33.56c0-0.08-0.08-0.14-0.12-0.21c-0.49-1.23-1.88-1.83-3.11-1.35c0,0-0.01,0-0.01,0.01
	c-1.94,0.56-4.99,2.39-10.4,4.68l-0.44,0.18h-0.05c-1.23,0.51-2.56,1.04-4.04,1.56C203.37,81.73,192.31,94.14,185.6,107.15
	L185.6,107.15z"/>
<linearGradient id="SVGID_12_" gradientUnits="userSpaceOnUse" x1="1.594" y1="270.5923" x2="57.8992" y2="270.5923" gradientTransform="matrix(0.7795 0 0 -0.7795 210.269 327.0313)">
	<stop  offset="0" style="stop-color:#3C3C3C;stop-opacity:0.1"/>
	<stop  offset="0.38" style="stop-color:#2A2A2A;stop-opacity:0.39"/>
	<stop  offset="1" style="stop-color:#181818;stop-opacity:0.7"/>
</linearGradient>
<path class="st12" d="M236.45,101.07c-12.35,1.41-17.54,25.18-24.94,30.22c13.25-4.26,30.21-5.02,43.69-9.47
	C256.92,106.01,247.19,99.86,236.45,101.07L236.45,101.07z"/>
<linearGradient id="SVGID_13_" gradientUnits="userSpaceOnUse" x1="20.554" y1="265.2257" x2="50.4399" y2="265.2257" gradientTransform="matrix(0.7795 0 0 -0.7795 210.269 327.0313)">
	<stop  offset="0" style="stop-color:#181818;stop-opacity:0.2"/>
	<stop  offset="0.53" style="stop-color:#181818;stop-opacity:0.69"/>
	<stop  offset="1" style="stop-color:#181818"/>
</linearGradient>
<path class="st13" d="M240.02,112.77c-6.38,0.38-9.81,12.05-13.73,15.06c7.74-1.4,15.79-2.53,23.19-4.38
	C250.37,115.74,245.54,112.45,240.02,112.77L240.02,112.77z"/>
<radialGradient id="SVGID_14_" cx="146.4023" cy="486.1539" r="151.23" gradientTransform="matrix(0.7639 -0.1481 -0.1091 -0.5534 284.8074 423.5548)" gradientUnits="userSpaceOnUse">
	<stop  offset="0.39" style="stop-color:#2A2A2A"/>
	<stop  offset="0.58" style="stop-color:#303030;stop-opacity:0.96"/>
	<stop  offset="0.71" style="stop-color:#424242;stop-opacity:0.83"/>
	<stop  offset="0.82" style="stop-color:#626262;stop-opacity:0.62"/>
	<stop  offset="0.92" style="stop-color:#8E8E8E;stop-opacity:0.32"/>
	<stop  offset="1" style="stop-color:#BDBDBD;stop-opacity:0"/>
</radialGradient>
<path class="st14" d="M291.65,225.36c3.77,1.65,8.17-0.01,9.9-3.75v-0.06l0.06-0.12l0.69-1.5l0.04-0.09
	c0.73-1.59,1.43-3.11,2.1-4.56c3.9-8.78,6.63-14.81,6.63-14.81c20.54-19.11,33.71-34.26,38.3-47.84
	c-44.43,28.06-85.8-0.94-110.58,17.02c-0.51,0.44-1.77,1.63-3.45,3.25c-7.31,7.09-7.5,18.76-0.41,26.08
	c1.66,1.71,3.64,3.09,5.82,4.05L291.65,225.36z"/>
<linearGradient id="SVGID_15_" gradientUnits="userSpaceOnUse" x1="156.7629" y1="257.7733" x2="200.6129" y2="282.1733" gradientTransform="matrix(0.7795 0 0 -0.7795 210.269 327.0313)">
	<stop  offset="0.14" style="stop-color:#3C3C3C;stop-opacity:0.3"/>
	<stop  offset="1" style="stop-color:#181818;stop-opacity:0.9"/>
</linearGradient>
<path class="st15" d="M331.79,101.25l-0.13,0.2c-0.69,1.28-1.2,2.64-1.5,4.06l0.06,0.05c1.19,1.08,2.6,1.9,4.12,2.4
	c1.81,0.58,2.53,1.56,3.52,3.23c0.61,1.18,1.12,2.42,1.52,3.69c0.2,0.52,0.45,1.01,0.73,1.49c10.69,3.51,25.72,5.18,24.02,17.33
	C367.41,117.62,359.28,97.94,331.79,101.25L331.79,101.25z"/>
</svg>
