<?xml version="1.0" encoding="utf-8"?>
<!-- Generator: Adobe Illustrator 25.0.1, SVG Export Plug-In . SVG Version: 6.00 Build 0)  -->
<svg version="1.1" id="Layer_1" xmlns="http://www.w3.org/2000/svg" xmlns:xlink="http://www.w3.org/1999/xlink" x="0px" y="0px"
	 viewBox="0 0 899.3 235.6" style="enable-background:new 0 0 899.3 235.6;" xml:space="preserve">
<style type="text/css">
	.st0{fill:#D9D9D9;}
</style>
<path class="st0" d="M0,235.6h899.3V163H0L0,235.6z"/>
<path d="M80.1,2.3L50.5,48.2H38.2V2.3H0v122.5h38.2V76.9h11.8l29.8,47.9h46.5L84,60.2l40-58L80.1,2.3 M236.3,28.2h28.5v-26h-28.5
	V28.2z M129.7,28.2h28.5v-26h-28.5V28.2z M210.8,75.8h-28.1l10.3-32l3.7-12.7h0.5l3.6,12.7L210.8,75.8z M269,124.8L219.3,2.3H175
	l-48.7,122.5H167l6.5-20.6h46l6.4,20.6H269 M849.5,44.3c0,11.6-4.6,14.5-15.8,14.5h-16V30.9h16.2C845.6,30.9,849.5,34,849.5,44.3
	L849.5,44.3z M889.5,42.8c0-27.3-19.1-40.6-55.1-40.6h-55.1v122.5h38.2V84.4h15.8l20.7,40.4h45.1l-31.3-47.7
	C881.6,72.2,889.5,58.6,889.5,42.8 M503,5.1c-8.8-3-21.4-5.1-33-5.1c-47.1,0-68,24.4-68,63.1c0,41.8,22.2,64,64.7,64
	c12.6,0,26.3-3,36.6-7.6l-4.1-28.1c-7.8,3.1-17.3,5.1-27.5,5.1c-23.3,0-29.4-8-29.4-33.3c0-24,5.6-32,29.1-32
	c11,0,20.1,1.6,27.8,3.7l3.7-29.9 M637.8,124.8V2.3h-38.1v45.2h-40.6V2.3h-38.2v122.5h38.2v-46h40.6v46H637.8z M699.1,94.6V76h49.9
	V49.2h-49.9V32.8h60.3l-0.7-30.5h-97.9v122.5h100.3l0.7-30.2H699.1z M351,44.3c0,11.6-4.6,14.5-15.8,14.5h-16V30.9h16.2
	C347.1,30.9,351,34,351,44.3L351,44.3z M391.1,42.8c0-27.3-19.1-40.6-55.1-40.6H281v122.5h38.2V84.4H335l20.7,40.4h45.1l-31.3-47.7
	C383.2,72.2,391,58.6,391.1,42.8"/>
</svg>
