<?xml version="1.0" encoding="utf-8"?>
<!-- Generator: Adobe Illustrator 25.0.1, SVG Export Plug-In . SVG Version: 6.00 Build 0)  -->
<svg version="1.1"
	 id="svg2" inkscape:version="0.48.1 " xmlns:cc="http://creativecommons.org/ns#" xmlns:dc="http://purl.org/dc/elements/1.1/" xmlns:inkscape="http://www.inkscape.org/namespaces/inkscape" xmlns:rdf="http://www.w3.org/1999/02/22-rdf-syntax-ns#" xmlns:sodipodi="http://sodipodi.sourceforge.net/DTD/sodipodi-0.dtd" xmlns:svg="http://www.w3.org/2000/svg"
	 xmlns="http://www.w3.org/2000/svg" xmlns:xlink="http://www.w3.org/1999/xlink" x="0px" y="0px" viewBox="0 0 393.1 505.4"
	 style="enable-background:new 0 0 393.1 505.4;" xml:space="preserve">
<style type="text/css">
	.st0{fill:#4C4C4C;}
</style>
<sodipodi:namedview  bordercolor="#666666" borderopacity="1" fit-margin-bottom="0" fit-margin-left="0" fit-margin-right="0" fit-margin-top="0" gridtolerance="10" guidetolerance="10" id="namedview40" inkscape:current-layer="svg2" inkscape:cx="196.4625" inkscape:cy="213.63882" inkscape:pageopacity="0" inkscape:pageshadow="2" inkscape:window-height="1004" inkscape:window-maximized="1" inkscape:window-width="1280" inkscape:window-x="-8" inkscape:window-y="-8" inkscape:zoom="1.3878508" objecttolerance="10" pagecolor="#ffffff" showgrid="false">
	</sodipodi:namedview>
<g id="_x23_ea0033ff" transform="translate(-5.33,-14.650002)">
	<path id="path5" inkscape:connector-curvature="0" class="st0" d="M177.7,56.6c8.2-13.9,15.8-28.2,24.4-41.9
		c21.2,37.3,42.9,74.3,64.2,111.5c1.7,1.9-0.1,4-1,5.7c-20.1,34.5-40,69.1-59.9,103.7c-0.9,1.8-2.6,3.4-2.7,5.6c1.8,1,4,0.6,6,0.7
		c41.4-0.1,82.8,0,124.3,0c21.8,37.9,43.9,75.6,65.5,113.6c-43.6,0-87.3,0-130.9,0c-20.7-36.5-42-72.6-62.7-109
		c-0.9-1.4-1.6-3.2-3.2-4c-8.2,13.4-15.7,27.2-23.7,40.8c-13.8,24.1-27.9,48-41.6,72.2c-43.6,0-87.3,0-130.9,0
		c21.7-37.9,43.6-75.8,65.5-113.6c43.7,0.1,87.4-0.1,131.1,0.1c-21.1-36.8-42.3-73.6-63.6-110.3c-0.7-1.5-2.4-3.3-1-5
		C150.6,103.2,164.3,80,177.7,56.6L177.7,56.6z"/>
</g>
<g id="_x23_000000ff" transform="translate(-5.33,-14.650002)">
	<path id="path8" inkscape:connector-curvature="0" class="st0" d="M28.3,388.2c4.2,0,8.4,0,12.6,0c2.9,8.6,6.4,16.9,9,25.5
		c2.9-8.6,6.4-17,9.5-25.6c4.1,0,8.1,0,12.2,0c0,18.1,0,36.3,0,54.4c-3-0.2-7.1,1.7-9.4-0.7c-0.2-13.1-0.7-26.3,0.4-39.4
		c-4.8,10.1-8.4,20.7-12.8,31c-4-10.3-8.4-20.4-12-30.8c-0.1,13.5,0,26.9-0.1,40.4c-3-0.4-6.7,0.9-9.3-1.1
		C28.1,424,28.4,406,28.3,388.2L28.3,388.2z"/>
	<path id="path10" inkscape:connector-curvature="0" class="st0" d="M96.6,388.1c10.8,0,21.7,0,32.5,0c0,2.7,0,5.4,0,8.1
		c-3.7,0-7.5,0-11.2,0c-0.1,15.6,0,31.1-0.1,46.7c-3.3,0-6.6,0-10,0c-0.2-15.5,0-30.9-0.1-46.4c-3.7,0-7.4,0-11.1,0
		C96.7,393.7,96.6,390.9,96.6,388.1L96.6,388.1z"/>
	<path id="path12" inkscape:connector-curvature="0" class="st0" d="M132.9,395.6c4.9-9.8,20.2-11.7,27.2-3.2
		c3.2,3.2,3.9,7.9,4.5,12.1c-3.2,0-6.4,0-9.5,0c-0.6-2.1-0.7-4.4-2-6.2c-1.7-1.3-3.7-2-5.7-2.9c-2.8,1.6-6.8,3.2-6.6,7.2
		c1.2,4.4,5.9,6.2,9.5,8.3c6.1,3.1,13.2,7,14.8,14.3c1.8,7.8-4.1,15.8-11.6,17.8c-6.4,1.2-13.8,0.9-18.7-4
		c-4.1-3.6-4.7-9.2-5.5-14.3c3.2,0,6.4,0,9.6,0c1.1,3.1,1.4,7.4,5,8.8c3.2,1.8,6.9,0.3,10.2-0.6c0.7-3,2.1-6.4-0.3-9
		c-5-5.5-13.2-6.5-18.3-11.9C131.1,407.9,130.4,400.9,132.9,395.6z"/>
	<path id="path14" inkscape:connector-curvature="0" class="st0" d="M171,388.1c3.2,0,6.4,0,9.7,0c0.1,13.2-0.2,26.4,0.1,39.6
		c0.3,6.5,9.5,8.8,13.7,4.6c2.5-2,2.3-5.5,2.4-8.4c0-11.9,0-23.8,0-35.8c3.2,0,6.5,0,9.7,0c0,12.3,0,24.6,0,36.9
		c0,3.4-0.1,6.9-1.8,10c-6.1,11.7-26,11.4-31.9-0.4c-1.9-3.7-1.8-7.9-1.9-11.9C171,411.2,170.9,399.6,171,388.1L171,388.1z"/>
	<path id="path16" inkscape:connector-curvature="0" class="st0" d="M215.7,388.1c7.7,0.1,15.4-0.3,23.1,0.2
		c8.2,1,14.1,10.2,11.2,18.1c-1.1,3.8-4.8,5.8-8.1,7.3c5.7,2,10.5,7.4,10.2,13.8c0.4,4.6-1.7,9.3-5.3,12.1
		c-3.3,2.7-7.7,2.9-11.8,3.2c-6.4,0.2-12.9,0.1-19.3,0.1C215.6,424.6,215.7,406.4,215.7,388.1 M225.8,396.6c0,12.6,0,25.2,0,37.8
		c3.8-0.1,7.7,0.4,11.4-0.6c5.6-1.4,6.8-10,2.3-13.3c-2.9-2.4-6.8-2.2-10.3-2.6c0-2.6,0-5.3,0-7.9c2.3-0.3,4.7-0.3,6.9-1.1
		c3.7-1.1,5.4-6.1,3.2-9.2C236.5,394.9,230.3,397.1,225.8,396.6L225.8,396.6z"/>
	<path id="path18" inkscape:connector-curvature="0" class="st0" d="M258.1,388.1c3.4,0,6.9,0,10.3,0c-0.1,18.3,0.1,36.6-0.1,54.8
		c-3.4,0-6.8,0-10.2,0C258.1,424.6,258.1,406.4,258.1,388.1L258.1,388.1z"/>
	<path id="path20" inkscape:connector-curvature="0" class="st0" d="M279,394.3c5.4-7.8,17.8-9.8,24.9-3.3c4.1,3.3,5.4,8.6,5.8,13.6
		c-3,0-6.1,0.1-9.1,0.1c-1-3.2-1.7-7.8-5.9-8.1c-4.6-1.4-10.2,3-7.9,7.9c5.9,7.2,17,8.3,21.9,16.8c4.7,7.8-0.1,18.5-8.4,21.3
		c-7.1,2-15.9,1.5-21.2-4.3c-3.6-3.5-4-8.8-4.2-13.5c3.1,0,6.2,0,9.2,0c0.9,3.9,2.1,9,6.9,9.5c5,1.7,11.2-2.6,9.2-8.1
		c-3.8-7.1-13-7.8-18.6-13C276,408.9,274.9,400,279,394.3L279,394.3z"/>
	<path id="path22" inkscape:connector-curvature="0" class="st0" d="M315.8,388.1c3.4,0,6.7-0.1,10.1-0.1c0,7.2,0,14.4,0,21.6
		c6.9,0.1,13.7,0.1,20.6,0c0-7.2,0-14.4,0-21.6c3.1,0,6.3,0,9.4,0c0,18.3,0.1,36.5-0.1,54.8c-3.1,0-6.2,0-9.3,0
		c-0.2-8.2,0.1-16.4-0.2-24.6c-0.7,8.2-0.3,16.4-0.6,24.7c-0.2-8.2-0.1-16.4,0.3-24.6c-6.4,0.1-12.8-0.2-19.2,0.1
		c-1.2,1.5-0.8,3.5-0.9,5.3c0,6.4,0.1,12.7-0.1,19.1c-3.3,0-6.6,0-10-0.1C315.8,424.6,315.8,406.4,315.8,388.1L315.8,388.1z"/>
	<path id="path24" inkscape:connector-curvature="0" class="st0" d="M365.3,388.1c3.4,0,6.8,0,10.2,0c0,18.3,0,36.6,0,54.8
		c-3.4,0-6.8,0-10.1,0C365.2,424.6,365.3,406.4,365.3,388.1z"/>
	<path id="path26" inkscape:connector-curvature="0" class="st0" d="M80.9,388.1c3.6,0,7.2,0,10.7,0c0,18.3,0,36.5,0,54.8
		c-3.3,0-6.6,0.1-9.8-0.1c-1.2-1.5-0.8-3.5-0.9-5.2C80.9,421.1,80.9,404.6,80.9,388.1z"/>
	<path id="path28" inkscape:connector-curvature="0" class="st0" d="M147,463.8c7.1-1,14.6,2.2,18.7,8.1c5.1,7.4,5.9,17,5,25.8
		c-0.9,7-3.6,14.4-9.6,18.7c-9,6.5-23.5,3.8-28.7-6.3c-5.5-9.9-5.5-22.3-1.7-32.8C133.1,470.3,139.5,464.6,147,463.8 M146.9,473.4
		c-4.5,1.4-6.8,6-7.8,10.3c-1.7,7.3-1.5,15.6,2.3,22.3c2.1,3.9,7,5.6,11.2,4.5c5.3-2.5,7.9-8.6,8-14.2c0.3-6.5,0.4-13.8-3.5-19.4
		C154.9,473.7,150.6,472.2,146.9,473.4L146.9,473.4z"/>
	<path id="path30" inkscape:connector-curvature="0" class="st0" d="M221.9,463.8c6.4-0.6,13.2,1.9,17.3,7c5,6,6.3,14.2,6.4,21.8
		c-0.2,8-2.3,16.6-8.2,22.3c-5.9,5.7-15.5,6.3-22.7,2.8c-7.1-3.7-10.8-11.7-11.7-19.4c-0.6-7.8-0.5-16,3-23.1
		C209,469.1,215,464.4,221.9,463.8 M221.7,473.3c-5.1,1.5-7.6,7.1-8.4,11.9c-0.8,6.2-1,12.8,1.5,18.7c1.5,3.6,4.7,7,8.9,6.9
		c5,0.5,8.9-4,10.2-8.4c2.3-7.6,2.2-16.2-1.1-23.5C231,474.6,226.1,472,221.7,473.3z"/>
	<path id="path32" inkscape:connector-curvature="0" class="st0" d="M292.8,473c4.5-9.8,19-12.4,26.7-4.9c3.9,3.2,4.9,8.2,5.3,13
		c-3.2,0-6.4,0-9.6,0c-0.8-2.7-0.9-6.2-3.8-7.5c-3.2-1.3-7.5-0.8-9.4,2.4c-1,2.3-0.9,5.5,1.3,7c6.6,5.5,16.1,7.5,20.7,15.3
		c4.5,7.9-0.6,18.4-9,20.9c-7.3,1.9-16.5,1.4-21.5-5.1c-3.1-3.4-3.2-8.1-3.6-12.4c3.2,0,6.5,0.1,9.7,0.2c0.7,2.4,0.6,5.4,2.7,7.2
		c4.3,4.2,14.4,1.9,13.2-5.3c-2.2-7.1-10.8-8.1-16.1-12C292.9,488.2,289.5,479.8,292.8,473L292.8,473z"/>
	<path id="path34" inkscape:connector-curvature="0" class="st0" d="M78.2,464.6c4.2,0,8.3,0,12.5-0.1c3.2,8.5,6.5,17.1,9.2,25.8
		c2.9-8.7,6.2-17.2,9.6-25.7c4,0,8.1,0,12.2,0c0,18.2,0,36.4,0,54.6c-3.2,0-6.4,0-9.6,0c-0.1-13.3,0.1-26.6-0.2-39.9
		c-3.6,10.4-8.1,20.5-12,30.8c-4-10.4-8.4-20.6-12-31.1c-0.1,13.4,0,26.8,0,40.2c-3.2,0-6.4,0-9.6,0C78.1,501,78.1,482.8,78.2,464.6
		L78.2,464.6z"/>
	<path id="path36" inkscape:connector-curvature="0" class="st0" d="M170.7,464.6c10.8,0,21.6,0,32.4,0c0,2.8,0,5.6,0,8.3
		c-3.8,0-7.5,0-11.3,0.1c0,15.4,0,30.8,0,46.2c-3.3,0-6.7,0-10,0c-0.1-15.4,0-30.9,0-46.3c-3.7,0-7.4,0-11.1,0
		C170.7,470.1,170.7,467.3,170.7,464.6L170.7,464.6z"/>
	<path id="path38" inkscape:connector-curvature="0" class="st0" d="M251.6,519.2c-0.1-18.2,0-36.4,0-54.6
		c8.7,0.6,17.8-1.5,26.1,1.6c11.2,4.1,12.9,22.5,2,27.8c-0.6,0.4-1.7,1-2.3,1.4c4.5,8,9.4,15.8,13.8,23.8c-3.9,0-7.8,0-11.8,0.1
		c-4.9-9.6-9.9-19.2-14.6-29c2.9-0.7,6.5-0.2,8.9-2.3c4.2-3.3,4.2-11-0.7-13.6c-3.5-1.9-7.7-1.3-11.5-1.6c-0.1,15.5,0,31-0.1,46.4
		C258.2,519.2,254.9,519.2,251.6,519.2L251.6,519.2z"/>
</g>
</svg>
