<?xml version="1.0" encoding="utf-8"?>
<!-- Generator: Adobe Illustrator 23.1.0, SVG Export Plug-In . SVG Version: 6.00 Build 0)  -->
<svg version="1.1" id="Layer_1" xmlns="http://www.w3.org/2000/svg" xmlns:xlink="http://www.w3.org/1999/xlink" x="0px" y="0px"
	 viewBox="0 0 212.82 203.92" style="enable-background:new 0 0 212.82 203.92;" xml:space="preserve">
<style type="text/css">
	.st0{fill:#333333;}
	.st1{fill:#323232;}
</style>
<g>
	<path class="st0" d="M166.92,95.79c-1.1,25.78-15.57,54.07-49.59,68.92C68.06,186.22,8.56,158.08,0.83,97.57
		c-2.07-16.19-0.29-31.92,5.63-47.05c14.7-37.53,49.92-53.36,86.07-50.1C140.89,4.77,167.52,42.88,166.92,95.79z M134.99,83.93
		c0.22-9.16-2.07-20.01-7.13-30.16c-8.73-17.52-22.3-28.65-42.45-29.37c-18.74-0.67-33.46,7.61-42.76,23.69
		c-14.92,25.81-14.88,52.38,0.87,77.64c18.47,29.61,61.61,29.1,80.57-0.23C131.82,113.54,134.98,100.26,134.99,83.93z"/>
	<path class="st1" d="M188.49,203.82c-6.49,0-12.99-0.18-19.47,0.07c-3.58,0.14-4.42-1.42-4.68-4.63
		c-0.41-5.21,1.01-9.12,5.21-12.59c7.31-6.05,13.86-12.94,19.62-20.53c2.52-3.33,4.72-6.85,5.93-10.91
		c2.07-6.95-1.26-12.26-8.45-13.45c-5.51-0.92-10.63,0.46-15.37,3.09c-3.61,2-4.42,0.88-4.63-2.83c-0.42-7.45-0.61-7.46,6.51-9.64
		c5.28-1.62,10.69-2.57,16.23-2.26c16.12,0.88,24.36,12.97,19.59,28.54c-2.51,8.2-7.73,14.65-13.37,20.82
		c-3.03,3.31-6.32,6.39-9.43,9.63c-0.65,0.68-1.58,1.76-1.42,2.43c0.33,1.39,1.88,1.05,2.98,1.06c6.32,0.04,12.66,0.24,18.97-0.04
		c4.41-0.19,6.14,1.08,6.11,5.83c-0.02,4.57-1.66,5.7-5.86,5.5C200.81,203.6,194.65,203.82,188.49,203.82z"/>
</g>
</svg>
