<?xml version="1.0" encoding="utf-8"?>
<!-- Generator: Adobe Illustrator 23.1.0, SVG Export Plug-In . SVG Version: 6.00 Build 0)  -->
<svg version="1.1" id="Layer_1" xmlns="http://www.w3.org/2000/svg" xmlns:xlink="http://www.w3.org/1999/xlink" x="0px" y="0px"
	 viewBox="0 0 583.15 174.36" style="enable-background:new 0 0 583.15 174.36;" xml:space="preserve">
<style type="text/css">
	.st0{fill:#929292;}
</style>
<g>
	<path class="st0" d="M583.14,88.95c0,2.71,0.02,5.22-0.01,7.74c-0.01,0.83-0.74,1.3-1.23,1.85c-6.13,6.96-12.99,13.13-20.38,18.72
		c-19.77,14.95-41.62,25.78-65.37,32.78c-17,5.01-34.37,7.65-52.13,7.35c-11.19-0.19-22.29-1.38-33.31-3.25
		c-18.53-3.15-36.7-7.89-54.84-12.72c-15.98-4.26-31.95-8.58-48.06-12.37c-19.58-4.6-39.29-8.45-59.23-11.18
		c-23.84-3.27-47.77-4.92-71.82-4.93c-20.33,0-40.61,0.72-60.82,3.08c-12.87,1.5-25.64,3.59-38.19,6.84
		c-17.05,4.42-33.34,10.66-47.97,20.71c-11.48,7.89-21.07,17.62-28.6,29.36c-0.22,0.34-0.45,0.68-0.69,1
		c-0.08,0.11-0.22,0.18-0.49,0.4c0.1-4.5,0-8.65,2.81-12.62c8.1-11.47,18.36-20.4,30.43-27.37c16.31-9.42,34.02-14.99,52.32-18.93
		c19.15-4.13,38.56-6.21,58.1-7.3c18.57-1.03,37.15-1.14,55.74-0.43c14.36,0.55,28.68,1.73,42.96,3.44
		c19.42,2.33,38.66,5.72,57.73,10.01c16.19,3.64,32.23,7.89,48.24,12.27c16.2,4.43,32.38,8.93,48.81,12.45
		c19.58,4.19,39.33,6.77,59.41,5.56c12.4-0.75,24.58-2.94,36.53-6.37c22.69-6.51,43.48-16.86,62.41-30.91
		c9.44-7.01,18.15-14.84,25.95-23.66C581.9,89.99,582.29,89.4,583.14,88.95z"/>
	<path class="st0" d="M277.83,37.05c0-11.22,0-22.44,0-33.66c0-2.52,0.18-2.7,2.67-2.71c3.35-0.01,6.7-0.01,10.05,0
		c2.63,0.01,2.81,0.16,2.81,2.72c0.02,7.82,0.01,15.64,0.03,23.46c0,0.47-0.29,1.13,0.25,1.38c0.44,0.2,0.74-0.41,1.1-0.67
		c7.87-5.7,16.28-7.74,25.44-3.44c5.34,2.51,8.68,7.02,10.58,12.45c3.82,10.95,3.35,21.76-2.6,31.86
		c-6.39,10.84-16.3,15.56-28.74,15.11c-6.11-0.22-11.72-2.07-16.99-5.2c-3.29-1.96-4.67-4.6-4.64-8.38
		c0.1-10.97,0.03-21.93,0.03-32.9C277.82,37.05,277.83,37.05,277.83,37.05z M293.38,54.07c0,5.69,0.02,11.37-0.01,17.06
		c-0.01,2.05,0.78,3.61,2.71,4.32c5.7,2.09,11.98,1.48,15.98-4.03c2.89-3.98,4.08-8.54,4.58-13.36c0.62-5.93,0.31-11.76-1.66-17.43
		c-2.18-6.3-6.61-9.43-12.69-8.89c-2.85,0.25-5.31,1.54-7.67,3.1c-0.93,0.61-1.27,1.24-1.27,2.33
		C293.41,42.8,293.38,48.44,293.38,54.07z"/>
	<path class="st0" d="M38.78,0.7c6.16,0.24,12.23,1.02,18.12,2.96c2.32,0.76,2.63,1.18,2.63,3.59c0,2.18,0.01,4.37-0.02,6.55
		c-0.03,2.34-1.43,3.17-3.52,1.97c-1.8-1.04-3.44-2.34-5.22-3.41c-5.41-3.24-11.21-4.71-17.5-3.48c-3.18,0.62-5.95,2.05-7.85,4.8
		c-2.67,3.87-1.86,8.62,2.01,11.79c2.94,2.4,6.35,3.98,9.79,5.48c5.67,2.48,11.5,4.61,16.82,7.83c3.54,2.14,6.77,4.64,9.05,8.2
		c3.25,5.07,3.36,10.55,2.08,16.15c-2.3,10.09-9.12,15.93-18.62,18.82C35.1,85.43,23.89,84,12.96,79.44
		c-1.76-0.73-2.69-1.81-2.57-3.81c0.11-1.82,0.01-3.65,0.03-5.48c0.02-2.73,1.91-3.81,4.3-2.37c2.6,1.57,5.04,3.43,7.8,4.73
		c6.24,2.93,12.64,4.39,19.46,2.22c6.39-2.04,10.04-7.74,8.79-13.92c-0.62-3.06-2.63-5.2-5.12-6.92c-3.83-2.66-8.17-4.26-12.45-6
		c-5.22-2.12-10.41-4.24-15.06-7.55C8.09,33.19,8.01,20.45,12.82,12.48c4.34-7.19,11.13-10.36,19.12-11.5
		C34.21,0.66,36.49,0.63,38.78,0.7z"/>
	<path class="st0" d="M164,52.29c0-9.04,0-18.07,0-27.11c0-2.4,0.3-2.68,2.74-2.67c3.35,0.01,6.7,0.02,10.05,0.03
		c2.05,0.01,2.44,0.38,2.56,2.49c0.02,0.25,0.06,0.51,0.05,0.76c-0.03,1.12,0.35,1.32,1.34,0.74c3.04-1.77,6.3-3.03,9.67-4.04
		c4.51-1.34,9.06-1.66,13.69-0.72c7.13,1.44,11.66,6.39,12.69,13.92c0.17,1.25,0.3,2.53,0.3,3.79c0.01,13.35,0,26.7-0.01,40.05
		c0,2.26-0.29,2.53-2.56,2.53c-3.6,0.01-7.21,0.01-10.81,0c-2-0.01-2.31-0.3-2.31-2.3c-0.01-12.79-0.01-25.59-0.01-38.38
		c0-0.91,0.01-1.83-0.04-2.74c-0.25-4.64-2.76-7.29-7.4-7.72c-5.04-0.47-9.44,1.43-13.72,3.79c-0.76,0.42-0.57,1.12-0.57,1.75
		c-0.01,8.43-0.01,16.85-0.01,25.28c0,5.69,0,11.37,0,17.06c0,3.22-0.05,3.27-3.18,3.27c-3.35,0-6.7,0-10.05-0.01
		c-2.08,0-2.42-0.37-2.42-2.51c0-9.09,0-18.17,0-27.26C163.99,52.29,164,52.29,164,52.29z"/>
	<path class="st0" d="M123.86,58.74c0,6.96,0,13.92,0,20.87c0,2.04-0.35,2.39-2.39,2.4c-3.4,0.02-6.81,0.03-10.21,0.01
		c-2.02-0.01-2.16-0.16-2.38-2.12c-0.31-2.73-0.34-2.77-2.44-1.15c-8.71,6.72-19.78,5.26-26.16,1.02
		c-5.81-3.86-8.08-9.42-7.59-16.23c0.45-6.34,4.17-10.37,9.52-13.16c5.23-2.73,10.97-3.54,16.73-4.29c2.16-0.28,4.32-0.64,6.42-1.25
		c2.11-0.61,2.85-1.53,2.86-3.7c0.01-1.93-0.07-3.86-0.55-5.74c-0.89-3.46-3.19-5.49-6.74-5.85c-6.37-0.65-12.01,1.35-17.26,4.76
		c-1.02,0.66-1.95,1.46-2.96,2.13c-1.7,1.13-3.66,0.27-3.78-1.77c-0.14-2.27-0.1-4.57,0.03-6.85c0.09-1.52,1.21-2.36,2.54-2.94
		c5.72-2.48,11.77-3.45,17.94-3.72c5.14-0.22,10.26,0.09,15.2,1.74c7.28,2.43,11.1,7.57,11.2,15.27c0.09,6.85,0.02,13.71,0.02,20.57
		C123.84,58.74,123.85,58.74,123.86,58.74z M108.22,60.69c0-2.59-0.04-5.17,0.02-7.76c0.02-1.04-0.27-1.42-1.36-1.39
		c-3.58,0.09-7.08,0.63-10.41,1.96c-5.9,2.35-9,7.2-8.51,13.15c0.39,4.67,3.23,7.98,7.59,8.62c4.1,0.6,7.72-0.56,10.83-3.31
		c1.28-1.14,1.97-2.47,1.87-4.27C108.13,65.36,108.22,63.02,108.22,60.69z"/>
	<path class="st0" d="M371.08,83.02c-0.21,0.03-0.43,0.06-0.64,0.09c-4.15-0.22-8.29-0.47-12.36-1.4c-2.17-0.49-4.23-1.19-6.23-2.22
		c-0.97-0.5-1.65-1.86-3.07-1.37c0,0,0.04,0.01,0.03,0.01c-0.17-0.13-0.35-0.25-0.52-0.38c0,0-0.08-0.06-0.08-0.06
		c-0.1-0.31-0.32-0.47-0.63-0.52c0,0,0.02,0.01,0.02,0.01c-0.16-0.12-0.32-0.25-0.47-0.37l-0.08-0.01c0,0-0.01-0.08-0.01-0.08
		c-0.44-0.65-0.47-1.73-1.66-1.62c0,0,0.01,0.01,0.01,0.01c0.12-1.34-0.81-1.95-1.78-2.53c0,0,0.01,0.02,0.01,0.02
		c-0.09-1.31-0.76-2.36-1.51-3.38c0,0,0,0.01,0,0.01c0.08-2.04-0.58-4.02-0.58-6.04c-0.02-12.43-0.02-24.87-0.01-37.3
		c0-1.96,0.9-2.92,2.86-2.96c3.15-0.06,6.29-0.06,9.44,0c2.06,0.03,2.48,0.56,2.34,2.57c-0.04,0.56-0.03,1.12-0.03,1.67
		c0,11.52,0.03,23.04-0.02,34.56c-0.01,2.95,0.26,5.87,0.62,8.78c0.11,0.85,0.48,1.17,1.28,1.11c0,0-0.01-0.02-0.01-0.02
		c0.39,2.37,2.51,3.36,4.2,3.95c3.45,1.19,7.19,1.22,10.67-0.11c1.37-0.53,3.14-1.13,3.4-3.11c0,0,0.04-0.06,0.04-0.06
		c0.92-0.35,1.16-1.2,1.45-2.01c0.82-2.27,0.9-4.66,0.91-7.03c0.05-12.24,0.02-24.47,0.02-36.71c0-0.51-0.02-1.02,0.02-1.52
		c0.1-1.37,0.75-2.14,2.23-2.12c2.49,0.04,4.99-0.15,7.46,0.06c1.82,0.16,3.9-0.54,5.43,1.15c0,0.22,0,0.43,0.01,0.65
		c-0.31,0.68-0.21,1.4-0.21,2.1c-0.01,11.26-0.04,22.53,0.04,33.79c0.01,1.47-0.75,2.72-0.74,4.11c0.03,4.62-2.15,8.19-5.28,11.31
		c-0.45,0.45-0.83,0.85-1,1.45c0,0,0.02-0.02,0.02-0.02c-1.21,0.01-1.92,0.73-2.48,1.69l-0.02,0.08c0,0-0.08,0-0.08,0
		c-0.35,0.06-0.73,0.05-1.03,0.2c-3.28,1.53-6.62,2.81-10.29,3C372.2,82.5,371.53,82.5,371.08,83.02z"/>
	<path class="st0" d="M481.45,62.05c2-5.47,3.9-10.69,5.81-15.91c2.62-7.14,5.26-14.27,7.84-21.43c0.54-1.49,1.34-2.26,3.01-2.13
		c1.46,0.12,2.94,0,4.42,0.01c1.86,0.02,2.28,0.62,1.61,2.38c-1.8,4.69-3.63,9.36-5.45,14.04c-6.38,16.4-12.69,32.82-19.17,49.18
		c-4.01,10.13-14.43,16.49-25.29,15.7c-1.15-0.08-2.31-0.35-3.43-0.65c-1.8-0.49-2.46-1.42-2.48-3.33
		c-0.02-1.98-0.01-3.96-0.01-5.94c0-2.48,1-3.25,3.5-2.62c2.46,0.62,4.9,1.36,7.44,1.54c4.62,0.34,8.92-0.33,12.3-3.92
		c2.33-2.47,3.09-6.19,1.77-9.25c-7.7-17.83-15.41-35.66-23.13-53.49c-1.4-3.23-1.17-3.61,2.36-3.63c3.96-0.01,7.92,0.03,11.88-0.01
		c1.52-0.02,2.38,0.55,2.93,2.04C471.97,37.02,476.66,49.38,481.45,62.05z"/>
	<path class="st0" d="M246.55,83.54c-5.75-0.07-11.29-1.17-16.62-3.33c-2.5-1.02-3.01-1.79-3.02-4.47
		c-0.01-1.57-0.01-3.15,0.03-4.72c0.04-1.72,0.98-2.44,2.68-2.11c0.88,0.17,1.55,0.72,2.25,1.23c5.2,3.77,10.94,5.97,17.44,5.77
		c2.57-0.08,5.05-0.62,7.08-2.37c3.22-2.78,3.08-7.12-0.29-9.66c-2.9-2.18-6.35-3.14-9.69-4.31c-4.74-1.66-9.51-3.2-13.82-5.92
		c-10.25-6.46-8.97-21.11-0.6-27.16c4.36-3.15,9.32-4.42,14.56-4.74c6.43-0.4,12.63,0.79,18.62,3.12c1.58,0.61,2.33,1.73,2.37,3.36
		c0.04,1.52,0.07,3.05,0,4.57c-0.09,2.21-1.39,2.99-3.39,1.99c-1.99-1-3.81-2.32-5.9-3.15c-5.09-2.01-10.29-3.2-15.76-2.04
		c-2.59,0.55-4.81,1.73-5.5,4.6c-0.59,2.48,0.52,4.53,3.12,5.96c3.01,1.66,6.3,2.51,9.55,3.51c4.17,1.28,8.34,2.52,12.21,4.63
		c6.59,3.6,9.34,9.06,8.63,16.51c-1.05,11.11-8.32,16.94-18.48,18.39C250.21,83.46,248.38,83.61,246.55,83.54z"/>
	<path class="st0" d="M538.89,83.54c-5.64-0.09-11.09-1.17-16.32-3.29c-2.63-1.06-3.1-1.76-3.11-4.55c0-1.52-0.02-3.05,0.01-4.57
		c0.04-1.88,1.23-2.71,3.03-2.14c0.79,0.25,1.4,0.81,2.06,1.28c5.89,4.12,12.29,6.51,19.6,5.34c2.78-0.44,5.27-1.57,6.5-4.42
		c1.18-2.74,0.51-5.36-1.87-7.19c-2.92-2.24-6.41-3.24-9.81-4.42c-4.89-1.7-9.81-3.26-14.2-6.16c-9.99-6.6-8.11-20.29-1.51-25.91
		c4.83-4.11,10.53-5.52,16.63-5.79c6.07-0.27,11.91,0.9,17.57,3.06c1.75,0.67,2.61,1.82,2.6,3.67c-0.01,1.37,0.03,2.74-0.01,4.11
		c-0.07,2.54-1.45,3.32-3.73,2.07c-1.78-0.97-3.47-2.11-5.35-2.89c-4.71-1.95-9.57-3.05-14.7-2.4c-1.89,0.24-3.66,0.79-5.14,2.07
		c-2.42,2.1-2.5,5.51-0.09,7.59c2.53,2.19,5.72,3,8.81,3.97c4.98,1.57,10.05,2.85,14.68,5.41c6.4,3.54,9.12,8.89,8.51,16.14
		c-0.96,11.52-8.6,17.45-18.98,18.72C542.34,83.47,540.62,83.6,538.89,83.54z"/>
	<path class="st0" d="M421.11,30.86c1.93-2.35,4.02-4.52,6.53-6.27c4.57-3.19,9.58-3.7,14.84-2.42c2.09,0.51,2.83,1.49,2.73,3.59
		c-0.1,2.28-0.02,4.57-0.04,6.85c-0.02,2.18-0.92,2.93-3.12,2.38c-2.22-0.55-4.41-1.16-6.71-1.29c-2.55-0.15-5.08-0.1-7.53,0.72
		c-4.26,1.43-6.54,4.41-6.79,9.09c-0.12,2.33-0.06,4.67-0.06,7.01c-0.01,9.65-0.01,19.3-0.02,28.94c0,2.17-0.32,2.47-2.47,2.48
		c-3.61,0.01-7.21,0.02-10.82,0.01c-1.89,0-2.28-0.41-2.28-2.36c0-14.93,0.01-29.86,0.02-44.79c0-3.3-0.01-6.6,0.01-9.9
		c0.01-1.95,0.38-2.31,2.32-2.31c3.55,0,7.11-0.01,10.66,0.02c1.73,0.02,2.18,0.45,2.22,2.16c0.05,2,0.01,4,0.01,6
		C420.78,30.8,420.94,30.83,421.11,30.86z"/>
	<path class="st0" d="M150.85,52.46c0,9.13,0,18.27,0,27.4c0,1.76-0.39,2.19-2.1,2.2c-3.86,0.01-7.71-0.03-11.57,0.02
		c-1.33,0.02-1.84-0.58-1.84-1.82c0-1.01-0.04-2.03-0.04-3.04c0-16.7,0-33.39,0-50.09c0-0.81,0.03-1.62,0.02-2.44
		c-0.02-1.32,0.57-1.94,1.93-1.93c3.91,0.03,7.82,0,11.72,0.02c1.53,0.01,1.88,0.44,1.88,2.27
		C150.85,34.19,150.85,43.33,150.85,52.46z"/>
	<path class="st0" d="M514.46,0.64c0.86,0,1.73-0.02,2.59,0c3.44,0.12,5.6,1.86,6.06,5.24c0.81,5.96-0.77,11.33-4.33,16.16
		c-1.69,2.29-4.07,2.23-6.46,1.96c-1.14-0.13-1.43-1-1.03-2.06c0.55-1.47,1.18-2.91,1.53-4.45c0.95-4.12,0.2-7.95-1.92-11.56
		c-0.46-0.79-0.93-1.57-1.32-2.4c-0.81-1.72-0.17-2.8,1.7-2.88C512.33,0.61,513.4,0.65,514.46,0.64
		C514.46,0.65,514.46,0.65,514.46,0.64z"/>
	<path class="st0" d="M143.02,15.42c-6.66-0.13-10.44-5.34-8.21-10.81c0.49-1.21,1.23-2.22,2.34-2.91c3.37-2.13,6.92-2.2,10.41-0.49
		c2.78,1.36,4.05,4.51,3.5,7.75c-0.57,3.36-2.82,5.68-6.13,6.27C144.17,15.36,143.4,15.38,143.02,15.42z"/>
	<path class="st0" d="M358.02,71.63c-0.8,0.07-1.17-0.26-1.28-1.11c-0.36-2.92-0.63-5.83-0.62-8.78
		c0.05-11.52,0.02-23.04,0.02-34.56c0-0.56-0.01-1.12,0.03-1.67c0.14-2.01-0.28-2.54-2.34-2.57c-3.15-0.05-6.29-0.05-9.44,0
		c-1.96,0.04-2.86,1-2.86,2.96c-0.01,12.43-0.02,24.87,0.01,37.3c0,2.03,0.66,4,0.58,6.04c-0.84-1.89-1.05-3.91-1.06-5.93
		c-0.04-12.8-0.02-25.59-0.02-38.39c0-1.91,0.41-2.31,2.33-2.32c3.55-0.02,7.11-0.02,10.67-0.01c2.28,0.01,2.64,0.38,2.64,2.67
		c0,13.15,0.02,26.31-0.02,39.46C356.65,67.13,356.86,69.46,358.02,71.63z"/>
	<path class="st0" d="M393.83,24.11c-1.52-1.68-3.6-0.99-5.43-1.15c-2.47-0.21-4.97-0.03-7.46-0.06c-1.48-0.02-2.13,0.75-2.23,2.12
		c-0.04,0.51-0.02,1.01-0.02,1.52c0,12.24,0.03,24.47-0.02,36.71c-0.01,2.36-0.1,4.75-0.91,7.03c-0.29,0.81-0.53,1.66-1.45,2.01
		c1.73-3.12,2.01-6.54,2.01-10.01c0.01-12.37,0.01-24.75,0.02-37.12c0-2.29,0.29-2.57,2.52-2.57c3.6,0,7.2,0,10.8,0.01
		C392.73,22.59,393.74,22.72,393.83,24.11z"/>
	<path class="st0" d="M386.65,77.53c0.17-0.6,0.55-1,1-1.45c3.12-3.11,5.31-6.69,5.28-11.31c-0.01-1.39,0.75-2.64,0.74-4.11
		c-0.08-11.26-0.05-22.53-0.04-33.79c0-0.7-0.1-1.43,0.21-2.1c0.02,3.9,0.06,7.8,0.06,11.7c0.01,8.51,0.07,17.03-0.03,25.54
		c-0.07,5.98-2.03,11.22-6.7,15.21C387.02,77.35,386.82,77.42,386.65,77.53z"/>
	<path class="st0" d="M348.77,78.13c1.42-0.49,2.1,0.86,3.07,1.37c1.99,1.04,4.06,1.73,6.23,2.22c4.07,0.93,8.22,1.17,12.36,1.4
		c-7.14,0.48-14-0.42-20.34-4.03C349.62,78.82,349.09,78.62,348.77,78.13z"/>
	<path class="st0" d="M376.27,72.34c-0.26,1.98-2.03,2.58-3.4,3.11c-3.48,1.33-7.22,1.31-10.67,0.11c-1.69-0.58-3.81-1.57-4.2-3.95
		C362.87,77.35,371.17,77.68,376.27,72.34z"/>
	<path class="st0" d="M371.08,83.02c0.45-0.52,1.12-0.52,1.69-0.55c3.67-0.19,7.01-1.47,10.29-3c0.31-0.14,0.69-0.14,1.03-0.2
		C380.11,81.75,375.7,82.75,371.08,83.02z"/>
	<path class="st0" d="M343.61,72.6c0.97,0.58,1.9,1.18,1.78,2.53C344.65,74.38,343.94,73.62,343.61,72.6z"/>
	<path class="st0" d="M384.2,79.2c0.55-0.96,1.27-1.68,2.48-1.69C385.98,78.27,385.16,78.83,384.2,79.2z"/>
	<path class="st0" d="M342.11,69.24c0.75,1.02,1.42,2.07,1.51,3.38C342.88,71.59,342.33,70.49,342.11,69.24z"/>
	<path class="st0" d="M345.37,75.11c1.18-0.11,1.22,0.97,1.66,1.62C346.31,76.36,345.8,75.78,345.37,75.11z"/>
	<path class="st0" d="M347.58,77.19c0.31,0.05,0.53,0.21,0.63,0.52C347.89,77.66,347.68,77.48,347.58,77.19z"/>
	<path class="st0" d="M347.12,76.82c0.16,0.12,0.32,0.25,0.47,0.37C347.35,77.18,347.19,77.06,347.12,76.82z"/>
	<path class="st0" d="M348.29,77.76c0.17,0.13,0.35,0.25,0.52,0.38C348.57,78.11,348.37,78.01,348.29,77.76z"/>
</g>
</svg>
