<?xml version="1.0" encoding="utf-8"?>
<!-- Generator: Adobe Illustrator 25.0.1, SVG Export Plug-In . SVG Version: 6.00 Build 0)  -->
<svg version="1.1" id="svg6217" xmlns:svg="http://www.w3.org/2000/svg"
	 xmlns="http://www.w3.org/2000/svg" xmlns:xlink="http://www.w3.org/1999/xlink" x="0px" y="0px" viewBox="0 0 1004.5 324.3"
	 style="enable-background:new 0 0 1004.5 324.3;" xml:space="preserve">
<style type="text/css">
	.st0{fill:#3E3E3E;}
	.st1{fill:#5C5C5C;}
</style>
<path id="path5955" class="st0" d="M476.7,200.6l-11.2,55.7c-4.9,22.6-18.5,37.6-46.3,37.6c-31.9,0-40.3-19.8-33.3-47.6
	C395.9,206.8,428.1,195.1,476.7,200.6 M526.9,121l-33.9,2.2l-10.7,54.5c-13-0.5-17-0.9-32.3-0.9c-47.7,0-89.3,20.1-100.3,67.1
	c-9.9,42.4,14.2,75.3,66.7,75.3c53.8,0,77.2-28.1,85.6-67.6L526.9,121z"/>
<path id="path5959" class="st0" d="M159.2,202.9c-49.7-4.5-92.5-0.4-93.2,16.5c-1.1,25.3,81.9,3.2,80.3,49.9
	C144,337.8,28.6,322,0,313.3L5.2,293c49.2,7.8,101.2,8.5,102.3-18.7c1.2-28.9-82.1-2.9-80.2-49.7c1.5-34.8,53.5-53.6,138.8-41.1
	L159.2,202.9z"/>
<path id="path5963" class="st0" d="M293.2,249.5c-7.2,28.6-29.8,46.5-56.8,46.5c-28.2,0-40.9-16.4-33.4-46.5
	c7.2-28.6,30.1-47.8,57.1-47.8C287.1,201.8,300.4,220.9,293.2,249.5 M264.4,178.3c-49.4,0-89.2,28.6-98.9,71.2
	c-9.8,42.6,16.8,71.2,66.2,71.2s89.2-28.6,98.9-71.2C340.5,206.9,313.9,178.3,264.4,178.3"/>
<path id="path5967" class="st0" d="M835.6,320h-43c-26.1-24.5-75.9-80.8-112.6-140.4h31.5C746.4,227.7,835.6,320,835.6,320"/>
<path id="path5971" class="st0" d="M880.6,41.2L900.4,0l5.6,41.9l40.3-14.1l-28.2,36.1l30.6,23.7l-40.8,3.2l-2.2,43.6L883,102.1
	l-33.3,30.7l12.5-43.3l-39.3-5.3l38.3-21.8l-15.7-37.3L880.6,41.2z"/>
<path id="path5975" class="st0" d="M964.4,250c-7.3,29-30.3,47.3-57.7,47.3c-28.7,0-41.6-16.6-33.9-47.3c7.3-29,30.6-48.5,58-48.5
	C958.2,201.4,971.7,220.9,964.4,250 M935.2,177.6c-50.2,0-90.6,29.1-100.5,72.3c-9.9,43.3,17.1,72.3,67.3,72.3
	c50.2,0,90.6-29,100.5-72.3C1012.4,206.7,985.4,177.6,935.2,177.6"/>
<path id="path5979" class="st1" d="M647.4,308.1c81.2-45.1,151.7-114.4,201.7-174.2C813.2,246.3,726.6,306.9,647.4,308.1"/>
<path id="path5983" class="st0" d="M615.3,199.2c15.5,0,24,5.6,24,16.4c0,28.6-55.8,26.7-80.4,21.7
	C567.6,215.9,587.1,199.2,615.3,199.2 M672.8,214.1c0-20.7-16.5-36-54.1-36c-60.8,0-100.4,39.5-100.4,88.4
	c0,31.6,26.2,57.8,74.1,57.8c33,0,55-16.3,55-16.3c-42,4.5-93.6,0-93.6-44.9c0-1.8,0.1-3.6,0.2-5.3
	C611.4,269.7,672.8,255.3,672.8,214.1"/>
</svg>
